  0
SECTION
  2
HEADER
  9
$ANGBASE
  50
0.0
  9
$ANGDIR
  70
1
  9
$MEASUREMENT
  70
0
  0
ENDSEC
  0
SECTION
  2
TABLES
  0
TABLE
  2
LTYPE
  70
4
  0
LTYPE
  5
40F
  2
CONTINUOUS
  70
0
  3
Solid line
  72
65
  73
0
  40
0.0
  0
LTYPE
  5
410
  2
DASHDOT
 70
0
  3
Dash Dot ____ _ ____ _
 72
65
 73
4
 40
2.0
 49
1.25
 49
-0.25
 49
0.25
 49
-0.25
  0
LTYPE
  5
411
  2
DASHED
 70
0
  3
Dashed __ __ __ __ __
 72
65
 73
2
 40
0.75
 49
0.5
 49
-0.25
  0
LTYPE
  5
43B
  2
DOTTED
 70
0
  3
Dotted .  .  .  .
 72
65
 73
2
 40
0.2
 49
0.0
 49
-0.2
  0
ENDTAB
  0
TABLE
  2
STYLE
  70
4
  0
STYLE
  2
KICAD
  70
0
  40
0
  41
1
  42
1
  50
0
  71
0
  3
isocp.shx
  0
STYLE
  2
KICADB
  70
0
  40
0
  41
1
  42
1
  50
0
  71
0
  3
isocp.shx
  0
STYLE
  2
KICADI
  70
0
  40
0
  41
1
  42
1
  50
15
  71
0
  3
isocp.shx
  0
STYLE
  2
KICADBI
  70
0
  40
0
  41
1
  42
1
  50
15
  71
0
  3
isocp.shx
  0
ENDTAB
  0
TABLE
  2
LAYER
  70
1
  0
LAYER
  2
BLACK
  70
0
  62
7
  6
CONTINUOUS
  0
ENDTAB
  0
ENDSEC
  0
SECTION
  2
ENTITIES
0
LINE
8
BLACK
6
CONTINUOUS
10
5.7555772440944883
20
-5.6820043307086614
11
5.8783210236220471
21
-5.7528704724409447
0
LINE
8
BLACK
6
CONTINUOUS
10
5.8783210236220471
20
-5.7528704724409447
11
5.8790139763779523
21
-5.753478188976378
0
LINE
8
BLACK
6
CONTINUOUS
10
5.8790139763779523
20
-5.753478188976378
11
5.879481929133858
21
-5.755224566929134
0
LINE
8
BLACK
6
CONTINUOUS
10
5.879481929133858
20
-5.755224566929134
11
5.8791856299212597
21
-5.7560973228346457
0
LINE
8
BLACK
6
CONTINUOUS
10
5.8791856299212597
20
-5.7560973228346457
11
5.818162047244094
21
-5.8617933070866144
0
LINE
8
BLACK
6
CONTINUOUS
10
5.818162047244094
20
-5.8617933070866144
11
5.8175543307086617
21
-5.8624862598425196
0
LINE
8
BLACK
6
CONTINUOUS
10
5.8175543307086617
20
-5.8624862598425196
11
5.8158079527559057
21
-5.8629542125984253
0
LINE
8
BLACK
6
CONTINUOUS
10
5.8158079527559057
20
-5.8629542125984253
11
5.814935196850394
21
-5.862657913385827
0
LINE
8
BLACK
6
CONTINUOUS
10
5.814935196850394
20
-5.862657913385827
11
5.6921914173228343
21
-5.7917918110236215
0
LINE
8
BLACK
6
CONTINUOUS
10
5.6921914173228343
20
-5.7917918110236215
11
5.6914984645669291
21
-5.7911840944881892
0
LINE
8
BLACK
6
CONTINUOUS
10
5.6914984645669291
20
-5.7911840944881892
11
5.6910305118110234
21
-5.7894377165354332
0
LINE
8
BLACK
6
CONTINUOUS
10
5.6910305118110234
20
-5.7894377165354332
11
5.6913267716535429
21
-5.7885649606299214
0
LINE
8
BLACK
6
CONTINUOUS
10
5.6913267716535429
20
-5.7885649606299214
11
5.7523503937007874
21
-5.6828689763779527
0
LINE
8
BLACK
6
CONTINUOUS
10
5.7523503937007874
20
-5.6828689763779527
11
5.7529581102362206
21
-5.6821760236220475
0
LINE
8
BLACK
6
CONTINUOUS
10
5.7529581102362206
20
-5.6821760236220475
11
5.7547044881889766
21
-5.6817080708661418
0
LINE
8
BLACK
6
CONTINUOUS
10
5.7547044881889766
20
-5.6817080708661418
11
5.7555772440944883
21
-5.6820043307086614
0
LINE
8
BLACK
6
CONTINUOUS
10
5.6965993700787401
20
-5.7888814173228349
11
5.8152516535433065
21
-5.8573853149606299
0
LINE
8
BLACK
6
CONTINUOUS
10
5.8152516535433065
20
-5.8573853149606299
11
5.8739130708661413
21
-5.7557807874015747
0
LINE
8
BLACK
6
CONTINUOUS
10
5.8739130708661413
20
-5.7557807874015747
11
5.7552607086614174
21
-5.6872768897637798
0
LINE
8
BLACK
6
CONTINUOUS
10
5.7552607086614174
20
-5.6872768897637798
11
5.6965993700787401
21
-5.7888814173228349
0
LINE
8
BLACK
6
CONTINUOUS
10
6.1492780314960624
20
-5.0000945669291337
11
6.2720218110236221
21
-5.070960708661417
0
LINE
8
BLACK
6
CONTINUOUS
10
6.2720218110236221
20
-5.070960708661417
11
6.2727147637795273
21
-5.0715684251968502
0
LINE
8
BLACK
6
CONTINUOUS
10
6.2727147637795273
20
-5.0715684251968502
11
6.273182716535433
21
-5.0733148031496063
0
LINE
8
BLACK
6
CONTINUOUS
10
6.273182716535433
20
-5.0733148031496063
11
6.2728864173228347
21
-5.074187559055118
0
LINE
8
BLACK
6
CONTINUOUS
10
6.2728864173228347
20
-5.074187559055118
11
6.211862834645669
21
-5.1798835433070867
0
LINE
8
BLACK
6
CONTINUOUS
10
6.211862834645669
20
-5.1798835433070867
11
6.2112551181102358
21
-5.1805764960629919
0
LINE
8
BLACK
6
CONTINUOUS
10
6.2112551181102358
20
-5.1805764960629919
11
6.2095087401574798
21
-5.1810444488188976
0
LINE
8
BLACK
6
CONTINUOUS
10
6.2095087401574798
20
-5.1810444488188976
11
6.2086359842519681
21
-5.1807481496062993
0
LINE
8
BLACK
6
CONTINUOUS
10
6.2086359842519681
20
-5.1807481496062993
11
6.0858922047244093
21
-5.1098820472440947
0
LINE
8
BLACK
6
CONTINUOUS
10
6.0858922047244093
20
-5.1098820472440947
11
6.0851992519685041
21
-5.1092743307086614
0
LINE
8
BLACK
6
CONTINUOUS
10
6.0851992519685041
20
-5.1092743307086614
11
6.0847312992125984
21
-5.1075279527559054
0
LINE
8
BLACK
6
CONTINUOUS
10
6.0847312992125984
20
-5.1075279527559054
11
6.0850275590551179
21
-5.1066551968503937
0
LINE
8
BLACK
6
CONTINUOUS
10
6.0850275590551179
20
-5.1066551968503937
11
6.1460511811023624
21
-5.000959212598425
0
LINE
8
BLACK
6
CONTINUOUS
10
6.1460511811023624
20
-5.000959212598425
11
6.1466588976377947
21
-5.0002662598425198
0
LINE
8
BLACK
6
CONTINUOUS
10
6.1466588976377947
20
-5.0002662598425198
11
6.1484052755905507
21
-4.9997983070866141
0
LINE
8
BLACK
6
CONTINUOUS
10
6.1484052755905507
20
-4.9997983070866141
11
6.1492780314960624
21
-5.0000945669291337
0
LINE
8
BLACK
6
CONTINUOUS
10
6.0903001574803151
20
-5.1069716535433072
11
6.2089524409448815
21
-5.1754755511811021
0
LINE
8
BLACK
6
CONTINUOUS
10
6.2089524409448815
20
-5.1754755511811021
11
6.2676138582677163
21
-5.073871023622047
0
LINE
8
BLACK
6
CONTINUOUS
10
6.2676138582677163
20
-5.073871023622047
11
6.1489614960629924
21
-5.005367125984252
0
LINE
8
BLACK
6
CONTINUOUS
10
6.1489614960629924
20
-5.005367125984252
11
6.0903001574803151
21
-5.1069716535433072
0
LINE
8
BLACK
6
CONTINUOUS
10
5.250832834645669
20
-4.9814441338582673
11
5.3735766141732286
21
-5.0523102755905507
0
LINE
8
BLACK
6
CONTINUOUS
10
5.3735766141732286
20
-5.0523102755905507
11
5.3742695669291338
21
-5.0529179921259839
0
LINE
8
BLACK
6
CONTINUOUS
10
5.3742695669291338
20
-5.0529179921259839
11
5.3747375196850395
21
-5.0546643700787399
0
LINE
8
BLACK
6
CONTINUOUS
10
5.3747375196850395
20
-5.0546643700787399
11
5.3744412204724412
21
-5.0555371259842516
0
LINE
8
BLACK
6
CONTINUOUS
10
5.3744412204724412
20
-5.0555371259842516
11
5.3134176377952755
21
-5.1612331102362203
0
LINE
8
BLACK
6
CONTINUOUS
10
5.3134176377952755
20
-5.1612331102362203
11
5.3128099212598423
21
-5.1619260629921255
0
LINE
8
BLACK
6
CONTINUOUS
10
5.3128099212598423
20
-5.1619260629921255
11
5.3110635433070863
21
-5.1623940157480313
0
LINE
8
BLACK
6
CONTINUOUS
10
5.3110635433070863
20
-5.1623940157480313
11
5.3101907874015746
21
-5.1620977165354329
0
LINE
8
BLACK
6
CONTINUOUS
10
5.3101907874015746
20
-5.1620977165354329
11
5.1874470078740158
21
-5.0912316141732283
0
LINE
8
BLACK
6
CONTINUOUS
10
5.1874470078740158
20
-5.0912316141732283
11
5.1867540551181097
21
-5.0906238976377951
0
LINE
8
BLACK
6
CONTINUOUS
10
5.1867540551181097
20
-5.0906238976377951
11
5.1862861023622049
21
-5.0888775196850391
0
LINE
8
BLACK
6
CONTINUOUS
10
5.1862861023622049
20
-5.0888775196850391
11
5.1865823622047245
21
-5.0880047637795274
0
LINE
8
BLACK
6
CONTINUOUS
10
5.1865823622047245
20
-5.0880047637795274
11
5.247605984251968
21
-4.9823087795275587
0
LINE
8
BLACK
6
CONTINUOUS
10
5.247605984251968
20
-4.9823087795275587
11
5.2482137007874012
21
-4.9816158267716535
0
LINE
8
BLACK
6
CONTINUOUS
10
5.2482137007874012
20
-4.9816158267716535
11
5.2499600787401572
21
-4.9811478740157478
0
LINE
8
BLACK
6
CONTINUOUS
10
5.2499600787401572
20
-4.9811478740157478
11
5.250832834645669
21
-4.9814441338582673
0
LINE
8
BLACK
6
CONTINUOUS
10
5.1918549606299216
20
-5.0883212204724408
11
5.310507244094488
21
-5.1568251181102358
0
LINE
8
BLACK
6
CONTINUOUS
10
5.310507244094488
20
-5.1568251181102358
11
5.3691686614173229
21
-5.0552205905511807
0
LINE
8
BLACK
6
CONTINUOUS
10
5.3691686614173229
20
-5.0552205905511807
11
5.250516299212598
21
-4.9867166929133857
0
LINE
8
BLACK
6
CONTINUOUS
10
5.250516299212598
20
-4.9867166929133857
11
5.1918549606299216
21
-5.0883212204724408
0
LINE
8
BLACK
6
CONTINUOUS
10
4.3552346850393704
20
-4.7478175984251969
11
4.3565131102362207
21
-4.7490960236220472
0
LINE
8
BLACK
6
CONTINUOUS
10
4.3565131102362207
20
-4.7490960236220472
11
4.3566929133858263
21
-4.75
0
LINE
8
BLACK
6
CONTINUOUS
10
4.3566929133858263
20
-4.75
11
4.3566929133858263
21
-4.872047244094488
0
LINE
8
BLACK
6
CONTINUOUS
10
4.3566929133858263
20
-4.872047244094488
11
4.3565131102362207
21
-4.8729512204724408
0
LINE
8
BLACK
6
CONTINUOUS
10
4.3565131102362207
20
-4.8729512204724408
11
4.3552346850393704
21
-4.8742296456692911
0
LINE
8
BLACK
6
CONTINUOUS
10
4.3552346850393704
20
-4.8742296456692911
11
4.3543307086614176
21
-4.8744094488188976
0
LINE
8
BLACK
6
CONTINUOUS
10
4.3543307086614176
20
-4.8744094488188976
11
4.21259842519685
21
-4.8744094488188976
0
LINE
8
BLACK
6
CONTINUOUS
10
4.21259842519685
20
-4.8744094488188976
11
4.2116944488188972
21
-4.8742296456692911
0
LINE
8
BLACK
6
CONTINUOUS
10
4.2116944488188972
20
-4.8742296456692911
11
4.2104160236220469
21
-4.8729512204724408
0
LINE
8
BLACK
6
CONTINUOUS
10
4.2104160236220469
20
-4.8729512204724408
11
4.2102362204724413
21
-4.872047244094488
0
LINE
8
BLACK
6
CONTINUOUS
10
4.2102362204724413
20
-4.872047244094488
11
4.2102362204724413
21
-4.75
0
LINE
8
BLACK
6
CONTINUOUS
10
4.2102362204724413
20
-4.75
11
4.2104160236220469
21
-4.7490960236220472
0
LINE
8
BLACK
6
CONTINUOUS
10
4.2104160236220469
20
-4.7490960236220472
11
4.2116944488188972
21
-4.7478175984251969
0
LINE
8
BLACK
6
CONTINUOUS
10
4.2116944488188972
20
-4.7478175984251969
11
4.21259842519685
21
-4.7476377952755904
0
LINE
8
BLACK
6
CONTINUOUS
10
4.21259842519685
20
-4.7476377952755904
11
4.3543307086614176
21
-4.7476377952755904
0
LINE
8
BLACK
6
CONTINUOUS
10
4.3543307086614176
20
-4.7476377952755904
11
4.3552346850393704
21
-4.7478175984251969
0
LINE
8
BLACK
6
CONTINUOUS
10
4.2149606299212596
20
-4.7523622047244096
11
4.2149606299212596
21
-4.8696850393700783
0
LINE
8
BLACK
6
CONTINUOUS
10
4.2149606299212596
20
-4.8696850393700783
11
4.351968503937008
21
-4.8696850393700783
0
LINE
8
BLACK
6
CONTINUOUS
10
4.351968503937008
20
-4.8696850393700783
11
4.351968503937008
21
-4.7523622047244096
0
LINE
8
BLACK
6
CONTINUOUS
10
4.351968503937008
20
-4.7523622047244096
11
4.2149606299212596
21
-4.7523622047244096
0
LINE
8
BLACK
6
CONTINUOUS
10
5.1426362598425195
20
-4.1178963385826775
11
5.1439146850393698
21
-4.1191747637795277
0
LINE
8
BLACK
6
CONTINUOUS
10
5.1439146850393698
20
-4.1191747637795277
11
5.1440944881889763
21
-4.1200787401574805
0
LINE
8
BLACK
6
CONTINUOUS
10
5.1440944881889763
20
-4.1200787401574805
11
5.1440944881889763
21
-4.2421259842519685
0
LINE
8
BLACK
6
CONTINUOUS
10
5.1440944881889763
20
-4.2421259842519685
11
5.1439146850393698
21
-4.2430299606299213
0
LINE
8
BLACK
6
CONTINUOUS
10
5.1439146850393698
20
-4.2430299606299213
11
5.1426362598425195
21
-4.2443083858267716
0
LINE
8
BLACK
6
CONTINUOUS
10
5.1426362598425195
20
-4.2443083858267716
11
5.1417322834645667
21
-4.2444881889763781
0
LINE
8
BLACK
6
CONTINUOUS
10
5.1417322834645667
20
-4.2444881889763781
11
5.
21
-4.2444881889763781
0
LINE
8
BLACK
6
CONTINUOUS
10
5.
20
-4.2444881889763781
11
4.9990960236220472
21
-4.2443083858267716
0
LINE
8
BLACK
6
CONTINUOUS
10
4.9990960236220472
20
-4.2443083858267716
11
4.9978175984251969
21
-4.2430299606299213
0
LINE
8
BLACK
6
CONTINUOUS
10
4.9978175984251969
20
-4.2430299606299213
11
4.9976377952755904
21
-4.2421259842519685
0
LINE
8
BLACK
6
CONTINUOUS
10
4.9976377952755904
20
-4.2421259842519685
11
4.9976377952755904
21
-4.1200787401574805
0
LINE
8
BLACK
6
CONTINUOUS
10
4.9976377952755904
20
-4.1200787401574805
11
4.9978175984251969
21
-4.1191747637795277
0
LINE
8
BLACK
6
CONTINUOUS
10
4.9978175984251969
20
-4.1191747637795277
11
4.9990960236220472
21
-4.1178963385826775
0
LINE
8
BLACK
6
CONTINUOUS
10
4.9990960236220472
20
-4.1178963385826775
11
5.
21
-4.1177165354330709
0
LINE
8
BLACK
6
CONTINUOUS
10
5.
20
-4.1177165354330709
11
5.1417322834645667
21
-4.1177165354330709
0
LINE
8
BLACK
6
CONTINUOUS
10
5.1417322834645667
20
-4.1177165354330709
11
5.1426362598425195
21
-4.1178963385826775
0
LINE
8
BLACK
6
CONTINUOUS
10
5.0023622047244096
20
-4.1224409448818893
11
5.0023622047244096
21
-4.2397637795275589
0
LINE
8
BLACK
6
CONTINUOUS
10
5.0023622047244096
20
-4.2397637795275589
11
5.1393700787401571
21
-4.2397637795275589
0
LINE
8
BLACK
6
CONTINUOUS
10
5.1393700787401571
20
-4.2397637795275589
11
5.1393700787401571
21
-4.1224409448818893
0
LINE
8
BLACK
6
CONTINUOUS
10
5.1393700787401571
20
-4.1224409448818893
11
5.0023622047244096
21
-4.1224409448818893
0
LINE
8
BLACK
6
CONTINUOUS
10
1.2056283858267716
20
-4.035219173228346
11
1.2069068110236221
21
-4.0364975984251972
0
LINE
8
BLACK
6
CONTINUOUS
10
1.2069068110236221
20
-4.0364975984251972
11
1.2070866141732284
21
-4.0374015748031491
0
LINE
8
BLACK
6
CONTINUOUS
10
1.2070866141732284
20
-4.0374015748031491
11
1.2070866141732284
21
-4.159448818897638
0
LINE
8
BLACK
6
CONTINUOUS
10
1.2070866141732284
20
-4.159448818897638
11
1.2069068110236221
21
-4.1603527952755908
0
LINE
8
BLACK
6
CONTINUOUS
10
1.2069068110236221
20
-4.1603527952755908
11
1.2056283858267716
21
-4.1616312204724411
0
LINE
8
BLACK
6
CONTINUOUS
10
1.2056283858267716
20
-4.1616312204724411
11
1.204724409448819
21
-4.1618110236220476
0
LINE
8
BLACK
6
CONTINUOUS
10
1.204724409448819
20
-4.1618110236220476
11
1.0629921259842519
21
-4.1618110236220476
0
LINE
8
BLACK
6
CONTINUOUS
10
1.0629921259842519
20
-4.1618110236220476
11
1.0620881496062993
21
-4.1616312204724411
0
LINE
8
BLACK
6
CONTINUOUS
10
1.0620881496062993
20
-4.1616312204724411
11
1.0608097244094488
21
-4.1603527952755908
0
LINE
8
BLACK
6
CONTINUOUS
10
1.0608097244094488
20
-4.1603527952755908
11
1.0606299212598425
21
-4.159448818897638
0
LINE
8
BLACK
6
CONTINUOUS
10
1.0606299212598425
20
-4.159448818897638
11
1.0606299212598425
21
-4.0374015748031491
0
LINE
8
BLACK
6
CONTINUOUS
10
1.0606299212598425
20
-4.0374015748031491
11
1.0608097244094488
21
-4.0364975984251972
0
LINE
8
BLACK
6
CONTINUOUS
10
1.0608097244094488
20
-4.0364975984251972
11
1.0620881496062993
21
-4.035219173228346
0
LINE
8
BLACK
6
CONTINUOUS
10
1.0620881496062993
20
-4.035219173228346
11
1.0629921259842519
21
-4.0350393700787404
0
LINE
8
BLACK
6
CONTINUOUS
10
1.0629921259842519
20
-4.0350393700787404
11
1.204724409448819
21
-4.0350393700787404
0
LINE
8
BLACK
6
CONTINUOUS
10
1.204724409448819
20
-4.0350393700787404
11
1.2056283858267716
21
-4.035219173228346
0
LINE
8
BLACK
6
CONTINUOUS
10
1.0653543307086615
20
-4.0397637795275587
11
1.0653543307086615
21
-4.1570866141732283
0
LINE
8
BLACK
6
CONTINUOUS
10
1.0653543307086615
20
-4.1570866141732283
11
1.2023622047244094
21
-4.1570866141732283
0
LINE
8
BLACK
6
CONTINUOUS
10
1.2023622047244094
20
-4.1570866141732283
11
1.2023622047244094
21
-4.0397637795275587
0
LINE
8
BLACK
6
CONTINUOUS
10
1.2023622047244094
20
-4.0397637795275587
11
1.0653543307086615
21
-4.0397637795275587
0
LINE
8
BLACK
6
CONTINUOUS
10
1.9930299606299211
20
-4.035219173228346
11
1.9943083858267716
21
-4.0364975984251972
0
LINE
8
BLACK
6
CONTINUOUS
10
1.9943083858267716
20
-4.0364975984251972
11
1.9944881889763779
21
-4.0374015748031491
0
LINE
8
BLACK
6
CONTINUOUS
10
1.9944881889763779
20
-4.0374015748031491
11
1.9944881889763779
21
-4.159448818897638
0
LINE
8
BLACK
6
CONTINUOUS
10
1.9944881889763779
20
-4.159448818897638
11
1.9943083858267716
21
-4.1603527952755908
0
LINE
8
BLACK
6
CONTINUOUS
10
1.9943083858267716
20
-4.1603527952755908
11
1.9930299606299211
21
-4.1616312204724411
0
LINE
8
BLACK
6
CONTINUOUS
10
1.9930299606299211
20
-4.1616312204724411
11
1.9921259842519685
21
-4.1618110236220476
0
LINE
8
BLACK
6
CONTINUOUS
10
1.9921259842519685
20
-4.1618110236220476
11
1.8503937007874016
21
-4.1618110236220476
0
LINE
8
BLACK
6
CONTINUOUS
10
1.8503937007874016
20
-4.1618110236220476
11
1.8494897244094488
21
-4.1616312204724411
0
LINE
8
BLACK
6
CONTINUOUS
10
1.8494897244094488
20
-4.1616312204724411
11
1.8482112992125983
21
-4.1603527952755908
0
LINE
8
BLACK
6
CONTINUOUS
10
1.8482112992125983
20
-4.1603527952755908
11
1.848031496062992
21
-4.159448818897638
0
LINE
8
BLACK
6
CONTINUOUS
10
1.848031496062992
20
-4.159448818897638
11
1.848031496062992
21
-4.0374015748031491
0
LINE
8
BLACK
6
CONTINUOUS
10
1.848031496062992
20
-4.0374015748031491
11
1.8482112992125983
21
-4.0364975984251972
0
LINE
8
BLACK
6
CONTINUOUS
10
1.8482112992125983
20
-4.0364975984251972
11
1.8494897244094488
21
-4.035219173228346
0
LINE
8
BLACK
6
CONTINUOUS
10
1.8494897244094488
20
-4.035219173228346
11
1.8503937007874016
21
-4.0350393700787404
0
LINE
8
BLACK
6
CONTINUOUS
10
1.8503937007874016
20
-4.0350393700787404
11
1.9921259842519685
21
-4.0350393700787404
0
LINE
8
BLACK
6
CONTINUOUS
10
1.9921259842519685
20
-4.0350393700787404
11
1.9930299606299211
21
-4.035219173228346
0
LINE
8
BLACK
6
CONTINUOUS
10
1.852755905511811
20
-4.0397637795275587
11
1.852755905511811
21
-4.1570866141732283
0
LINE
8
BLACK
6
CONTINUOUS
10
1.852755905511811
20
-4.1570866141732283
11
1.9897637795275591
21
-4.1570866141732283
0
LINE
8
BLACK
6
CONTINUOUS
10
1.9897637795275591
20
-4.1570866141732283
11
1.9897637795275591
21
-4.0397637795275587
0
LINE
8
BLACK
6
CONTINUOUS
10
1.9897637795275591
20
-4.0397637795275587
11
1.852755905511811
21
-4.0397637795275587
0
LINE
8
BLACK
6
CONTINUOUS
10
4.3552346850393704
20
-3.9801010629921261
11
4.3565131102362207
21
-3.9813794881889764
0
LINE
8
BLACK
6
CONTINUOUS
10
4.3565131102362207
20
-3.9813794881889764
11
4.3566929133858263
21
-3.9822834645669292
0
LINE
8
BLACK
6
CONTINUOUS
10
4.3566929133858263
20
-3.9822834645669292
11
4.3566929133858263
21
-4.1043307086614176
0
LINE
8
BLACK
6
CONTINUOUS
10
4.3566929133858263
20
-4.1043307086614176
11
4.3565131102362207
21
-4.1052346850393704
0
LINE
8
BLACK
6
CONTINUOUS
10
4.3565131102362207
20
-4.1052346850393704
11
4.3552346850393704
21
-4.1065131102362207
0
LINE
8
BLACK
6
CONTINUOUS
10
4.3552346850393704
20
-4.1065131102362207
11
4.3543307086614176
21
-4.1066929133858263
0
LINE
8
BLACK
6
CONTINUOUS
10
4.3543307086614176
20
-4.1066929133858263
11
4.21259842519685
21
-4.1066929133858263
0
LINE
8
BLACK
6
CONTINUOUS
10
4.21259842519685
20
-4.1066929133858263
11
4.2116944488188972
21
-4.1065131102362207
0
LINE
8
BLACK
6
CONTINUOUS
10
4.2116944488188972
20
-4.1065131102362207
11
4.2104160236220469
21
-4.1052346850393704
0
LINE
8
BLACK
6
CONTINUOUS
10
4.2104160236220469
20
-4.1052346850393704
11
4.2102362204724413
21
-4.1043307086614176
0
LINE
8
BLACK
6
CONTINUOUS
10
4.2102362204724413
20
-4.1043307086614176
11
4.2102362204724413
21
-3.9822834645669292
0
LINE
8
BLACK
6
CONTINUOUS
10
4.2102362204724413
20
-3.9822834645669292
11
4.2104160236220469
21
-3.9813794881889764
0
LINE
8
BLACK
6
CONTINUOUS
10
4.2104160236220469
20
-3.9813794881889764
11
4.2116944488188972
21
-3.9801010629921261
0
LINE
8
BLACK
6
CONTINUOUS
10
4.2116944488188972
20
-3.9801010629921261
11
4.21259842519685
21
-3.9799212598425195
0
LINE
8
BLACK
6
CONTINUOUS
10
4.21259842519685
20
-3.9799212598425195
11
4.3543307086614176
21
-3.9799212598425195
0
LINE
8
BLACK
6
CONTINUOUS
10
4.3543307086614176
20
-3.9799212598425195
11
4.3552346850393704
21
-3.9801010629921261
0
LINE
8
BLACK
6
CONTINUOUS
10
4.2149606299212596
20
-3.9846456692913383
11
4.2149606299212596
21
-4.101968503937008
0
LINE
8
BLACK
6
CONTINUOUS
10
4.2149606299212596
20
-4.101968503937008
11
4.351968503937008
21
-4.101968503937008
0
LINE
8
BLACK
6
CONTINUOUS
10
4.351968503937008
20
-4.101968503937008
11
4.351968503937008
21
-3.9846456692913383
0
LINE
8
BLACK
6
CONTINUOUS
10
4.351968503937008
20
-3.9846456692913383
11
4.2149606299212596
21
-3.9846456692913383
0
LINE
8
BLACK
6
CONTINUOUS
10
2.7804315354330709
20
-3.8501798031496062
11
2.7817099606299212
21
-3.8514582283464565
0
LINE
8
BLACK
6
CONTINUOUS
10
2.7817099606299212
20
-3.8514582283464565
11
2.7818897637795277
21
-3.8523622047244093
0
LINE
8
BLACK
6
CONTINUOUS
10
2.7818897637795277
20
-3.8523622047244093
11
2.7818897637795277
21
-3.9744094488188977
0
LINE
8
BLACK
6
CONTINUOUS
10
2.7818897637795277
20
-3.9744094488188977
11
2.7817099606299212
21
-3.9753134251968505
0
LINE
8
BLACK
6
CONTINUOUS
10
2.7817099606299212
20
-3.9753134251968505
11
2.7804315354330709
21
-3.9765918503937008
0
LINE
8
BLACK
6
CONTINUOUS
10
2.7804315354330709
20
-3.9765918503937008
11
2.7795275590551181
21
-3.9767716535433069
0
LINE
8
BLACK
6
CONTINUOUS
10
2.7795275590551181
20
-3.9767716535433069
11
2.6377952755905509
21
-3.9767716535433069
0
LINE
8
BLACK
6
CONTINUOUS
10
2.6377952755905509
20
-3.9767716535433069
11
2.6368912992125986
21
-3.9765918503937008
0
LINE
8
BLACK
6
CONTINUOUS
10
2.6368912992125986
20
-3.9765918503937008
11
2.6356128740157478
21
-3.9753134251968505
0
LINE
8
BLACK
6
CONTINUOUS
10
2.6356128740157478
20
-3.9753134251968505
11
2.6354330708661418
21
-3.9744094488188977
0
LINE
8
BLACK
6
CONTINUOUS
10
2.6354330708661418
20
-3.9744094488188977
11
2.6354330708661418
21
-3.8523622047244093
0
LINE
8
BLACK
6
CONTINUOUS
10
2.6354330708661418
20
-3.8523622047244093
11
2.6356128740157478
21
-3.8514582283464565
0
LINE
8
BLACK
6
CONTINUOUS
10
2.6356128740157478
20
-3.8514582283464565
11
2.6368912992125986
21
-3.8501798031496062
0
LINE
8
BLACK
6
CONTINUOUS
10
2.6368912992125986
20
-3.8501798031496062
11
2.6377952755905509
21
-3.8500000000000001
0
LINE
8
BLACK
6
CONTINUOUS
10
2.6377952755905509
20
-3.8500000000000001
11
2.7795275590551181
21
-3.8500000000000001
0
LINE
8
BLACK
6
CONTINUOUS
10
2.7795275590551181
20
-3.8500000000000001
11
2.7804315354330709
21
-3.8501798031496062
0
LINE
8
BLACK
6
CONTINUOUS
10
2.6401574803149606
20
-3.8547244094488189
11
2.6401574803149606
21
-3.9720472440944881
0
LINE
8
BLACK
6
CONTINUOUS
10
2.6401574803149606
20
-3.9720472440944881
11
2.7771653543307084
21
-3.9720472440944881
0
LINE
8
BLACK
6
CONTINUOUS
10
2.7771653543307084
20
-3.9720472440944881
11
2.7771653543307084
21
-3.8547244094488189
0
LINE
8
BLACK
6
CONTINUOUS
10
2.7771653543307084
20
-3.8547244094488189
11
2.6401574803149606
21
-3.8547244094488189
0
LINE
8
BLACK
6
CONTINUOUS
10
3.5678331102362204
20
-3.7123845275590552
11
3.5691115354330707
21
-3.7136629527559055
0
LINE
8
BLACK
6
CONTINUOUS
10
3.5691115354330707
20
-3.7136629527559055
11
3.5692913385826772
21
-3.7145669291338583
0
LINE
8
BLACK
6
CONTINUOUS
10
3.5692913385826772
20
-3.7145669291338583
11
3.5692913385826772
21
-3.8366141732283463
0
LINE
8
BLACK
6
CONTINUOUS
10
3.5692913385826772
20
-3.8366141732283463
11
3.5691115354330707
21
-3.8375181496062991
0
LINE
8
BLACK
6
CONTINUOUS
10
3.5691115354330707
20
-3.8375181496062991
11
3.5678331102362204
21
-3.8387965748031494
0
LINE
8
BLACK
6
CONTINUOUS
10
3.5678331102362204
20
-3.8387965748031494
11
3.5669291338582676
21
-3.8389763779527559
0
LINE
8
BLACK
6
CONTINUOUS
10
3.5669291338582676
20
-3.8389763779527559
11
3.4251968503937009
21
-3.8389763779527559
0
LINE
8
BLACK
6
CONTINUOUS
10
3.4251968503937009
20
-3.8389763779527559
11
3.4242928740157481
21
-3.8387965748031494
0
LINE
8
BLACK
6
CONTINUOUS
10
3.4242928740157481
20
-3.8387965748031494
11
3.4230144488188974
21
-3.8375181496062991
0
LINE
8
BLACK
6
CONTINUOUS
10
3.4230144488188974
20
-3.8375181496062991
11
3.4228346456692913
21
-3.8366141732283463
0
LINE
8
BLACK
6
CONTINUOUS
10
3.4228346456692913
20
-3.8366141732283463
11
3.4228346456692913
21
-3.7145669291338583
0
LINE
8
BLACK
6
CONTINUOUS
10
3.4228346456692913
20
-3.7145669291338583
11
3.4230144488188974
21
-3.7136629527559055
0
LINE
8
BLACK
6
CONTINUOUS
10
3.4230144488188974
20
-3.7136629527559055
11
3.4242928740157481
21
-3.7123845275590552
0
LINE
8
BLACK
6
CONTINUOUS
10
3.4242928740157481
20
-3.7123845275590552
11
3.4251968503937009
21
-3.7122047244094487
0
LINE
8
BLACK
6
CONTINUOUS
10
3.4251968503937009
20
-3.7122047244094487
11
3.5669291338582676
21
-3.7122047244094487
0
LINE
8
BLACK
6
CONTINUOUS
10
3.5669291338582676
20
-3.7122047244094487
11
3.5678331102362204
21
-3.7123845275590552
0
LINE
8
BLACK
6
CONTINUOUS
10
3.4275590551181101
20
-3.7169291338582675
11
3.4275590551181101
21
-3.8342519685039371
0
LINE
8
BLACK
6
CONTINUOUS
10
3.4275590551181101
20
-3.8342519685039371
11
3.564566929133858
21
-3.8342519685039371
0
LINE
8
BLACK
6
CONTINUOUS
10
3.564566929133858
20
-3.8342519685039371
11
3.564566929133858
21
-3.7169291338582675
0
LINE
8
BLACK
6
CONTINUOUS
10
3.564566929133858
20
-3.7169291338582675
11
3.4275590551181101
21
-3.7169291338582675
0
LINE
8
BLACK
6
CONTINUOUS
10
5.1426362598425195
20
-3.3304947637795275
11
5.1439146850393698
21
-3.3317731889763778
0
LINE
8
BLACK
6
CONTINUOUS
10
5.1439146850393698
20
-3.3317731889763778
11
5.1440944881889763
21
-3.3326771653543306
0
LINE
8
BLACK
6
CONTINUOUS
10
5.1440944881889763
20
-3.3326771653543306
11
5.1440944881889763
21
-3.454724409448819
0
LINE
8
BLACK
6
CONTINUOUS
10
5.1440944881889763
20
-3.454724409448819
11
5.1439146850393698
21
-3.4556283858267718
0
LINE
8
BLACK
6
CONTINUOUS
10
5.1439146850393698
20
-3.4556283858267718
11
5.1426362598425195
21
-3.4569068110236221
0
LINE
8
BLACK
6
CONTINUOUS
10
5.1426362598425195
20
-3.4569068110236221
11
5.1417322834645667
21
-3.4570866141732282
0
LINE
8
BLACK
6
CONTINUOUS
10
5.1417322834645667
20
-3.4570866141732282
11
5.
21
-3.4570866141732282
0
LINE
8
BLACK
6
CONTINUOUS
10
5.
20
-3.4570866141732282
11
4.9990960236220472
21
-3.4569068110236221
0
LINE
8
BLACK
6
CONTINUOUS
10
4.9990960236220472
20
-3.4569068110236221
11
4.9978175984251969
21
-3.4556283858267718
0
LINE
8
BLACK
6
CONTINUOUS
10
4.9978175984251969
20
-3.4556283858267718
11
4.9976377952755904
21
-3.454724409448819
0
LINE
8
BLACK
6
CONTINUOUS
10
4.9976377952755904
20
-3.454724409448819
11
4.9976377952755904
21
-3.3326771653543306
0
LINE
8
BLACK
6
CONTINUOUS
10
4.9976377952755904
20
-3.3326771653543306
11
4.9978175984251969
21
-3.3317731889763778
0
LINE
8
BLACK
6
CONTINUOUS
10
4.9978175984251969
20
-3.3317731889763778
11
4.9990960236220472
21
-3.3304947637795275
0
LINE
8
BLACK
6
CONTINUOUS
10
4.9990960236220472
20
-3.3304947637795275
11
5.
21
-3.3303149606299214
0
LINE
8
BLACK
6
CONTINUOUS
10
5.
20
-3.3303149606299214
11
5.1417322834645667
21
-3.3303149606299214
0
LINE
8
BLACK
6
CONTINUOUS
10
5.1417322834645667
20
-3.3303149606299214
11
5.1426362598425195
21
-3.3304947637795275
0
LINE
8
BLACK
6
CONTINUOUS
10
5.0023622047244096
20
-3.3350393700787402
11
5.0023622047244096
21
-3.4523622047244094
0
LINE
8
BLACK
6
CONTINUOUS
10
5.0023622047244096
20
-3.4523622047244094
11
5.1393700787401571
21
-3.4523622047244094
0
LINE
8
BLACK
6
CONTINUOUS
10
5.1393700787401571
20
-3.4523622047244094
11
5.1393700787401571
21
-3.3350393700787402
0
LINE
8
BLACK
6
CONTINUOUS
10
5.1393700787401571
20
-3.3350393700787402
11
5.0023622047244096
21
-3.3350393700787402
0
LINE
8
BLACK
6
CONTINUOUS
10
1.2056283858267716
20
-3.2478175984251969
11
1.2069068110236221
21
-3.2490960236220472
0
LINE
8
BLACK
6
CONTINUOUS
10
1.2069068110236221
20
-3.2490960236220472
11
1.2070866141732284
21
-3.25
0
LINE
8
BLACK
6
CONTINUOUS
10
1.2070866141732284
20
-3.25
11
1.2070866141732284
21
-3.372047244094488
0
LINE
8
BLACK
6
CONTINUOUS
10
1.2070866141732284
20
-3.372047244094488
11
1.2069068110236221
21
-3.3729512204724408
0
LINE
8
BLACK
6
CONTINUOUS
10
1.2069068110236221
20
-3.3729512204724408
11
1.2056283858267716
21
-3.3742296456692911
0
LINE
8
BLACK
6
CONTINUOUS
10
1.2056283858267716
20
-3.3742296456692911
11
1.204724409448819
21
-3.3744094488188976
0
LINE
8
BLACK
6
CONTINUOUS
10
1.204724409448819
20
-3.3744094488188976
11
1.0629921259842519
21
-3.3744094488188976
0
LINE
8
BLACK
6
CONTINUOUS
10
1.0629921259842519
20
-3.3744094488188976
11
1.0620881496062993
21
-3.3742296456692911
0
LINE
8
BLACK
6
CONTINUOUS
10
1.0620881496062993
20
-3.3742296456692911
11
1.0608097244094488
21
-3.3729512204724408
0
LINE
8
BLACK
6
CONTINUOUS
10
1.0608097244094488
20
-3.3729512204724408
11
1.0606299212598425
21
-3.372047244094488
0
LINE
8
BLACK
6
CONTINUOUS
10
1.0606299212598425
20
-3.372047244094488
11
1.0606299212598425
21
-3.25
0
LINE
8
BLACK
6
CONTINUOUS
10
1.0606299212598425
20
-3.25
11
1.0608097244094488
21
-3.2490960236220472
0
LINE
8
BLACK
6
CONTINUOUS
10
1.0608097244094488
20
-3.2490960236220472
11
1.0620881496062993
21
-3.2478175984251969
0
LINE
8
BLACK
6
CONTINUOUS
10
1.0620881496062993
20
-3.2478175984251969
11
1.0629921259842519
21
-3.2476377952755904
0
LINE
8
BLACK
6
CONTINUOUS
10
1.0629921259842519
20
-3.2476377952755904
11
1.204724409448819
21
-3.2476377952755904
0
LINE
8
BLACK
6
CONTINUOUS
10
1.204724409448819
20
-3.2476377952755904
11
1.2056283858267716
21
-3.2478175984251969
0
LINE
8
BLACK
6
CONTINUOUS
10
1.0653543307086615
20
-3.2523622047244092
11
1.0653543307086615
21
-3.3696850393700788
0
LINE
8
BLACK
6
CONTINUOUS
10
1.0653543307086615
20
-3.3696850393700788
11
1.2023622047244094
21
-3.3696850393700788
0
LINE
8
BLACK
6
CONTINUOUS
10
1.2023622047244094
20
-3.3696850393700788
11
1.2023622047244094
21
-3.2523622047244092
0
LINE
8
BLACK
6
CONTINUOUS
10
1.2023622047244094
20
-3.2523622047244092
11
1.0653543307086615
21
-3.2523622047244092
0
LINE
8
BLACK
6
CONTINUOUS
10
1.9930299606299211
20
-3.2478175984251969
11
1.9943083858267716
21
-3.2490960236220472
0
LINE
8
BLACK
6
CONTINUOUS
10
1.9943083858267716
20
-3.2490960236220472
11
1.9944881889763779
21
-3.25
0
LINE
8
BLACK
6
CONTINUOUS
10
1.9944881889763779
20
-3.25
11
1.9944881889763779
21
-3.372047244094488
0
LINE
8
BLACK
6
CONTINUOUS
10
1.9944881889763779
20
-3.372047244094488
11
1.9943083858267716
21
-3.3729512204724408
0
LINE
8
BLACK
6
CONTINUOUS
10
1.9943083858267716
20
-3.3729512204724408
11
1.9930299606299211
21
-3.3742296456692911
0
LINE
8
BLACK
6
CONTINUOUS
10
1.9930299606299211
20
-3.3742296456692911
11
1.9921259842519685
21
-3.3744094488188976
0
LINE
8
BLACK
6
CONTINUOUS
10
1.9921259842519685
20
-3.3744094488188976
11
1.8503937007874016
21
-3.3744094488188976
0
LINE
8
BLACK
6
CONTINUOUS
10
1.8503937007874016
20
-3.3744094488188976
11
1.8494897244094488
21
-3.3742296456692911
0
LINE
8
BLACK
6
CONTINUOUS
10
1.8494897244094488
20
-3.3742296456692911
11
1.8482112992125983
21
-3.3729512204724408
0
LINE
8
BLACK
6
CONTINUOUS
10
1.8482112992125983
20
-3.3729512204724408
11
1.848031496062992
21
-3.372047244094488
0
LINE
8
BLACK
6
CONTINUOUS
10
1.848031496062992
20
-3.372047244094488
11
1.848031496062992
21
-3.25
0
LINE
8
BLACK
6
CONTINUOUS
10
1.848031496062992
20
-3.25
11
1.8482112992125983
21
-3.2490960236220472
0
LINE
8
BLACK
6
CONTINUOUS
10
1.8482112992125983
20
-3.2490960236220472
11
1.8494897244094488
21
-3.2478175984251969
0
LINE
8
BLACK
6
CONTINUOUS
10
1.8494897244094488
20
-3.2478175984251969
11
1.8503937007874016
21
-3.2476377952755904
0
LINE
8
BLACK
6
CONTINUOUS
10
1.8503937007874016
20
-3.2476377952755904
11
1.9921259842519685
21
-3.2476377952755904
0
LINE
8
BLACK
6
CONTINUOUS
10
1.9921259842519685
20
-3.2476377952755904
11
1.9930299606299211
21
-3.2478175984251969
0
LINE
8
BLACK
6
CONTINUOUS
10
1.852755905511811
20
-3.2523622047244092
11
1.852755905511811
21
-3.3696850393700788
0
LINE
8
BLACK
6
CONTINUOUS
10
1.852755905511811
20
-3.3696850393700788
11
1.9897637795275591
21
-3.3696850393700788
0
LINE
8
BLACK
6
CONTINUOUS
10
1.9897637795275591
20
-3.3696850393700788
11
1.9897637795275591
21
-3.2523622047244092
0
LINE
8
BLACK
6
CONTINUOUS
10
1.9897637795275591
20
-3.2523622047244092
11
1.852755905511811
21
-3.2523622047244092
0
LINE
8
BLACK
6
CONTINUOUS
10
4.3552346850393704
20
-3.1926994881889761
11
4.3565131102362207
21
-3.1939779133858268
0
LINE
8
BLACK
6
CONTINUOUS
10
4.3565131102362207
20
-3.1939779133858268
11
4.3566929133858263
21
-3.1948818897637796
0
LINE
8
BLACK
6
CONTINUOUS
10
4.3566929133858263
20
-3.1948818897637796
11
4.3566929133858263
21
-3.3169291338582676
0
LINE
8
BLACK
6
CONTINUOUS
10
4.3566929133858263
20
-3.3169291338582676
11
4.3565131102362207
21
-3.3178331102362204
0
LINE
8
BLACK
6
CONTINUOUS
10
4.3565131102362207
20
-3.3178331102362204
11
4.3552346850393704
21
-3.3191115354330707
0
LINE
8
BLACK
6
CONTINUOUS
10
4.3552346850393704
20
-3.3191115354330707
11
4.3543307086614176
21
-3.3192913385826772
0
LINE
8
BLACK
6
CONTINUOUS
10
4.3543307086614176
20
-3.3192913385826772
11
4.21259842519685
21
-3.3192913385826772
0
LINE
8
BLACK
6
CONTINUOUS
10
4.21259842519685
20
-3.3192913385826772
11
4.2116944488188972
21
-3.3191115354330707
0
LINE
8
BLACK
6
CONTINUOUS
10
4.2116944488188972
20
-3.3191115354330707
11
4.2104160236220469
21
-3.3178331102362204
0
LINE
8
BLACK
6
CONTINUOUS
10
4.2104160236220469
20
-3.3178331102362204
11
4.2102362204724413
21
-3.3169291338582676
0
LINE
8
BLACK
6
CONTINUOUS
10
4.2102362204724413
20
-3.3169291338582676
11
4.2102362204724413
21
-3.1948818897637796
0
LINE
8
BLACK
6
CONTINUOUS
10
4.2102362204724413
20
-3.1948818897637796
11
4.2104160236220469
21
-3.1939779133858268
0
LINE
8
BLACK
6
CONTINUOUS
10
4.2104160236220469
20
-3.1939779133858268
11
4.2116944488188972
21
-3.1926994881889761
0
LINE
8
BLACK
6
CONTINUOUS
10
4.2116944488188972
20
-3.1926994881889761
11
4.21259842519685
21
-3.19251968503937
0
LINE
8
BLACK
6
CONTINUOUS
10
4.21259842519685
20
-3.19251968503937
11
4.3543307086614176
21
-3.19251968503937
0
LINE
8
BLACK
6
CONTINUOUS
10
4.3543307086614176
20
-3.19251968503937
11
4.3552346850393704
21
-3.1926994881889761
0
LINE
8
BLACK
6
CONTINUOUS
10
4.2149606299212596
20
-3.1972440944881888
11
4.2149606299212596
21
-3.314566929133858
0
LINE
8
BLACK
6
CONTINUOUS
10
4.2149606299212596
20
-3.314566929133858
11
4.351968503937008
21
-3.314566929133858
0
LINE
8
BLACK
6
CONTINUOUS
10
4.351968503937008
20
-3.314566929133858
11
4.351968503937008
21
-3.1972440944881888
0
LINE
8
BLACK
6
CONTINUOUS
10
4.351968503937008
20
-3.1972440944881888
11
4.2149606299212596
21
-3.1972440944881888
0
LINE
8
BLACK
6
CONTINUOUS
10
2.7804315354330709
20
-3.0627782283464566
11
2.7817099606299212
21
-3.0640566535433069
0
LINE
8
BLACK
6
CONTINUOUS
10
2.7817099606299212
20
-3.0640566535433069
11
2.7818897637795277
21
-3.0649606299212597
0
LINE
8
BLACK
6
CONTINUOUS
10
2.7818897637795277
20
-3.0649606299212597
11
2.7818897637795277
21
-3.1870078740157481
0
LINE
8
BLACK
6
CONTINUOUS
10
2.7818897637795277
20
-3.1870078740157481
11
2.7817099606299212
21
-3.1879118503937005
0
LINE
8
BLACK
6
CONTINUOUS
10
2.7817099606299212
20
-3.1879118503937005
11
2.7804315354330709
21
-3.1891902755905512
0
LINE
8
BLACK
6
CONTINUOUS
10
2.7804315354330709
20
-3.1891902755905512
11
2.7795275590551181
21
-3.1893700787401573
0
LINE
8
BLACK
6
CONTINUOUS
10
2.7795275590551181
20
-3.1893700787401573
11
2.6377952755905509
21
-3.1893700787401573
0
LINE
8
BLACK
6
CONTINUOUS
10
2.6377952755905509
20
-3.1893700787401573
11
2.6368912992125986
21
-3.1891902755905512
0
LINE
8
BLACK
6
CONTINUOUS
10
2.6368912992125986
20
-3.1891902755905512
11
2.6356128740157478
21
-3.1879118503937005
0
LINE
8
BLACK
6
CONTINUOUS
10
2.6356128740157478
20
-3.1879118503937005
11
2.6354330708661418
21
-3.1870078740157481
0
LINE
8
BLACK
6
CONTINUOUS
10
2.6354330708661418
20
-3.1870078740157481
11
2.6354330708661418
21
-3.0649606299212597
0
LINE
8
BLACK
6
CONTINUOUS
10
2.6354330708661418
20
-3.0649606299212597
11
2.6356128740157478
21
-3.0640566535433069
0
LINE
8
BLACK
6
CONTINUOUS
10
2.6356128740157478
20
-3.0640566535433069
11
2.6368912992125986
21
-3.0627782283464566
0
LINE
8
BLACK
6
CONTINUOUS
10
2.6368912992125986
20
-3.0627782283464566
11
2.6377952755905509
21
-3.0625984251968501
0
LINE
8
BLACK
6
CONTINUOUS
10
2.6377952755905509
20
-3.0625984251968501
11
2.7795275590551181
21
-3.0625984251968501
0
LINE
8
BLACK
6
CONTINUOUS
10
2.7795275590551181
20
-3.0625984251968501
11
2.7804315354330709
21
-3.0627782283464566
0
LINE
8
BLACK
6
CONTINUOUS
10
2.6401574803149606
20
-3.0673228346456693
11
2.6401574803149606
21
-3.1846456692913385
0
LINE
8
BLACK
6
CONTINUOUS
10
2.6401574803149606
20
-3.1846456692913385
11
2.7771653543307084
21
-3.1846456692913385
0
LINE
8
BLACK
6
CONTINUOUS
10
2.7771653543307084
20
-3.1846456692913385
11
2.7771653543307084
21
-3.0673228346456693
0
LINE
8
BLACK
6
CONTINUOUS
10
2.7771653543307084
20
-3.0673228346456693
11
2.6401574803149606
21
-3.0673228346456693
0
LINE
8
BLACK
6
CONTINUOUS
10
3.5678331102362204
20
-2.9249829527559053
11
3.5691115354330707
21
-2.926261377952756
0
LINE
8
BLACK
6
CONTINUOUS
10
3.5691115354330707
20
-2.926261377952756
11
3.5692913385826772
21
-2.9271653543307088
0
LINE
8
BLACK
6
CONTINUOUS
10
3.5692913385826772
20
-2.9271653543307088
11
3.5692913385826772
21
-3.0492125984251968
0
LINE
8
BLACK
6
CONTINUOUS
10
3.5692913385826772
20
-3.0492125984251968
11
3.5691115354330707
21
-3.0501165748031496
0
LINE
8
BLACK
6
CONTINUOUS
10
3.5691115354330707
20
-3.0501165748031496
11
3.5678331102362204
21
-3.0513949999999999
0
LINE
8
BLACK
6
CONTINUOUS
10
3.5678331102362204
20
-3.0513949999999999
11
3.5669291338582676
21
-3.0515748031496064
0
LINE
8
BLACK
6
CONTINUOUS
10
3.5669291338582676
20
-3.0515748031496064
11
3.4251968503937009
21
-3.0515748031496064
0
LINE
8
BLACK
6
CONTINUOUS
10
3.4251968503937009
20
-3.0515748031496064
11
3.4242928740157481
21
-3.0513949999999999
0
LINE
8
BLACK
6
CONTINUOUS
10
3.4242928740157481
20
-3.0513949999999999
11
3.4230144488188974
21
-3.0501165748031496
0
LINE
8
BLACK
6
CONTINUOUS
10
3.4230144488188974
20
-3.0501165748031496
11
3.4228346456692913
21
-3.0492125984251968
0
LINE
8
BLACK
6
CONTINUOUS
10
3.4228346456692913
20
-3.0492125984251968
11
3.4228346456692913
21
-2.9271653543307088
0
LINE
8
BLACK
6
CONTINUOUS
10
3.4228346456692913
20
-2.9271653543307088
11
3.4230144488188974
21
-2.926261377952756
0
LINE
8
BLACK
6
CONTINUOUS
10
3.4230144488188974
20
-2.926261377952756
11
3.4242928740157481
21
-2.9249829527559053
0
LINE
8
BLACK
6
CONTINUOUS
10
3.4242928740157481
20
-2.9249829527559053
11
3.4251968503937009
21
-2.9248031496062992
0
LINE
8
BLACK
6
CONTINUOUS
10
3.4251968503937009
20
-2.9248031496062992
11
3.5669291338582676
21
-2.9248031496062992
0
LINE
8
BLACK
6
CONTINUOUS
10
3.5669291338582676
20
-2.9248031496062992
11
3.5678331102362204
21
-2.9249829527559053
0
LINE
8
BLACK
6
CONTINUOUS
10
3.4275590551181101
20
-2.929527559055118
11
3.4275590551181101
21
-3.0468503937007871
0
LINE
8
BLACK
6
CONTINUOUS
10
3.4275590551181101
20
-3.0468503937007871
11
3.564566929133858
21
-3.0468503937007871
0
LINE
8
BLACK
6
CONTINUOUS
10
3.564566929133858
20
-3.0468503937007871
11
3.564566929133858
21
-2.929527559055118
0
LINE
8
BLACK
6
CONTINUOUS
10
3.564566929133858
20
-2.929527559055118
11
3.4275590551181101
21
-2.929527559055118
0
LINE
8
BLACK
6
CONTINUOUS
10
5.1426362598425195
20
-2.5430931889763779
11
5.1439146850393698
21
-2.5443716141732282
0
LINE
8
BLACK
6
CONTINUOUS
10
5.1439146850393698
20
-2.5443716141732282
11
5.1440944881889763
21
-2.545275590551181
0
LINE
8
BLACK
6
CONTINUOUS
10
5.1440944881889763
20
-2.545275590551181
11
5.1440944881889763
21
-2.6673228346456694
0
LINE
8
BLACK
6
CONTINUOUS
10
5.1440944881889763
20
-2.6673228346456694
11
5.1439146850393698
21
-2.6682268110236218
0
LINE
8
BLACK
6
CONTINUOUS
10
5.1439146850393698
20
-2.6682268110236218
11
5.1426362598425195
21
-2.6695052362204725
0
LINE
8
BLACK
6
CONTINUOUS
10
5.1426362598425195
20
-2.6695052362204725
11
5.1417322834645667
21
-2.6696850393700786
0
LINE
8
BLACK
6
CONTINUOUS
10
5.1417322834645667
20
-2.6696850393700786
11
5.
21
-2.6696850393700786
0
LINE
8
BLACK
6
CONTINUOUS
10
5.
20
-2.6696850393700786
11
4.9990960236220472
21
-2.6695052362204725
0
LINE
8
BLACK
6
CONTINUOUS
10
4.9990960236220472
20
-2.6695052362204725
11
4.9978175984251969
21
-2.6682268110236218
0
LINE
8
BLACK
6
CONTINUOUS
10
4.9978175984251969
20
-2.6682268110236218
11
4.9976377952755904
21
-2.6673228346456694
0
LINE
8
BLACK
6
CONTINUOUS
10
4.9976377952755904
20
-2.6673228346456694
11
4.9976377952755904
21
-2.545275590551181
0
LINE
8
BLACK
6
CONTINUOUS
10
4.9976377952755904
20
-2.545275590551181
11
4.9978175984251969
21
-2.5443716141732282
0
LINE
8
BLACK
6
CONTINUOUS
10
4.9978175984251969
20
-2.5443716141732282
11
4.9990960236220472
21
-2.5430931889763779
0
LINE
8
BLACK
6
CONTINUOUS
10
4.9990960236220472
20
-2.5430931889763779
11
5.
21
-2.5429133858267714
0
LINE
8
BLACK
6
CONTINUOUS
10
5.
20
-2.5429133858267714
11
5.1417322834645667
21
-2.5429133858267714
0
LINE
8
BLACK
6
CONTINUOUS
10
5.1417322834645667
20
-2.5429133858267714
11
5.1426362598425195
21
-2.5430931889763779
0
LINE
8
BLACK
6
CONTINUOUS
10
5.0023622047244096
20
-2.5476377952755906
11
5.0023622047244096
21
-2.6649606299212598
0
LINE
8
BLACK
6
CONTINUOUS
10
5.0023622047244096
20
-2.6649606299212598
11
5.1393700787401571
21
-2.6649606299212598
0
LINE
8
BLACK
6
CONTINUOUS
10
5.1393700787401571
20
-2.6649606299212598
11
5.1393700787401571
21
-2.5476377952755906
0
LINE
8
BLACK
6
CONTINUOUS
10
5.1393700787401571
20
-2.5476377952755906
11
5.0023622047244096
21
-2.5476377952755906
0
LINE
8
BLACK
6
CONTINUOUS
10
1.2056283858267716
20
-2.4604160236220474
11
1.2069068110236221
21
-2.4616944488188977
0
LINE
8
BLACK
6
CONTINUOUS
10
1.2069068110236221
20
-2.4616944488188977
11
1.2070866141732284
21
-2.4625984251968505
0
LINE
8
BLACK
6
CONTINUOUS
10
1.2070866141732284
20
-2.4625984251968505
11
1.2070866141732284
21
-2.5846456692913384
0
LINE
8
BLACK
6
CONTINUOUS
10
1.2070866141732284
20
-2.5846456692913384
11
1.2069068110236221
21
-2.5855496456692912
0
LINE
8
BLACK
6
CONTINUOUS
10
1.2069068110236221
20
-2.5855496456692912
11
1.2056283858267716
21
-2.5868280708661415
0
LINE
8
BLACK
6
CONTINUOUS
10
1.2056283858267716
20
-2.5868280708661415
11
1.204724409448819
21
-2.5870078740157481
0
LINE
8
BLACK
6
CONTINUOUS
10
1.204724409448819
20
-2.5870078740157481
11
1.0629921259842519
21
-2.5870078740157481
0
LINE
8
BLACK
6
CONTINUOUS
10
1.0629921259842519
20
-2.5870078740157481
11
1.0620881496062993
21
-2.5868280708661415
0
LINE
8
BLACK
6
CONTINUOUS
10
1.0620881496062993
20
-2.5868280708661415
11
1.0608097244094488
21
-2.5855496456692912
0
LINE
8
BLACK
6
CONTINUOUS
10
1.0608097244094488
20
-2.5855496456692912
11
1.0606299212598425
21
-2.5846456692913384
0
LINE
8
BLACK
6
CONTINUOUS
10
1.0606299212598425
20
-2.5846456692913384
11
1.0606299212598425
21
-2.4625984251968505
0
LINE
8
BLACK
6
CONTINUOUS
10
1.0606299212598425
20
-2.4625984251968505
11
1.0608097244094488
21
-2.4616944488188977
0
LINE
8
BLACK
6
CONTINUOUS
10
1.0608097244094488
20
-2.4616944488188977
11
1.0620881496062993
21
-2.4604160236220474
0
LINE
8
BLACK
6
CONTINUOUS
10
1.0620881496062993
20
-2.4604160236220474
11
1.0629921259842519
21
-2.4602362204724408
0
LINE
8
BLACK
6
CONTINUOUS
10
1.0629921259842519
20
-2.4602362204724408
11
1.204724409448819
21
-2.4602362204724408
0
LINE
8
BLACK
6
CONTINUOUS
10
1.204724409448819
20
-2.4602362204724408
11
1.2056283858267716
21
-2.4604160236220474
0
LINE
8
BLACK
6
CONTINUOUS
10
1.0653543307086615
20
-2.4649606299212596
11
1.0653543307086615
21
-2.5822834645669293
0
LINE
8
BLACK
6
CONTINUOUS
10
1.0653543307086615
20
-2.5822834645669293
11
1.2023622047244094
21
-2.5822834645669293
0
LINE
8
BLACK
6
CONTINUOUS
10
1.2023622047244094
20
-2.5822834645669293
11
1.2023622047244094
21
-2.4649606299212596
0
LINE
8
BLACK
6
CONTINUOUS
10
1.2023622047244094
20
-2.4649606299212596
11
1.0653543307086615
21
-2.4649606299212596
0
LINE
8
BLACK
6
CONTINUOUS
10
1.9930299606299211
20
-2.4604160236220474
11
1.9943083858267716
21
-2.4616944488188977
0
LINE
8
BLACK
6
CONTINUOUS
10
1.9943083858267716
20
-2.4616944488188977
11
1.9944881889763779
21
-2.4625984251968505
0
LINE
8
BLACK
6
CONTINUOUS
10
1.9944881889763779
20
-2.4625984251968505
11
1.9944881889763779
21
-2.5846456692913384
0
LINE
8
BLACK
6
CONTINUOUS
10
1.9944881889763779
20
-2.5846456692913384
11
1.9943083858267716
21
-2.5855496456692912
0
LINE
8
BLACK
6
CONTINUOUS
10
1.9943083858267716
20
-2.5855496456692912
11
1.9930299606299211
21
-2.5868280708661415
0
LINE
8
BLACK
6
CONTINUOUS
10
1.9930299606299211
20
-2.5868280708661415
11
1.9921259842519685
21
-2.5870078740157481
0
LINE
8
BLACK
6
CONTINUOUS
10
1.9921259842519685
20
-2.5870078740157481
11
1.8503937007874016
21
-2.5870078740157481
0
LINE
8
BLACK
6
CONTINUOUS
10
1.8503937007874016
20
-2.5870078740157481
11
1.8494897244094488
21
-2.5868280708661415
0
LINE
8
BLACK
6
CONTINUOUS
10
1.8494897244094488
20
-2.5868280708661415
11
1.8482112992125983
21
-2.5855496456692912
0
LINE
8
BLACK
6
CONTINUOUS
10
1.8482112992125983
20
-2.5855496456692912
11
1.848031496062992
21
-2.5846456692913384
0
LINE
8
BLACK
6
CONTINUOUS
10
1.848031496062992
20
-2.5846456692913384
11
1.848031496062992
21
-2.4625984251968505
0
LINE
8
BLACK
6
CONTINUOUS
10
1.848031496062992
20
-2.4625984251968505
11
1.8482112992125983
21
-2.4616944488188977
0
LINE
8
BLACK
6
CONTINUOUS
10
1.8482112992125983
20
-2.4616944488188977
11
1.8494897244094488
21
-2.4604160236220474
0
LINE
8
BLACK
6
CONTINUOUS
10
1.8494897244094488
20
-2.4604160236220474
11
1.8503937007874016
21
-2.4602362204724408
0
LINE
8
BLACK
6
CONTINUOUS
10
1.8503937007874016
20
-2.4602362204724408
11
1.9921259842519685
21
-2.4602362204724408
0
LINE
8
BLACK
6
CONTINUOUS
10
1.9921259842519685
20
-2.4602362204724408
11
1.9930299606299211
21
-2.4604160236220474
0
LINE
8
BLACK
6
CONTINUOUS
10
1.852755905511811
20
-2.4649606299212596
11
1.852755905511811
21
-2.5822834645669293
0
LINE
8
BLACK
6
CONTINUOUS
10
1.852755905511811
20
-2.5822834645669293
11
1.9897637795275591
21
-2.5822834645669293
0
LINE
8
BLACK
6
CONTINUOUS
10
1.9897637795275591
20
-2.5822834645669293
11
1.9897637795275591
21
-2.4649606299212596
0
LINE
8
BLACK
6
CONTINUOUS
10
1.9897637795275591
20
-2.4649606299212596
11
1.852755905511811
21
-2.4649606299212596
0
LINE
8
BLACK
6
CONTINUOUS
10
4.3552346850393704
20
-2.4052979133858265
11
4.3565131102362207
21
-2.4065763385826773
0
LINE
8
BLACK
6
CONTINUOUS
10
4.3565131102362207
20
-2.4065763385826773
11
4.3566929133858263
21
-2.4074803149606301
0
LINE
8
BLACK
6
CONTINUOUS
10
4.3566929133858263
20
-2.4074803149606301
11
4.3566929133858263
21
-2.5295275590551181
0
LINE
8
BLACK
6
CONTINUOUS
10
4.3566929133858263
20
-2.5295275590551181
11
4.3565131102362207
21
-2.5304315354330709
0
LINE
8
BLACK
6
CONTINUOUS
10
4.3565131102362207
20
-2.5304315354330709
11
4.3552346850393704
21
-2.5317099606299212
0
LINE
8
BLACK
6
CONTINUOUS
10
4.3552346850393704
20
-2.5317099606299212
11
4.3543307086614176
21
-2.5318897637795277
0
LINE
8
BLACK
6
CONTINUOUS
10
4.3543307086614176
20
-2.5318897637795277
11
4.21259842519685
21
-2.5318897637795277
0
LINE
8
BLACK
6
CONTINUOUS
10
4.21259842519685
20
-2.5318897637795277
11
4.2116944488188972
21
-2.5317099606299212
0
LINE
8
BLACK
6
CONTINUOUS
10
4.2116944488188972
20
-2.5317099606299212
11
4.2104160236220469
21
-2.5304315354330709
0
LINE
8
BLACK
6
CONTINUOUS
10
4.2104160236220469
20
-2.5304315354330709
11
4.2102362204724413
21
-2.5295275590551181
0
LINE
8
BLACK
6
CONTINUOUS
10
4.2102362204724413
20
-2.5295275590551181
11
4.2102362204724413
21
-2.4074803149606301
0
LINE
8
BLACK
6
CONTINUOUS
10
4.2102362204724413
20
-2.4074803149606301
11
4.2104160236220469
21
-2.4065763385826773
0
LINE
8
BLACK
6
CONTINUOUS
10
4.2104160236220469
20
-2.4065763385826773
11
4.2116944488188972
21
-2.4052979133858265
0
LINE
8
BLACK
6
CONTINUOUS
10
4.2116944488188972
20
-2.4052979133858265
11
4.21259842519685
21
-2.4051181102362205
0
LINE
8
BLACK
6
CONTINUOUS
10
4.21259842519685
20
-2.4051181102362205
11
4.3543307086614176
21
-2.4051181102362205
0
LINE
8
BLACK
6
CONTINUOUS
10
4.3543307086614176
20
-2.4051181102362205
11
4.3552346850393704
21
-2.4052979133858265
0
LINE
8
BLACK
6
CONTINUOUS
10
4.2149606299212596
20
-2.4098425196850393
11
4.2149606299212596
21
-2.5271653543307084
0
LINE
8
BLACK
6
CONTINUOUS
10
4.2149606299212596
20
-2.5271653543307084
11
4.351968503937008
21
-2.5271653543307084
0
LINE
8
BLACK
6
CONTINUOUS
10
4.351968503937008
20
-2.5271653543307084
11
4.351968503937008
21
-2.4098425196850393
0
LINE
8
BLACK
6
CONTINUOUS
10
4.351968503937008
20
-2.4098425196850393
11
4.2149606299212596
21
-2.4098425196850393
0
LINE
8
BLACK
6
CONTINUOUS
10
2.7804315354330709
20
-2.2753766535433071
11
2.7817099606299212
21
-2.2766550787401574
0
LINE
8
BLACK
6
CONTINUOUS
10
2.7817099606299212
20
-2.2766550787401574
11
2.7818897637795277
21
-2.2775590551181102
0
LINE
8
BLACK
6
CONTINUOUS
10
2.7818897637795277
20
-2.2775590551181102
11
2.7818897637795277
21
-2.3996062992125982
0
LINE
8
BLACK
6
CONTINUOUS
10
2.7818897637795277
20
-2.3996062992125982
11
2.7817099606299212
21
-2.400510275590551
0
LINE
8
BLACK
6
CONTINUOUS
10
2.7817099606299212
20
-2.400510275590551
11
2.7804315354330709
21
-2.4017887007874017
0
LINE
8
BLACK
6
CONTINUOUS
10
2.7804315354330709
20
-2.4017887007874017
11
2.7795275590551181
21
-2.4019685039370078
0
LINE
8
BLACK
6
CONTINUOUS
10
2.7795275590551181
20
-2.4019685039370078
11
2.6377952755905509
21
-2.4019685039370078
0
LINE
8
BLACK
6
CONTINUOUS
10
2.6377952755905509
20
-2.4019685039370078
11
2.6368912992125986
21
-2.4017887007874017
0
LINE
8
BLACK
6
CONTINUOUS
10
2.6368912992125986
20
-2.4017887007874017
11
2.6356128740157478
21
-2.400510275590551
0
LINE
8
BLACK
6
CONTINUOUS
10
2.6356128740157478
20
-2.400510275590551
11
2.6354330708661418
21
-2.3996062992125982
0
LINE
8
BLACK
6
CONTINUOUS
10
2.6354330708661418
20
-2.3996062992125982
11
2.6354330708661418
21
-2.2775590551181102
0
LINE
8
BLACK
6
CONTINUOUS
10
2.6354330708661418
20
-2.2775590551181102
11
2.6356128740157478
21
-2.2766550787401574
0
LINE
8
BLACK
6
CONTINUOUS
10
2.6356128740157478
20
-2.2766550787401574
11
2.6368912992125986
21
-2.2753766535433071
0
LINE
8
BLACK
6
CONTINUOUS
10
2.6368912992125986
20
-2.2753766535433071
11
2.6377952755905509
21
-2.2751968503937006
0
LINE
8
BLACK
6
CONTINUOUS
10
2.6377952755905509
20
-2.2751968503937006
11
2.7795275590551181
21
-2.2751968503937006
0
LINE
8
BLACK
6
CONTINUOUS
10
2.7795275590551181
20
-2.2751968503937006
11
2.7804315354330709
21
-2.2753766535433071
0
LINE
8
BLACK
6
CONTINUOUS
10
2.6401574803149606
20
-2.2799212598425198
11
2.6401574803149606
21
-2.397244094488189
0
LINE
8
BLACK
6
CONTINUOUS
10
2.6401574803149606
20
-2.397244094488189
11
2.7771653543307084
21
-2.397244094488189
0
LINE
8
BLACK
6
CONTINUOUS
10
2.7771653543307084
20
-2.397244094488189
11
2.7771653543307084
21
-2.2799212598425198
0
LINE
8
BLACK
6
CONTINUOUS
10
2.7771653543307084
20
-2.2799212598425198
11
2.6401574803149606
21
-2.2799212598425198
0
LINE
8
BLACK
6
CONTINUOUS
10
3.5678331102362204
20
-2.1375813779527557
11
3.5691115354330707
21
-2.1388598031496064
0
LINE
8
BLACK
6
CONTINUOUS
10
3.5691115354330707
20
-2.1388598031496064
11
3.5692913385826772
21
-2.1397637795275588
0
LINE
8
BLACK
6
CONTINUOUS
10
3.5692913385826772
20
-2.1397637795275588
11
3.5692913385826772
21
-2.2618110236220472
0
LINE
8
BLACK
6
CONTINUOUS
10
3.5692913385826772
20
-2.2618110236220472
11
3.5691115354330707
21
-2.262715
0
LINE
8
BLACK
6
CONTINUOUS
10
3.5691115354330707
20
-2.262715
11
3.5678331102362204
21
-2.2639934251968503
0
LINE
8
BLACK
6
CONTINUOUS
10
3.5678331102362204
20
-2.2639934251968503
11
3.5669291338582676
21
-2.2641732283464568
0
LINE
8
BLACK
6
CONTINUOUS
10
3.5669291338582676
20
-2.2641732283464568
11
3.4251968503937009
21
-2.2641732283464568
0
LINE
8
BLACK
6
CONTINUOUS
10
3.4251968503937009
20
-2.2641732283464568
11
3.4242928740157481
21
-2.2639934251968503
0
LINE
8
BLACK
6
CONTINUOUS
10
3.4242928740157481
20
-2.2639934251968503
11
3.4230144488188974
21
-2.262715
0
LINE
8
BLACK
6
CONTINUOUS
10
3.4230144488188974
20
-2.262715
11
3.4228346456692913
21
-2.2618110236220472
0
LINE
8
BLACK
6
CONTINUOUS
10
3.4228346456692913
20
-2.2618110236220472
11
3.4228346456692913
21
-2.1397637795275588
0
LINE
8
BLACK
6
CONTINUOUS
10
3.4228346456692913
20
-2.1397637795275588
11
3.4230144488188974
21
-2.1388598031496064
0
LINE
8
BLACK
6
CONTINUOUS
10
3.4230144488188974
20
-2.1388598031496064
11
3.4242928740157481
21
-2.1375813779527557
0
LINE
8
BLACK
6
CONTINUOUS
10
3.4242928740157481
20
-2.1375813779527557
11
3.4251968503937009
21
-2.1374015748031496
0
LINE
8
BLACK
6
CONTINUOUS
10
3.4251968503937009
20
-2.1374015748031496
11
3.5669291338582676
21
-2.1374015748031496
0
LINE
8
BLACK
6
CONTINUOUS
10
3.5669291338582676
20
-2.1374015748031496
11
3.5678331102362204
21
-2.1375813779527557
0
LINE
8
BLACK
6
CONTINUOUS
10
3.4275590551181101
20
-2.1421259842519684
11
3.4275590551181101
21
-2.2594488188976376
0
LINE
8
BLACK
6
CONTINUOUS
10
3.4275590551181101
20
-2.2594488188976376
11
3.564566929133858
21
-2.2594488188976376
0
LINE
8
BLACK
6
CONTINUOUS
10
3.564566929133858
20
-2.2594488188976376
11
3.564566929133858
21
-2.1421259842519684
0
LINE
8
BLACK
6
CONTINUOUS
10
3.564566929133858
20
-2.1421259842519684
11
3.4275590551181101
21
-2.1421259842519684
0
LINE
8
BLACK
6
CONTINUOUS
10
5.1426362598425195
20
-1.7556916141732284
11
5.1439146850393698
21
-1.7569700393700787
0
LINE
8
BLACK
6
CONTINUOUS
10
5.1439146850393698
20
-1.7569700393700787
11
5.1440944881889763
21
-1.7578740157480315
0
LINE
8
BLACK
6
CONTINUOUS
10
5.1440944881889763
20
-1.7578740157480315
11
5.1440944881889763
21
-1.8799212598425197
0
LINE
8
BLACK
6
CONTINUOUS
10
5.1440944881889763
20
-1.8799212598425197
11
5.1439146850393698
21
-1.8808252362204725
0
LINE
8
BLACK
6
CONTINUOUS
10
5.1439146850393698
20
-1.8808252362204725
11
5.1426362598425195
21
-1.8821036614173228
0
LINE
8
BLACK
6
CONTINUOUS
10
5.1426362598425195
20
-1.8821036614173228
11
5.1417322834645667
21
-1.8822834645669291
0
LINE
8
BLACK
6
CONTINUOUS
10
5.1417322834645667
20
-1.8822834645669291
11
5.
21
-1.8822834645669291
0
LINE
8
BLACK
6
CONTINUOUS
10
5.
20
-1.8822834645669291
11
4.9990960236220472
21
-1.8821036614173228
0
LINE
8
BLACK
6
CONTINUOUS
10
4.9990960236220472
20
-1.8821036614173228
11
4.9978175984251969
21
-1.8808252362204725
0
LINE
8
BLACK
6
CONTINUOUS
10
4.9978175984251969
20
-1.8808252362204725
11
4.9976377952755904
21
-1.8799212598425197
0
LINE
8
BLACK
6
CONTINUOUS
10
4.9976377952755904
20
-1.8799212598425197
11
4.9976377952755904
21
-1.7578740157480315
0
LINE
8
BLACK
6
CONTINUOUS
10
4.9976377952755904
20
-1.7578740157480315
11
4.9978175984251969
21
-1.7569700393700787
0
LINE
8
BLACK
6
CONTINUOUS
10
4.9978175984251969
20
-1.7569700393700787
11
4.9990960236220472
21
-1.7556916141732284
0
LINE
8
BLACK
6
CONTINUOUS
10
4.9990960236220472
20
-1.7556916141732284
11
5.
21
-1.7555118110236221
0
LINE
8
BLACK
6
CONTINUOUS
10
5.
20
-1.7555118110236221
11
5.1417322834645667
21
-1.7555118110236221
0
LINE
8
BLACK
6
CONTINUOUS
10
5.1417322834645667
20
-1.7555118110236221
11
5.1426362598425195
21
-1.7556916141732284
0
LINE
8
BLACK
6
CONTINUOUS
10
5.0023622047244096
20
-1.7602362204724409
11
5.0023622047244096
21
-1.8775590551181103
0
LINE
8
BLACK
6
CONTINUOUS
10
5.0023622047244096
20
-1.8775590551181103
11
5.1393700787401571
21
-1.8775590551181103
0
LINE
8
BLACK
6
CONTINUOUS
10
5.1393700787401571
20
-1.8775590551181103
11
5.1393700787401571
21
-1.7602362204724409
0
LINE
8
BLACK
6
CONTINUOUS
10
5.1393700787401571
20
-1.7602362204724409
11
5.0023622047244096
21
-1.7602362204724409
0
LINE
8
BLACK
6
CONTINUOUS
10
1.2056283858267716
20
-1.6730144488188976
11
1.2069068110236221
21
-1.6742928740157479
0
LINE
8
BLACK
6
CONTINUOUS
10
1.2069068110236221
20
-1.6742928740157479
11
1.2070866141732284
21
-1.6751968503937007
0
LINE
8
BLACK
6
CONTINUOUS
10
1.2070866141732284
20
-1.6751968503937007
11
1.2070866141732284
21
-1.7972440944881889
0
LINE
8
BLACK
6
CONTINUOUS
10
1.2070866141732284
20
-1.7972440944881889
11
1.2069068110236221
21
-1.7981480708661417
0
LINE
8
BLACK
6
CONTINUOUS
10
1.2069068110236221
20
-1.7981480708661417
11
1.2056283858267716
21
-1.799426496062992
0
LINE
8
BLACK
6
CONTINUOUS
10
1.2056283858267716
20
-1.799426496062992
11
1.204724409448819
21
-1.7996062992125983
0
LINE
8
BLACK
6
CONTINUOUS
10
1.204724409448819
20
-1.7996062992125983
11
1.0629921259842519
21
-1.7996062992125983
0
LINE
8
BLACK
6
CONTINUOUS
10
1.0629921259842519
20
-1.7996062992125983
11
1.0620881496062993
21
-1.799426496062992
0
LINE
8
BLACK
6
CONTINUOUS
10
1.0620881496062993
20
-1.799426496062992
11
1.0608097244094488
21
-1.7981480708661417
0
LINE
8
BLACK
6
CONTINUOUS
10
1.0608097244094488
20
-1.7981480708661417
11
1.0606299212598425
21
-1.7972440944881889
0
LINE
8
BLACK
6
CONTINUOUS
10
1.0606299212598425
20
-1.7972440944881889
11
1.0606299212598425
21
-1.6751968503937007
0
LINE
8
BLACK
6
CONTINUOUS
10
1.0606299212598425
20
-1.6751968503937007
11
1.0608097244094488
21
-1.6742928740157479
0
LINE
8
BLACK
6
CONTINUOUS
10
1.0608097244094488
20
-1.6742928740157479
11
1.0620881496062993
21
-1.6730144488188976
0
LINE
8
BLACK
6
CONTINUOUS
10
1.0620881496062993
20
-1.6730144488188976
11
1.0629921259842519
21
-1.6728346456692913
0
LINE
8
BLACK
6
CONTINUOUS
10
1.0629921259842519
20
-1.6728346456692913
11
1.204724409448819
21
-1.6728346456692913
0
LINE
8
BLACK
6
CONTINUOUS
10
1.204724409448819
20
-1.6728346456692913
11
1.2056283858267716
21
-1.6730144488188976
0
LINE
8
BLACK
6
CONTINUOUS
10
1.0653543307086615
20
-1.6775590551181101
11
1.0653543307086615
21
-1.7948818897637795
0
LINE
8
BLACK
6
CONTINUOUS
10
1.0653543307086615
20
-1.7948818897637795
11
1.2023622047244094
21
-1.7948818897637795
0
LINE
8
BLACK
6
CONTINUOUS
10
1.2023622047244094
20
-1.7948818897637795
11
1.2023622047244094
21
-1.6775590551181101
0
LINE
8
BLACK
6
CONTINUOUS
10
1.2023622047244094
20
-1.6775590551181101
11
1.0653543307086615
21
-1.6775590551181101
0
LINE
8
BLACK
6
CONTINUOUS
10
1.9930299606299211
20
-1.6730144488188976
11
1.9943083858267716
21
-1.6742928740157479
0
LINE
8
BLACK
6
CONTINUOUS
10
1.9943083858267716
20
-1.6742928740157479
11
1.9944881889763779
21
-1.6751968503937007
0
LINE
8
BLACK
6
CONTINUOUS
10
1.9944881889763779
20
-1.6751968503937007
11
1.9944881889763779
21
-1.7972440944881889
0
LINE
8
BLACK
6
CONTINUOUS
10
1.9944881889763779
20
-1.7972440944881889
11
1.9943083858267716
21
-1.7981480708661417
0
LINE
8
BLACK
6
CONTINUOUS
10
1.9943083858267716
20
-1.7981480708661417
11
1.9930299606299211
21
-1.799426496062992
0
LINE
8
BLACK
6
CONTINUOUS
10
1.9930299606299211
20
-1.799426496062992
11
1.9921259842519685
21
-1.7996062992125983
0
LINE
8
BLACK
6
CONTINUOUS
10
1.9921259842519685
20
-1.7996062992125983
11
1.8503937007874016
21
-1.7996062992125983
0
LINE
8
BLACK
6
CONTINUOUS
10
1.8503937007874016
20
-1.7996062992125983
11
1.8494897244094488
21
-1.799426496062992
0
LINE
8
BLACK
6
CONTINUOUS
10
1.8494897244094488
20
-1.799426496062992
11
1.8482112992125983
21
-1.7981480708661417
0
LINE
8
BLACK
6
CONTINUOUS
10
1.8482112992125983
20
-1.7981480708661417
11
1.848031496062992
21
-1.7972440944881889
0
LINE
8
BLACK
6
CONTINUOUS
10
1.848031496062992
20
-1.7972440944881889
11
1.848031496062992
21
-1.6751968503937007
0
LINE
8
BLACK
6
CONTINUOUS
10
1.848031496062992
20
-1.6751968503937007
11
1.8482112992125983
21
-1.6742928740157479
0
LINE
8
BLACK
6
CONTINUOUS
10
1.8482112992125983
20
-1.6742928740157479
11
1.8494897244094488
21
-1.6730144488188976
0
LINE
8
BLACK
6
CONTINUOUS
10
1.8494897244094488
20
-1.6730144488188976
11
1.8503937007874016
21
-1.6728346456692913
0
LINE
8
BLACK
6
CONTINUOUS
10
1.8503937007874016
20
-1.6728346456692913
11
1.9921259842519685
21
-1.6728346456692913
0
LINE
8
BLACK
6
CONTINUOUS
10
1.9921259842519685
20
-1.6728346456692913
11
1.9930299606299211
21
-1.6730144488188976
0
LINE
8
BLACK
6
CONTINUOUS
10
1.852755905511811
20
-1.6775590551181101
11
1.852755905511811
21
-1.7948818897637795
0
LINE
8
BLACK
6
CONTINUOUS
10
1.852755905511811
20
-1.7948818897637795
11
1.9897637795275591
21
-1.7948818897637795
0
LINE
8
BLACK
6
CONTINUOUS
10
1.9897637795275591
20
-1.7948818897637795
11
1.9897637795275591
21
-1.6775590551181101
0
LINE
8
BLACK
6
CONTINUOUS
10
1.9897637795275591
20
-1.6775590551181101
11
1.852755905511811
21
-1.6775590551181101
0
LINE
8
BLACK
6
CONTINUOUS
10
4.3552346850393704
20
-1.6178963385826772
11
4.3565131102362207
21
-1.6191747637795275
0
LINE
8
BLACK
6
CONTINUOUS
10
4.3565131102362207
20
-1.6191747637795275
11
4.3566929133858263
21
-1.6200787401574803
0
LINE
8
BLACK
6
CONTINUOUS
10
4.3566929133858263
20
-1.6200787401574803
11
4.3566929133858263
21
-1.7421259842519685
0
LINE
8
BLACK
6
CONTINUOUS
10
4.3566929133858263
20
-1.7421259842519685
11
4.3565131102362207
21
-1.7430299606299213
0
LINE
8
BLACK
6
CONTINUOUS
10
4.3565131102362207
20
-1.7430299606299213
11
4.3552346850393704
21
-1.7443083858267716
0
LINE
8
BLACK
6
CONTINUOUS
10
4.3552346850393704
20
-1.7443083858267716
11
4.3543307086614176
21
-1.7444881889763779
0
LINE
8
BLACK
6
CONTINUOUS
10
4.3543307086614176
20
-1.7444881889763779
11
4.21259842519685
21
-1.7444881889763779
0
LINE
8
BLACK
6
CONTINUOUS
10
4.21259842519685
20
-1.7444881889763779
11
4.2116944488188972
21
-1.7443083858267716
0
LINE
8
BLACK
6
CONTINUOUS
10
4.2116944488188972
20
-1.7443083858267716
11
4.2104160236220469
21
-1.7430299606299213
0
LINE
8
BLACK
6
CONTINUOUS
10
4.2104160236220469
20
-1.7430299606299213
11
4.2102362204724413
21
-1.7421259842519685
0
LINE
8
BLACK
6
CONTINUOUS
10
4.2102362204724413
20
-1.7421259842519685
11
4.2102362204724413
21
-1.6200787401574803
0
LINE
8
BLACK
6
CONTINUOUS
10
4.2102362204724413
20
-1.6200787401574803
11
4.2104160236220469
21
-1.6191747637795275
0
LINE
8
BLACK
6
CONTINUOUS
10
4.2104160236220469
20
-1.6191747637795275
11
4.2116944488188972
21
-1.6178963385826772
0
LINE
8
BLACK
6
CONTINUOUS
10
4.2116944488188972
20
-1.6178963385826772
11
4.21259842519685
21
-1.6177165354330709
0
LINE
8
BLACK
6
CONTINUOUS
10
4.21259842519685
20
-1.6177165354330709
11
4.3543307086614176
21
-1.6177165354330709
0
LINE
8
BLACK
6
CONTINUOUS
10
4.3543307086614176
20
-1.6177165354330709
11
4.3552346850393704
21
-1.6178963385826772
0
LINE
8
BLACK
6
CONTINUOUS
10
4.2149606299212596
20
-1.6224409448818897
11
4.2149606299212596
21
-1.7397637795275591
0
LINE
8
BLACK
6
CONTINUOUS
10
4.2149606299212596
20
-1.7397637795275591
11
4.351968503937008
21
-1.7397637795275591
0
LINE
8
BLACK
6
CONTINUOUS
10
4.351968503937008
20
-1.7397637795275591
11
4.351968503937008
21
-1.6224409448818897
0
LINE
8
BLACK
6
CONTINUOUS
10
4.351968503937008
20
-1.6224409448818897
11
4.2149606299212596
21
-1.6224409448818897
0
LINE
8
BLACK
6
CONTINUOUS
10
2.7804315354330709
20
-1.4879750787401576
11
2.7817099606299212
21
-1.4892535039370078
0
LINE
8
BLACK
6
CONTINUOUS
10
2.7817099606299212
20
-1.4892535039370078
11
2.7818897637795277
21
-1.4901574803149606
0
LINE
8
BLACK
6
CONTINUOUS
10
2.7818897637795277
20
-1.4901574803149606
11
2.7818897637795277
21
-1.6122047244094488
0
LINE
8
BLACK
6
CONTINUOUS
10
2.7818897637795277
20
-1.6122047244094488
11
2.7817099606299212
21
-1.6131087007874014
0
LINE
8
BLACK
6
CONTINUOUS
10
2.7817099606299212
20
-1.6131087007874014
11
2.7804315354330709
21
-1.6143871259842519
0
LINE
8
BLACK
6
CONTINUOUS
10
2.7804315354330709
20
-1.6143871259842519
11
2.7795275590551181
21
-1.6145669291338582
0
LINE
8
BLACK
6
CONTINUOUS
10
2.7795275590551181
20
-1.6145669291338582
11
2.6377952755905509
21
-1.6145669291338582
0
LINE
8
BLACK
6
CONTINUOUS
10
2.6377952755905509
20
-1.6145669291338582
11
2.6368912992125986
21
-1.6143871259842519
0
LINE
8
BLACK
6
CONTINUOUS
10
2.6368912992125986
20
-1.6143871259842519
11
2.6356128740157478
21
-1.6131087007874014
0
LINE
8
BLACK
6
CONTINUOUS
10
2.6356128740157478
20
-1.6131087007874014
11
2.6354330708661418
21
-1.6122047244094488
0
LINE
8
BLACK
6
CONTINUOUS
10
2.6354330708661418
20
-1.6122047244094488
11
2.6354330708661418
21
-1.4901574803149606
0
LINE
8
BLACK
6
CONTINUOUS
10
2.6354330708661418
20
-1.4901574803149606
11
2.6356128740157478
21
-1.4892535039370078
0
LINE
8
BLACK
6
CONTINUOUS
10
2.6356128740157478
20
-1.4892535039370078
11
2.6368912992125986
21
-1.4879750787401576
0
LINE
8
BLACK
6
CONTINUOUS
10
2.6368912992125986
20
-1.4879750787401576
11
2.6377952755905509
21
-1.4877952755905512
0
LINE
8
BLACK
6
CONTINUOUS
10
2.6377952755905509
20
-1.4877952755905512
11
2.7795275590551181
21
-1.4877952755905512
0
LINE
8
BLACK
6
CONTINUOUS
10
2.7795275590551181
20
-1.4877952755905512
11
2.7804315354330709
21
-1.4879750787401576
0
LINE
8
BLACK
6
CONTINUOUS
10
2.6401574803149606
20
-1.49251968503937
11
2.6401574803149606
21
-1.6098425196850394
0
LINE
8
BLACK
6
CONTINUOUS
10
2.6401574803149606
20
-1.6098425196850394
11
2.7771653543307084
21
-1.6098425196850394
0
LINE
8
BLACK
6
CONTINUOUS
10
2.7771653543307084
20
-1.6098425196850394
11
2.7771653543307084
21
-1.49251968503937
0
LINE
8
BLACK
6
CONTINUOUS
10
2.7771653543307084
20
-1.49251968503937
11
2.6401574803149606
21
-1.49251968503937
0
LINE
8
BLACK
6
CONTINUOUS
10
3.5678331102362204
20
-1.3501798031496062
11
3.5691115354330707
21
-1.3514582283464567
0
LINE
8
BLACK
6
CONTINUOUS
10
3.5691115354330707
20
-1.3514582283464567
11
3.5692913385826772
21
-1.3523622047244095
0
LINE
8
BLACK
6
CONTINUOUS
10
3.5692913385826772
20
-1.3523622047244095
11
3.5692913385826772
21
-1.4744094488188977
0
LINE
8
BLACK
6
CONTINUOUS
10
3.5692913385826772
20
-1.4744094488188977
11
3.5691115354330707
21
-1.4753134251968503
0
LINE
8
BLACK
6
CONTINUOUS
10
3.5691115354330707
20
-1.4753134251968503
11
3.5678331102362204
21
-1.4765918503937008
0
LINE
8
BLACK
6
CONTINUOUS
10
3.5678331102362204
20
-1.4765918503937008
11
3.5669291338582676
21
-1.4767716535433071
0
LINE
8
BLACK
6
CONTINUOUS
10
3.5669291338582676
20
-1.4767716535433071
11
3.4251968503937009
21
-1.4767716535433071
0
LINE
8
BLACK
6
CONTINUOUS
10
3.4251968503937009
20
-1.4767716535433071
11
3.4242928740157481
21
-1.4765918503937008
0
LINE
8
BLACK
6
CONTINUOUS
10
3.4242928740157481
20
-1.4765918503937008
11
3.4230144488188974
21
-1.4753134251968503
0
LINE
8
BLACK
6
CONTINUOUS
10
3.4230144488188974
20
-1.4753134251968503
11
3.4228346456692913
21
-1.4744094488188977
0
LINE
8
BLACK
6
CONTINUOUS
10
3.4228346456692913
20
-1.4744094488188977
11
3.4228346456692913
21
-1.3523622047244095
0
LINE
8
BLACK
6
CONTINUOUS
10
3.4228346456692913
20
-1.3523622047244095
11
3.4230144488188974
21
-1.3514582283464567
0
LINE
8
BLACK
6
CONTINUOUS
10
3.4230144488188974
20
-1.3514582283464567
11
3.4242928740157481
21
-1.3501798031496062
0
LINE
8
BLACK
6
CONTINUOUS
10
3.4242928740157481
20
-1.3501798031496062
11
3.4251968503937009
21
-1.3499999999999999
0
LINE
8
BLACK
6
CONTINUOUS
10
3.4251968503937009
20
-1.3499999999999999
11
3.5669291338582676
21
-1.3499999999999999
0
LINE
8
BLACK
6
CONTINUOUS
10
3.5669291338582676
20
-1.3499999999999999
11
3.5678331102362204
21
-1.3501798031496062
0
LINE
8
BLACK
6
CONTINUOUS
10
3.4275590551181101
20
-1.3547244094488189
11
3.4275590551181101
21
-1.4720472440944881
0
LINE
8
BLACK
6
CONTINUOUS
10
3.4275590551181101
20
-1.4720472440944881
11
3.564566929133858
21
-1.4720472440944881
0
LINE
8
BLACK
6
CONTINUOUS
10
3.564566929133858
20
-1.4720472440944881
11
3.564566929133858
21
-1.3547244094488189
0
LINE
8
BLACK
6
CONTINUOUS
10
3.564566929133858
20
-1.3547244094488189
11
3.4275590551181101
21
-1.3547244094488189
0
LINE
8
BLACK
6
CONTINUOUS
10
3.118878307086614
20
-0.6477133858267716
11
3.1202975196850393
21
-0.6483012598425196
0
LINE
8
BLACK
6
CONTINUOUS
10
3.1202975196850393
20
-0.6483012598425196
11
3.1213837401574804
21
-0.6493874803149606
0
LINE
8
BLACK
6
CONTINUOUS
10
3.1213837401574804
20
-0.6493874803149606
11
3.1219716141732281
21
-0.6508066929133858
0
LINE
8
BLACK
6
CONTINUOUS
10
3.1219716141732281
20
-0.6508066929133858
11
3.122047244094488
21
-0.6515747637795275
0
LINE
8
BLACK
6
CONTINUOUS
10
3.122047244094488
20
-0.6515747637795275
11
3.1220473228346455
21
-1.159448779527559
0
LINE
8
BLACK
6
CONTINUOUS
10
3.1220473228346455
20
-1.159448779527559
11
3.929133897637795
21
-1.159448779527559
0
LINE
8
BLACK
6
CONTINUOUS
10
3.929133897637795
20
-1.159448779527559
11
3.9299019685039371
21
-1.1595244094488188
0
LINE
8
BLACK
6
CONTINUOUS
10
3.9299019685039371
20
-1.1595244094488188
11
3.9313211811023621
21
-1.160112283464567
0
LINE
8
BLACK
6
CONTINUOUS
10
3.9313211811023621
20
-1.160112283464567
11
3.9324074015748032
21
-1.1611985039370079
0
LINE
8
BLACK
6
CONTINUOUS
10
3.9324074015748032
20
-1.1611985039370079
11
3.9329952755905513
21
-1.162617716535433
0
LINE
8
BLACK
6
CONTINUOUS
10
3.9329952755905513
20
-1.162617716535433
11
3.9330709055118112
21
-1.1633857874015747
0
LINE
8
BLACK
6
CONTINUOUS
10
3.9330709055118112
20
-1.1633857874015747
11
3.9330709055118112
21
-1.4271653149606298
0
LINE
8
BLACK
6
CONTINUOUS
10
3.9330709055118112
20
-1.4271653149606298
11
4.7165354330708658
21
-1.4271653149606298
0
LINE
8
BLACK
6
CONTINUOUS
10
4.7165354330708658
20
-1.4271653149606298
11
4.7173035039370079
21
-1.4272409448818897
0
LINE
8
BLACK
6
CONTINUOUS
10
4.7173035039370079
20
-1.4272409448818897
11
4.7187227165354333
21
-1.4278288188976378
0
LINE
8
BLACK
6
CONTINUOUS
10
4.7187227165354333
20
-1.4278288188976378
11
4.7198089370078735
21
-1.4289150393700787
0
LINE
8
BLACK
6
CONTINUOUS
10
4.7198089370078735
20
-1.4289150393700787
11
4.7203968110236216
21
-1.4303342519685038
0
LINE
8
BLACK
6
CONTINUOUS
10
4.7203968110236216
20
-1.4303342519685038
11
4.7204724409448815
21
-1.4311023228346456
0
LINE
8
BLACK
6
CONTINUOUS
10
4.7204724409448815
20
-1.4311023228346456
11
4.7204724409448815
21
-1.564960590551181
0
LINE
8
BLACK
6
CONTINUOUS
10
4.7204724409448815
20
-1.564960590551181
11
5.5039370078740157
21
-1.564960590551181
0
LINE
8
BLACK
6
CONTINUOUS
10
5.5039370078740157
20
-1.564960590551181
11
5.504705078740157
21
-1.5650362204724408
0
LINE
8
BLACK
6
CONTINUOUS
10
5.504705078740157
20
-1.5650362204724408
11
5.5061242913385824
21
-1.565624094488189
0
LINE
8
BLACK
6
CONTINUOUS
10
5.5061242913385824
20
-1.565624094488189
11
5.5072105118110235
21
-1.5667103149606298
0
LINE
8
BLACK
6
CONTINUOUS
10
5.5072105118110235
20
-1.5667103149606298
11
5.5077983858267716
21
-1.568129527559055
0
LINE
8
BLACK
6
CONTINUOUS
10
5.5077983858267716
20
-1.568129527559055
11
5.5078740157480315
21
-1.5688975984251967
0
LINE
8
BLACK
6
CONTINUOUS
10
5.5078740157480315
20
-1.5688975984251967
11
5.5078740157480315
21
-4.9098173228346456
0
LINE
8
BLACK
6
CONTINUOUS
10
5.5078740157480315
20
-4.9098173228346456
11
5.7109301574803144
21
-5.0270518503937005
0
LINE
8
BLACK
6
CONTINUOUS
10
5.7109301574803144
20
-5.0270518503937005
11
5.9254970866141727
21
-4.6554110236220474
0
LINE
8
BLACK
6
CONTINUOUS
10
5.9254970866141727
20
-4.6554110236220474
11
5.9259466535433072
21
-4.6547836614173228
0
LINE
8
BLACK
6
CONTINUOUS
10
5.9259466535433072
20
-4.6547836614173228
11
5.9271653543307083
21
-4.6538485433070864
0
LINE
8
BLACK
6
CONTINUOUS
10
5.9271653543307083
20
-4.6538485433070864
11
5.9286491732283464
21
-4.6534509448818895
0
LINE
8
BLACK
6
CONTINUOUS
10
5.9286491732283464
20
-4.6534509448818895
11
5.9301721653543309
21
-4.6536514566929137
0
LINE
8
BLACK
6
CONTINUOUS
10
5.9301721653543309
20
-4.6536514566929137
11
5.9308751574803145
21
-4.6539699606299214
0
LINE
8
BLACK
6
CONTINUOUS
10
5.9308751574803145
20
-4.6539699606299214
11
6.6809759448818893
21
-5.0870408661417326
0
LINE
8
BLACK
6
CONTINUOUS
10
6.6809759448818893
20
-5.0870408661417326
11
6.6816032677165351
21
-5.0874903937007874
0
LINE
8
BLACK
6
CONTINUOUS
10
6.6816032677165351
20
-5.0874903937007874
11
6.6816033070866139
21
-5.0874904330708661
0
LINE
8
BLACK
6
CONTINUOUS
10
6.6816033070866139
20
-5.0874904330708661
11
6.6825384251968503
21
-5.0887091338582673
0
LINE
8
BLACK
6
CONTINUOUS
10
6.6825384251968503
20
-5.0887091338582673
11
6.6829360236220472
21
-5.0901929527559053
0
LINE
8
BLACK
6
CONTINUOUS
10
6.6829360236220472
20
-5.0901929527559053
11
6.6827355118110239
21
-5.0917159448818898
0
LINE
8
BLACK
6
CONTINUOUS
10
6.6827355118110239
20
-5.0917159448818898
11
6.6824170078740153
21
-5.0924189370078743
0
LINE
8
BLACK
6
CONTINUOUS
10
6.6824170078740153
20
-5.0924189370078743
11
5.8556453543307088
21
-6.5244294488188972
0
LINE
8
BLACK
6
CONTINUOUS
10
5.8556453543307088
20
-6.5244294488188972
11
5.8551957874015743
21
-6.5250568110236218
0
LINE
8
BLACK
6
CONTINUOUS
10
5.8551957874015743
20
-6.5250568110236218
11
5.8539770866141732
21
-6.5259919291338582
0
LINE
8
BLACK
6
CONTINUOUS
10
5.8539770866141732
20
-6.5259919291338582
11
5.8524932677165351
21
-6.5263895275590551
0
LINE
8
BLACK
6
CONTINUOUS
10
5.8524932677165351
20
-6.5263895275590551
11
5.8509702362204727
21
-6.5261890157480318
0
LINE
8
BLACK
6
CONTINUOUS
10
5.8509702362204727
20
-6.5261890157480318
11
5.850267283464567
21
-6.5258704724409444
0
LINE
8
BLACK
6
CONTINUOUS
10
5.850267283464567
20
-6.5258704724409444
11
5.1001664960629922
21
-6.092799606299212
0
LINE
8
BLACK
6
CONTINUOUS
10
5.1001664960629922
20
-6.092799606299212
11
5.0995391338582676
21
-6.0923500393700785
0
LINE
8
BLACK
6
CONTINUOUS
10
5.0995391338582676
20
-6.0923500393700785
11
5.0986040157480312
21
-6.0911313385826773
0
LINE
8
BLACK
6
CONTINUOUS
10
5.0986040157480312
20
-6.0911313385826773
11
5.0982064173228343
21
-6.0896475196850393
0
LINE
8
BLACK
6
CONTINUOUS
10
5.0982064173228343
20
-6.0896475196850393
11
5.0984069291338585
21
-6.0881245275590548
0
LINE
8
BLACK
6
CONTINUOUS
10
5.0984069291338585
20
-6.0881245275590548
11
5.0987254330708662
21
-6.0874215354330703
0
LINE
8
BLACK
6
CONTINUOUS
10
5.0987254330708662
20
-6.0874215354330703
11
5.2739222834645672
21
-5.7839716929133855
0
LINE
8
BLACK
6
CONTINUOUS
10
5.2739222834645672
20
-5.7839716929133855
11
4.6627345669291334
21
-5.4311023622047241
0
LINE
8
BLACK
6
CONTINUOUS
10
4.6627345669291334
20
-5.4311023622047241
11
3.8503937007874014
21
-5.4311023622047241
0
LINE
8
BLACK
6
CONTINUOUS
10
3.8503937007874014
20
-5.4311023622047241
11
3.8496256299212597
21
-5.4310267322834642
0
LINE
8
BLACK
6
CONTINUOUS
10
3.8496256299212597
20
-5.4310267322834642
11
3.8482064173228347
21
-5.4304388582677161
0
LINE
8
BLACK
6
CONTINUOUS
10
3.8482064173228347
20
-5.4304388582677161
11
3.8471201968503936
21
-5.4293526377952759
0
LINE
8
BLACK
6
CONTINUOUS
10
3.8471201968503936
20
-5.4293526377952759
11
3.8465323228346455
21
-5.4279334251968505
0
LINE
8
BLACK
6
CONTINUOUS
10
3.8465323228346455
20
-5.4279334251968505
11
3.8464566929133857
21
-5.4271653543307083
0
LINE
8
BLACK
6
CONTINUOUS
10
3.8464566929133857
20
-5.4271653543307083
11
3.8464567322834644
21
-4.3956692519685037
0
LINE
8
BLACK
6
CONTINUOUS
10
3.8464567322834644
20
-4.3956692519685037
11
3.1456693307086612
21
-4.3956692519685037
0
LINE
8
BLACK
6
CONTINUOUS
10
3.1456693307086612
20
-4.3956692519685037
11
3.1456692913385824
21
-4.5295275196850389
0
LINE
8
BLACK
6
CONTINUOUS
10
3.1456692913385824
20
-4.5295275196850389
11
3.1455936614173226
21
-4.530295590551181
0
LINE
8
BLACK
6
CONTINUOUS
10
3.1455936614173226
20
-4.530295590551181
11
3.1450057874015749
21
-4.5317148031496064
0
LINE
8
BLACK
6
CONTINUOUS
10
3.1450057874015749
20
-4.5317148031496064
11
3.1439195669291338
21
-4.5328010236220475
0
LINE
8
BLACK
6
CONTINUOUS
10
3.1439195669291338
20
-4.5328010236220475
11
3.1425003543307084
21
-4.5333888976377947
0
LINE
8
BLACK
6
CONTINUOUS
10
3.1425003543307084
20
-4.5333888976377947
11
3.1417322834645667
21
-4.5334645275590546
0
LINE
8
BLACK
6
CONTINUOUS
10
3.1417322834645667
20
-4.5334645275590546
11
2.3582677165354329
21
-4.5334645275590546
0
LINE
8
BLACK
6
CONTINUOUS
10
2.3582677165354329
20
-4.5334645275590546
11
2.3582677165354329
21
-4.7145669291338583
0
LINE
8
BLACK
6
CONTINUOUS
10
2.3582677165354329
20
-4.7145669291338583
11
2.358192086614173
21
-4.7153349606299209
0
LINE
8
BLACK
6
CONTINUOUS
10
2.358192086614173
20
-4.7153349606299209
11
2.358192086614173
21
-4.7153349999999996
0
LINE
8
BLACK
6
CONTINUOUS
10
2.358192086614173
20
-4.7153349999999996
11
2.3576042125984253
21
-4.716754212598425
0
LINE
8
BLACK
6
CONTINUOUS
10
2.3576042125984253
20
-4.716754212598425
11
2.3565179921259842
21
-4.7178404330708661
0
LINE
8
BLACK
6
CONTINUOUS
10
2.3565179921259842
20
-4.7178404330708661
11
2.3550987795275589
21
-4.7184283070866142
0
LINE
8
BLACK
6
CONTINUOUS
10
2.3550987795275589
20
-4.7184283070866142
11
2.3543307086614171
21
-4.7185039370078741
0
LINE
8
BLACK
6
CONTINUOUS
10
2.3543307086614171
20
-4.7185039370078741
11
0.7007874409448819
21
-4.7185038976377953
0
LINE
8
BLACK
6
CONTINUOUS
10
0.7007874409448819
20
-4.7185038976377953
11
0.7000193700787402
21
-4.7184282677165355
0
LINE
8
BLACK
6
CONTINUOUS
10
0.7000193700787402
20
-4.7184282677165355
11
0.6986001574803149
21
-4.7178403937007873
0
LINE
8
BLACK
6
CONTINUOUS
10
0.6986001574803149
20
-4.7178403937007873
11
0.697513937007874
21
-4.7167541732283462
0
LINE
8
BLACK
6
CONTINUOUS
10
0.697513937007874
20
-4.7167541732283462
11
0.696926062992126
21
-4.7153349606299209
0
LINE
8
BLACK
6
CONTINUOUS
10
0.696926062992126
20
-4.7153349606299209
11
0.6968504330708661
21
-4.7145668897637796
0
LINE
8
BLACK
6
CONTINUOUS
10
0.6968504330708661
20
-4.7145668897637796
11
0.6968504330708661
21
-1.2893700787401574
0
LINE
8
BLACK
6
CONTINUOUS
10
0.6968504330708661
20
-1.2893700787401574
11
0.6969260236220473
21
-1.2886024015748032
0
LINE
8
BLACK
6
CONTINUOUS
10
0.6969260236220473
20
-1.2886024015748032
11
0.6969260236220473
21
-1.2886020078740157
0
LINE
8
BLACK
6
CONTINUOUS
10
0.6969260236220473
20
-1.2886020078740157
11
0.6975138976377953
21
-1.2871827952755905
0
LINE
8
BLACK
6
CONTINUOUS
10
0.6975138976377953
20
-1.2871827952755905
11
0.6986001181102363
21
-1.2860965748031497
0
LINE
8
BLACK
6
CONTINUOUS
10
0.6986001181102363
20
-1.2860965748031497
11
0.7000193307086614
21
-1.2855087007874015
0
LINE
8
BLACK
6
CONTINUOUS
10
0.7000193307086614
20
-1.2855087007874015
11
0.7007874015748031
21
-1.2854330708661417
0
LINE
8
BLACK
6
CONTINUOUS
10
0.7007874015748031
20
-1.2854330708661417
11
1.0621379527559054
21
-1.2854330708661417
0
LINE
8
BLACK
6
CONTINUOUS
10
1.0621379527559054
20
-1.2854330708661417
11
1.0621379527559054
21
-0.9242125984251969
0
LINE
8
BLACK
6
CONTINUOUS
10
1.0621379527559054
20
-0.9242125984251969
11
0.7012795275590551
21
-0.9242125984251969
0
LINE
8
BLACK
6
CONTINUOUS
10
0.7012795275590551
20
-0.9242125984251969
11
0.7005114566929134
21
-0.924136968503937
0
LINE
8
BLACK
6
CONTINUOUS
10
0.7005114566929134
20
-0.924136968503937
11
0.7000193307086614
21
-0.924136968503937
0
LINE
8
BLACK
6
CONTINUOUS
10
0.7000193307086614
20
-0.924136968503937
11
0.6986001181102363
21
-0.923549094488189
0
LINE
8
BLACK
6
CONTINUOUS
10
0.6986001181102363
20
-0.923549094488189
11
0.6975138976377953
21
-0.922462874015748
0
LINE
8
BLACK
6
CONTINUOUS
10
0.6975138976377953
20
-0.922462874015748
11
0.6969260236220473
21
-0.9210436614173229
0
LINE
8
BLACK
6
CONTINUOUS
10
0.6969260236220473
20
-0.9210436614173229
11
0.6968503937007874
21
-0.9202755905511811
0
LINE
8
BLACK
6
CONTINUOUS
10
0.6968503937007874
20
-0.9202755905511811
11
0.6968503937007874
21
-0.6515748031496063
0
LINE
8
BLACK
6
CONTINUOUS
10
0.6968503937007874
20
-0.6515748031496063
11
0.6969260236220473
21
-0.6508067322834645
0
LINE
8
BLACK
6
CONTINUOUS
10
0.6969260236220473
20
-0.6508067322834645
11
0.6975138976377953
21
-0.6493875196850394
0
LINE
8
BLACK
6
CONTINUOUS
10
0.6975138976377953
20
-0.6493875196850394
11
0.6986001181102363
21
-0.6483012992125984
0
LINE
8
BLACK
6
CONTINUOUS
10
0.6986001181102363
20
-0.6483012992125984
11
0.7000193307086614
21
-0.6477134251968504
0
LINE
8
BLACK
6
CONTINUOUS
10
0.7000193307086614
20
-0.6477134251968504
11
0.7007874015748031
21
-0.6476377952755905
0
LINE
8
BLACK
6
CONTINUOUS
10
0.7007874015748031
20
-0.6476377952755905
11
3.1181102362204722
21
-0.6476377559055118
0
LINE
8
BLACK
6
CONTINUOUS
10
3.1181102362204722
20
-0.6476377559055118
11
3.118878307086614
21
-0.6477133858267716
0
LINE
8
BLACK
6
CONTINUOUS
10
0.7047244094488189
20
-0.6555117716535432
11
0.7047244094488189
21
-0.9163385826771653
0
LINE
8
BLACK
6
CONTINUOUS
10
0.7047244094488189
20
-0.9163385826771653
11
1.0664370078740157
21
-0.9163385826771653
0
LINE
8
BLACK
6
CONTINUOUS
10
1.0664370078740157
20
-0.9163385826771653
11
1.0672050787401575
21
-0.9164142125984251
0
LINE
8
BLACK
6
CONTINUOUS
10
1.0672050787401575
20
-0.9164142125984251
11
1.0686242913385826
21
-0.9170020866141733
0
LINE
8
BLACK
6
CONTINUOUS
10
1.0686242913385826
20
-0.9170020866141733
11
1.0697105118110235
21
-0.9180883070866142
0
LINE
8
BLACK
6
CONTINUOUS
10
1.0697105118110235
20
-0.9180883070866142
11
1.0702983858267716
21
-0.9195075196850393
0
LINE
8
BLACK
6
CONTINUOUS
10
1.0702983858267716
20
-0.9195075196850393
11
1.0702983858267716
21
-0.9210436614173229
0
LINE
8
BLACK
6
CONTINUOUS
10
1.0702983858267716
20
-0.9210436614173229
11
1.0700119685039371
21
-0.9217350787401575
0
LINE
8
BLACK
6
CONTINUOUS
10
1.0700119685039371
20
-0.9217350787401575
11
1.0700119685039371
21
-1.2883858267716535
0
LINE
8
BLACK
6
CONTINUOUS
10
1.0700119685039371
20
-1.2883858267716535
11
1.0699363385826772
21
-1.2891538976377952
0
LINE
8
BLACK
6
CONTINUOUS
10
1.0699363385826772
20
-1.2891538976377952
11
1.0693484645669291
21
-1.2905731102362203
0
LINE
8
BLACK
6
CONTINUOUS
10
1.0693484645669291
20
-1.2905731102362203
11
1.0682622440944882
21
-1.2916593307086615
0
LINE
8
BLACK
6
CONTINUOUS
10
1.0682622440944882
20
-1.2916593307086615
11
1.0680401574803149
21
-1.2917512992125983
0
LINE
8
BLACK
6
CONTINUOUS
10
1.0680401574803149
20
-1.2917512992125983
11
1.0671479133858268
21
-1.2926435826771654
0
LINE
8
BLACK
6
CONTINUOUS
10
1.0671479133858268
20
-1.2926435826771654
11
1.0657287007874015
21
-1.2932314566929133
0
LINE
8
BLACK
6
CONTINUOUS
10
1.0657287007874015
20
-1.2932314566929133
11
1.0649606299212597
21
-1.2933070866141732
0
LINE
8
BLACK
6
CONTINUOUS
10
1.0649606299212597
20
-1.2933070866141732
11
0.7047244488188976
21
-1.2933070866141732
0
LINE
8
BLACK
6
CONTINUOUS
10
0.7047244488188976
20
-1.2933070866141732
11
0.7047244488188976
21
-4.7106298818897638
0
LINE
8
BLACK
6
CONTINUOUS
10
0.7047244488188976
20
-4.7106298818897638
11
2.3503937007874014
21
-4.7106298818897638
0
LINE
8
BLACK
6
CONTINUOUS
10
2.3503937007874014
20
-4.7106298818897638
11
2.3503937007874014
21
-4.5295275590551176
0
LINE
8
BLACK
6
CONTINUOUS
10
2.3503937007874014
20
-4.5295275590551176
11
2.3504693307086613
21
-4.5287594881889763
0
LINE
8
BLACK
6
CONTINUOUS
10
2.3504693307086613
20
-4.5287594881889763
11
2.3510572047244094
21
-4.527340275590551
0
LINE
8
BLACK
6
CONTINUOUS
10
2.3510572047244094
20
-4.527340275590551
11
2.3521434251968505
21
-4.5262540551181099
0
LINE
8
BLACK
6
CONTINUOUS
10
2.3521434251968505
20
-4.5262540551181099
11
2.3535626377952754
21
-4.5256661811023617
0
LINE
8
BLACK
6
CONTINUOUS
10
2.3535626377952754
20
-4.5256661811023617
11
2.3543307086614171
21
-4.5255905511811019
0
LINE
8
BLACK
6
CONTINUOUS
10
2.3543307086614171
20
-4.5255905511811019
11
3.1377952755905509
21
-4.5255905118110231
0
LINE
8
BLACK
6
CONTINUOUS
10
3.1377952755905509
20
-4.5255905118110231
11
3.1377953149606297
21
-4.3917322440944879
0
LINE
8
BLACK
6
CONTINUOUS
10
3.1377953149606297
20
-4.3917322440944879
11
3.1378709448818896
21
-4.3909641732283466
0
LINE
8
BLACK
6
CONTINUOUS
10
3.1378709448818896
20
-4.3909641732283466
11
3.1384588188976377
21
-4.3895449606299213
0
LINE
8
BLACK
6
CONTINUOUS
10
3.1384588188976377
20
-4.3895449606299213
11
3.1395450393700788
21
-4.3884587401574802
0
LINE
8
BLACK
6
CONTINUOUS
10
3.1395450393700788
20
-4.3884587401574802
11
3.1409642519685037
21
-4.3878708661417321
0
LINE
8
BLACK
6
CONTINUOUS
10
3.1409642519685037
20
-4.3878708661417321
11
3.1417323228346454
21
-4.3877952362204722
0
LINE
8
BLACK
6
CONTINUOUS
10
3.1417323228346454
20
-4.3877952362204722
11
3.8503937401574801
21
-4.3877952362204722
0
LINE
8
BLACK
6
CONTINUOUS
10
3.8503937401574801
20
-4.3877952362204722
11
3.8511618110236219
21
-4.3878708661417321
0
LINE
8
BLACK
6
CONTINUOUS
10
3.8511618110236219
20
-4.3878708661417321
11
3.8525810236220472
21
-4.3884587401574802
0
LINE
8
BLACK
6
CONTINUOUS
10
3.8525810236220472
20
-4.3884587401574802
11
3.8536672440944879
21
-4.3895449606299213
0
LINE
8
BLACK
6
CONTINUOUS
10
3.8536672440944879
20
-4.3895449606299213
11
3.854255118110236
21
-4.3909641732283466
0
LINE
8
BLACK
6
CONTINUOUS
10
3.854255118110236
20
-4.3909641732283466
11
3.8543307480314959
21
-4.3917322440944879
0
LINE
8
BLACK
6
CONTINUOUS
10
3.8543307480314959
20
-4.3917322440944879
11
3.8543307086614171
21
-5.4232283464566926
0
LINE
8
BLACK
6
CONTINUOUS
10
3.8543307086614171
20
-5.4232283464566926
11
4.6637895275590546
21
-5.4232283464566926
0
LINE
8
BLACK
6
CONTINUOUS
10
4.6637895275590546
20
-5.4232283464566926
11
4.6645575984251968
21
-5.4233039763779525
0
LINE
8
BLACK
6
CONTINUOUS
10
4.6645575984251968
20
-5.4233039763779525
11
4.6647975590551178
21
-5.4234033858267718
0
LINE
8
BLACK
6
CONTINUOUS
10
4.6647975590551178
20
-5.4234033858267718
11
4.6650550393700785
21
-5.4234372834645672
0
LINE
8
BLACK
6
CONTINUOUS
10
4.6650550393700785
20
-5.4234372834645672
11
4.6657580314960629
21
-5.4237557874015749
0
LINE
8
BLACK
6
CONTINUOUS
10
4.6657580314960629
20
-5.4237557874015749
11
5.2812688976377951
21
-5.7791211417322836
0
LINE
8
BLACK
6
CONTINUOUS
10
5.2812688976377951
20
-5.7791211417322836
11
5.2818962598425196
21
-5.7795706692913384
0
LINE
8
BLACK
6
CONTINUOUS
10
5.2818962598425196
20
-5.7795706692913384
11
5.282831377952756
21
-5.7807893700787396
0
LINE
8
BLACK
6
CONTINUOUS
10
5.282831377952756
20
-5.7807893700787396
11
5.283228976377953
21
-5.7822731889763777
0
LINE
8
BLACK
6
CONTINUOUS
10
5.283228976377953
20
-5.7822731889763777
11
5.2830285039370075
21
-5.7837961811023622
0
LINE
8
BLACK
6
CONTINUOUS
10
5.2830285039370075
20
-5.7837961811023622
11
5.2830283070866138
21
-5.7837964960629922
0
LINE
8
BLACK
6
CONTINUOUS
10
5.2830283070866138
20
-5.7837964960629922
11
5.282709960629921
21
-5.7844991732283466
0
LINE
8
BLACK
6
CONTINUOUS
10
5.282709960629921
20
-5.7844991732283466
11
5.1075130708661414
21
-6.0879489763779526
0
LINE
8
BLACK
6
CONTINUOUS
10
5.1075130708661414
20
-6.0879489763779526
11
5.8507947244094485
21
-6.5170828346456693
0
LINE
8
BLACK
6
CONTINUOUS
10
5.8507947244094485
20
-6.5170828346456693
11
6.6736293700787401
21
-5.0918914173228345
0
LINE
8
BLACK
6
CONTINUOUS
10
6.6736293700787401
20
-5.0918914173228345
11
5.9303476771653543
21
-4.6627575984251965
0
LINE
8
BLACK
6
CONTINUOUS
10
5.9303476771653543
20
-4.6627575984251965
11
5.7157808267716534
21
-5.0343984251968505
0
LINE
8
BLACK
6
CONTINUOUS
10
5.7157808267716534
20
-5.0343984251968505
11
5.7153314566929136
21
-5.0350254724409451
0
LINE
8
BLACK
6
CONTINUOUS
10
5.7153314566929136
20
-5.0350254724409451
11
5.7153312992125986
21
-5.0350257874015742
0
LINE
8
BLACK
6
CONTINUOUS
10
5.7153312992125986
20
-5.0350257874015742
11
5.7141125590551178
21
-5.0359609055118106
0
LINE
8
BLACK
6
CONTINUOUS
10
5.7141125590551178
20
-5.0359609055118106
11
5.7126287795275585
21
-5.0363585039370076
0
LINE
8
BLACK
6
CONTINUOUS
10
5.7126287795275585
20
-5.0363585039370076
11
5.7126287401574798
21
-5.0363584645669288
0
LINE
8
BLACK
6
CONTINUOUS
10
5.7126287401574798
20
-5.0363584645669288
11
5.7126287401574798
21
-5.0363585039370076
0
LINE
8
BLACK
6
CONTINUOUS
10
5.7126287401574798
20
-5.0363585039370076
11
5.7124515748031497
21
-5.0363351574803152
0
LINE
8
BLACK
6
CONTINUOUS
10
5.7124515748031497
20
-5.0363351574803152
11
5.7111057480314962
21
-5.036158031496063
0
LINE
8
BLACK
6
CONTINUOUS
10
5.7111057480314962
20
-5.036158031496063
11
5.7104027559055117
21
-5.0358394881889765
0
LINE
8
BLACK
6
CONTINUOUS
10
5.7104027559055117
20
-5.0358394881889765
11
5.5019685039370074
21
-4.915499960629921
0
LINE
8
BLACK
6
CONTINUOUS
10
5.5019685039370074
20
-4.915499960629921
11
5.5018182283464565
21
-4.9153922440944884
0
LINE
8
BLACK
6
CONTINUOUS
10
5.5018182283464565
20
-4.9153922440944884
11
5.5017497244094491
21
-4.9153638976377954
0
LINE
8
BLACK
6
CONTINUOUS
10
5.5017497244094491
20
-4.9153638976377954
11
5.5016766141732285
21
-4.9152907874015748
0
LINE
8
BLACK
6
CONTINUOUS
10
5.5016766141732285
20
-4.9152907874015748
11
5.5013411417322837
21
-4.9150503937007874
0
LINE
8
BLACK
6
CONTINUOUS
10
5.5013411417322837
20
-4.9150503937007874
11
5.5010275984251971
21
-4.9146417716535433
0
LINE
8
BLACK
6
CONTINUOUS
10
5.5010275984251971
20
-4.9146417716535433
11
5.500663503937008
21
-4.9142776771653542
0
LINE
8
BLACK
6
CONTINUOUS
10
5.500663503937008
20
-4.9142776771653542
11
5.5005640944881886
21
-4.9140376771653544
0
LINE
8
BLACK
6
CONTINUOUS
10
5.5005640944881886
20
-4.9140376771653544
11
5.5004060236220473
21
-4.9138316929133854
0
LINE
8
BLACK
6
CONTINUOUS
10
5.5004060236220473
20
-4.9138316929133854
11
5.5002727559055113
21
-4.91333437007874
0
LINE
8
BLACK
6
CONTINUOUS
10
5.5002727559055113
20
-4.91333437007874
11
5.5000756299212599
21
-4.9128584645669289
0
LINE
8
BLACK
6
CONTINUOUS
10
5.5000756299212599
20
-4.9128584645669289
11
5.5000351574803146
21
-4.912447716535433
0
LINE
8
BLACK
6
CONTINUOUS
10
5.5000351574803146
20
-4.912447716535433
11
5.5000084251968504
21
-4.9123478740157482
0
LINE
8
BLACK
6
CONTINUOUS
10
5.5000084251968504
20
-4.9123478740157482
11
5.5000180708661413
21
-4.9122742913385826
0
LINE
8
BLACK
6
CONTINUOUS
10
5.5000180708661413
20
-4.9122742913385826
11
5.5
21
-4.9120903937007876
0
LINE
8
BLACK
6
CONTINUOUS
10
5.5
20
-4.9120903937007876
11
5.5
21
-1.5728346062992125
0
LINE
8
BLACK
6
CONTINUOUS
10
5.5
20
-1.5728346062992125
11
4.7165354330708658
21
-1.5728346456692912
0
LINE
8
BLACK
6
CONTINUOUS
10
4.7165354330708658
20
-1.5728346456692912
11
4.7157673622047245
21
-1.5727590157480316
0
LINE
8
BLACK
6
CONTINUOUS
10
4.7157673622047245
20
-1.5727590157480316
11
4.7143481496062991
21
-1.5721711417322835
0
LINE
8
BLACK
6
CONTINUOUS
10
4.7143481496062991
20
-1.5721711417322835
11
4.713261929133858
21
-1.5710849212598426
0
LINE
8
BLACK
6
CONTINUOUS
10
4.713261929133858
20
-1.5710849212598426
11
4.7126740551181099
21
-1.5696657086614172
0
LINE
8
BLACK
6
CONTINUOUS
10
4.7126740551181099
20
-1.5696657086614172
11
4.7126740551181099
21
-1.5696656692913384
0
LINE
8
BLACK
6
CONTINUOUS
10
4.7126740551181099
20
-1.5696656692913384
11
4.71259842519685
21
-1.5688976377952755
0
LINE
8
BLACK
6
CONTINUOUS
10
4.71259842519685
20
-1.5688976377952755
11
4.71259842519685
21
-1.4350393307086613
0
LINE
8
BLACK
6
CONTINUOUS
10
4.71259842519685
20
-1.4350393307086613
11
3.929133897637795
21
-1.4350393307086613
0
LINE
8
BLACK
6
CONTINUOUS
10
3.929133897637795
20
-1.4350393307086613
11
3.9283658267716532
21
-1.4349637007874017
0
LINE
8
BLACK
6
CONTINUOUS
10
3.9283658267716532
20
-1.4349637007874017
11
3.9269466141732283
21
-1.4343758267716535
0
LINE
8
BLACK
6
CONTINUOUS
10
3.9269466141732283
20
-1.4343758267716535
11
3.9258603937007872
21
-1.4332896062992126
0
LINE
8
BLACK
6
CONTINUOUS
10
3.9258603937007872
20
-1.4332896062992126
11
3.9252725196850391
21
-1.4318703937007873
0
LINE
8
BLACK
6
CONTINUOUS
10
3.9252725196850391
20
-1.4318703937007873
11
3.9251968897637792
21
-1.4311023228346456
0
LINE
8
BLACK
6
CONTINUOUS
10
3.9251968897637792
20
-1.4311023228346456
11
3.9251968897637792
21
-1.1673227952755905
0
LINE
8
BLACK
6
CONTINUOUS
10
3.9251968897637792
20
-1.1673227952755905
11
3.1181103149606297
21
-1.1673227952755905
0
LINE
8
BLACK
6
CONTINUOUS
10
3.1181103149606297
20
-1.1673227952755905
11
3.117342244094488
21
-1.1672471653543306
0
LINE
8
BLACK
6
CONTINUOUS
10
3.117342244094488
20
-1.1672471653543306
11
3.1159230314960631
21
-1.1666592913385827
0
LINE
8
BLACK
6
CONTINUOUS
10
3.1159230314960631
20
-1.1666592913385827
11
3.114836811023622
21
-1.1655730708661418
0
LINE
8
BLACK
6
CONTINUOUS
10
3.114836811023622
20
-1.1655730708661418
11
3.1142489370078739
21
-1.1641538582677164
0
LINE
8
BLACK
6
CONTINUOUS
10
3.1142489370078739
20
-1.1641538582677164
11
3.114173307086614
21
-1.1633857874015747
0
LINE
8
BLACK
6
CONTINUOUS
10
3.114173307086614
20
-1.1633857874015747
11
3.1141732283464565
21
-0.6555117716535432
0
LINE
8
BLACK
6
CONTINUOUS
10
3.1141732283464565
20
-0.6555117716535432
11
0.7047244094488189
21
-0.6555117716535432
  0
ENDSEC
  0
EOF
