<?xml version="1.0" encoding="UTF-8" standalone="no"?>
<!DOCTYPE svg PUBLIC "-//W3C//DTD SVG 1.1//EN" "http://www.w3.org/Graphics/SVG/1.1/DTD/svg11.dtd">
<svg width="100%" height="100%" viewBox="0 0 4445 4445" version="1.1" xmlns="http://www.w3.org/2000/svg" xmlns:xlink="http://www.w3.org/1999/xlink" xml:space="preserve" xmlns:serif="http://www.serif.com/" style="fill-rule:evenodd;clip-rule:evenodd;stroke-linejoin:round;stroke-miterlimit:2;">
    <g transform="matrix(5.55556,0,0,5.55556,0,0)">
        <path d="M502.351,648.636L489.636,648.636C485.241,648.636 481.674,645.069 481.674,640.674C481.674,636.279 485.241,632.712 489.636,632.712L502.351,632.712C538.044,632.712 567.081,603.674 567.081,567.981C567.081,532.288 538.044,503.246 502.351,503.246L59.846,503.246C55.451,503.246 51.884,499.68 51.884,495.285C51.884,490.89 55.451,487.323 59.846,487.323L502.351,487.323C546.822,487.323 583.005,523.506 583.005,567.981C583.005,612.452 546.822,648.636 502.351,648.636ZM356.703,612.807C352.308,612.807 348.741,609.24 348.741,604.845C348.741,572.356 322.307,545.922 289.819,545.922L193.296,545.922C188.901,545.922 185.334,542.356 185.334,537.961C185.334,533.566 188.901,529.999 193.296,529.999L289.819,529.999C331.089,529.999 364.665,563.574 364.665,604.845C364.665,609.244 361.102,612.807 356.703,612.807ZM792.038,503.25L623.866,503.25C619.471,503.25 615.904,499.684 615.904,495.289C615.904,490.894 619.471,487.327 623.866,487.327L792.038,487.327C796.433,487.327 800,490.894 800,495.289C800,499.684 796.437,503.25 792.038,503.25ZM644.057,463.25L7.962,463.25C3.567,463.25 0,459.683 0,455.288C0,450.893 3.567,447.326 7.962,447.326L644.057,447.326C721.264,447.326 784.076,384.514 784.076,307.307C784.076,230.1 721.264,167.288 644.057,167.288L623.866,167.288C619.471,167.288 615.904,163.721 615.904,159.326C615.904,154.931 619.471,151.364 623.866,151.364L644.057,151.364C730.046,151.364 800,221.318 800,307.307C800,393.296 730.046,463.25 644.057,463.25ZM619.805,420.793L68.524,420.793C64.129,420.793 60.563,417.226 60.563,412.831C60.563,408.436 64.129,404.869 68.524,404.869L619.805,404.869C660.73,404.869 694.023,371.576 694.023,330.651L694.023,324.664C694.023,283.744 660.73,250.447 619.805,250.447L613.822,250.447C572.898,250.447 539.605,283.74 539.605,324.664C539.605,329.059 536.038,332.626 531.643,332.626C527.248,332.626 523.681,329.059 523.681,324.664C523.681,274.962 564.12,234.523 613.822,234.523L619.805,234.523C669.508,234.523 709.946,274.958 709.946,324.664L709.946,330.651C709.946,380.354 669.512,420.793 619.805,420.793ZM400.362,382.818L193.296,382.818C188.901,382.818 185.334,379.251 185.334,374.856C185.334,370.461 188.901,366.894 193.296,366.894L400.362,366.894C404.757,366.894 408.324,370.461 408.324,374.856C408.324,379.251 404.757,382.818 400.362,382.818Z" style="fill:rgb(0,211,255);fill-rule:nonzero;"/>
        <g transform="matrix(0.122343,0,0,0.122343,495.833,-4073.08)">
            <path d="M691.7,34403.3C687.6,34393.3 675.367,34390 651.033,34390C608.567,34393.3 533.267,34543.3 537.033,34450C472.767,34413.3 531.267,34556.7 462.433,34570C419.033,34616.7 439.067,34540 434.567,34516.7C427.567,34483.3 443.3,34460 468,34443.3L536.7,34373.3C502.267,34283.3 417.167,34473.3 437.667,34363.3C454,34330 426.967,34283.3 401.433,34280L401.833,34280C395.1,34280 388.7,34283.3 382.633,34290C377.133,34293.3 371.9,34300 368.2,34310L367.8,34310C365.933,34313.3 364,34320 362.867,34323.3L362.5,34323.3C361.667,34326.7 360.567,34330 360.3,34336.7L360.833,34336.7C360.633,34340 360.433,34343.3 361.167,34350L361.7,34350C362.5,34353.3 363.4,34360 365.267,34363.3L365.8,34363.3C368.167,34376.7 368.833,34386.7 368.433,34390C368.4,34390 368.967,34393.3 368.933,34393.3C368.7,34393.3 367.633,34396.7 366.867,34396.7C366.033,34396.7 364.633,34400 363.233,34400C361.8,34400 360.267,34396.7 358.367,34396.7C352.667,34393.3 345.467,34383.3 336.8,34376.7C325.507,34366.7 312.07,34353.3 299.777,34350C293.253,34350 287.267,34350 281.457,34353.3C278.663,34353.3 276.41,34356.7 273.9,34360C271.147,34363.3 268.573,34370 266.24,34373.3L334.6,34443.3C346.967,34450 357.067,34463.3 363.033,34473.3C364.5,34476.7 365.933,34480 366.867,34483.3C367.833,34486.7 368.467,34490 368.867,34493.3C369.8,34500 369.233,34506.7 367.4,34516.7C366.267,34520 366.9,34530 367.533,34540C367.833,34546.7 367.2,34550 367.467,34553.3C367.667,34560 368.533,34566.7 368.3,34570C368.133,34573.3 368.067,34576.7 367.033,34580C365.533,34583.3 362.533,34583.3 358.3,34583.3C354.2,34583.3 348.133,34576.7 340.433,34570L339.9,34570C331.633,34566.7 324.96,34563.3 319.953,34560C317.397,34556.7 315.643,34553.3 313.763,34550C311.757,34546.7 309.687,34543.3 308.347,34540C305.887,34533.3 304.683,34523.3 303.66,34516.7L303.133,34516.7C302.653,34510 302.727,34506.7 302.427,34503.3C302.1,34500 302.35,34496.7 302.107,34490C301.873,34486.7 301.68,34483.3 301.4,34480C301.117,34476.7 300.243,34470 299.78,34466.7C299.563,34466.7 298.86,34466.7 298.58,34463.3C295.467,34446.7 288.187,34436.7 266.053,34450L266.583,34450C266.767,34456.7 266.32,34460 265.99,34463.3C265.97,34463.3 266.537,34463.3 266.517,34466.7C266.147,34470 265.017,34470 264.2,34473.3C263.307,34476.7 262.583,34476.7 261.21,34480L256.113,34480C252.517,34480 247.83,34476.7 242.857,34473.3C228.113,34460 208.423,34433.3 189.183,34413.3C176.24,34400 163.347,34390 152.68,34390C152.457,34390 152.373,34386.7 152.15,34386.7C127.21,34386.7 115.817,34393.3 112.04,34403.3C111.01,34406.7 110.173,34410 110.107,34413.3C110.05,34413.3 110.803,34416.7 111.587,34420C113.053,34426.7 116.05,34433.3 120.453,34443.3C128.69,34456.7 141.257,34470 154.15,34483.3C167.33,34496.7 180.75,34506.7 190.937,34513.3C205.193,34523.3 211.783,34530 212.497,34533.3C212.683,34533.3 212.14,34536.7 211.723,34536.7C207.923,34543.3 182.193,34540 169.36,34546.7C166.517,34550 164.387,34553.3 163.247,34556.7C164.327,34560 165.813,34560 167.467,34563.3C172.437,34570 179.287,34573.3 188.073,34576.7C205.683,34580 228.973,34576.7 249.887,34580C256.747,34583.3 263.153,34583.3 269.157,34586.7C278.163,34590 285.847,34596.7 291.243,34606.7C293.043,34613.3 294.5,34616.7 295.75,34620C302.543,34623.3 307.403,34626.7 310.59,34630C313.777,34633.3 315.083,34636.7 315.34,34640L314.953,34640C314.457,34640 314.147,34640 313.123,34643.3C302.92,34646.7 268.267,34640 252.65,34643.3C240.023,34646.7 228.357,34646.7 217.7,34643.3C207.047,34640 197.23,34636.7 188.057,34630C183.733,34626.7 179.263,34623.3 175.187,34620C170.88,34616.7 166.263,34613.3 162.173,34610C154.223,34600 146.34,34590 138.89,34583.3C137.837,34580 137.02,34576.7 135.44,34573.3C133.77,34570 131.413,34566.7 129.25,34563.3C127.427,34563.3 125.263,34560 123.2,34556.7C120.903,34556.7 118.34,34556.7 115.85,34553.3L107.727,34553.3C100.11,34550 92.08,34553.3 85.613,34553.3C80.79,34556.7 77.617,34560 74.787,34563.3C73.373,34563.3 72.117,34566.7 71.27,34566.7C70.443,34570 69.88,34570 69.727,34573.3L70.253,34573.3C70.217,34576.7 70.53,34576.7 71.063,34580C72.497,34586.7 76.99,34596.7 88.58,34603.3C108.09,34613.3 117.3,34623.3 119.46,34630C120,34630 119.507,34633.3 119.217,34633.3C118.85,34633.3 119.233,34636.7 118.443,34636.7L117.53,34636.7C113.11,34640 104.49,34643.3 93.34,34643.3L36.523,34643.3C26.2,34643.3 18.668,34646.7 13.003,34653.3L11.175,34653.3C6.548,34656.7 3.47,34660 1.932,34663.3C1.761,34663.3 1.69,34666.7 1.545,34666.7C0.996,34666.7 0.012,34670 0,34670C-0.012,34670 0.528,34673.3 0.528,34673.3C0.607,34673.3 1.22,34676.7 1.866,34680C4.444,34690 13.122,34696.7 24.764,34706.7C30.528,34710 36.44,34713.3 43.26,34713.3C57.177,34720 72.347,34720 86.19,34713.3C112.45,34706.7 121.74,34710 122.193,34713.3C121.827,34716.7 119.437,34720 115.307,34723.3C110.95,34730 105.21,34736.7 99.28,34740C93.967,34746.7 88.317,34753.3 83.78,34760L83.393,34760C78.783,34766.7 74.627,34773.3 73.133,34776.7C72.443,34780 71.94,34783.3 72.257,34786.7L72.783,34786.7C72.847,34790 73.227,34790 73.31,34790C74.75,34796.7 81.047,34806.7 97.367,34810L166.05,34743.3C166.327,34743.3 166.157,34743.3 166.433,34740C171.05,34736.7 175.41,34730 180.633,34726.7C196.293,34713.3 215.123,34706.7 238.82,34710C256.703,34713.3 296.713,34703.3 306.503,34713.3L308.087,34713.3C308.22,34716.7 308.547,34716.7 308.613,34716.7C308.64,34716.7 308.213,34716.7 307.84,34720C306.383,34723.3 301.843,34730 292.87,34736.7L293.397,34736.7C292.67,34743.3 291.353,34746.7 289.777,34746.7C269.227,34790 182.153,34763.3 169.65,34786.7C168.85,34786.7 167.727,34790 167.577,34793.3L168.103,34793.3C168.053,34793.3 167.643,34796.7 168.527,34800C169.407,34803.3 171.117,34806.7 173.42,34810L173.947,34810C185.743,34810 193.267,34810 198.173,34813.3C202.37,34813.3 205.187,34816.7 204.75,34820C202.153,34840 128.87,34883.3 114.067,34916.7C112.843,34916.7 111.57,34920 111.223,34923.3L111.75,34923.3C111.707,34930 111.563,34936.7 112.213,34940L112.74,34940C113.423,34943.3 114.017,34946.7 115.273,34950C115.387,34950 115.687,34953.3 115.803,34953.3C118.533,34956.7 122.69,34963.3 127.373,34963.3C156.683,34976.7 219.757,34916.7 238.033,34886.7C249.747,34870 256.26,34863.3 259.93,34863.3C261.333,34866.7 262.357,34866.7 263.097,34870L263.623,34870C264.377,34873.3 264.71,34876.7 265.243,34883.3C266.663,34893.3 268.77,34906.7 275.59,34913.3L280.443,34913.3C284.42,34916.7 289.05,34916.7 295.877,34913.3C295.883,34910 296.26,34910 296.263,34910C296.323,34903.3 295.983,34896.7 296.433,34890C296.467,34890 296.783,34890 296.82,34886.7C297.303,34880 298.357,34873.3 299.343,34866.7L299.73,34866.7C300.787,34860 301.987,34853.3 303.697,34846.7C305.493,34840 307.387,34830 310.02,34826.7C314.527,34813.3 320.99,34803.3 328.47,34793.3C329.923,34793.3 330.787,34790 332.37,34786.7C337.067,34783.3 341.533,34776.7 347.467,34773.3C353.4,34766.7 360.167,34763.3 367.433,34756.7L367.3,34873.3C353.067,34896.7 325.223,34916.7 305.557,34940C297.603,34943.3 291.977,34946.7 287.417,34953.3C285.617,34953.3 283.397,34956.7 282.077,34956.7C281.827,34956.7 281.923,34956.7 281.69,34960C280.23,34960 279.143,34963.3 278.317,34966.7L277.93,34966.7C276.84,34970 275.497,34973.3 275.753,34976.7C275.973,34983.3 277.587,34986.7 279.87,34990C283.103,34996.7 288.253,35000 294.183,35000C296.49,35003.3 298.247,35003.3 300.863,35003.3C305.53,35003.3 310.803,35000 316.157,34996.7C321.513,34993.3 327.043,34990 332.713,34980C337.2,34976.7 341.167,34970 344.567,34966.7C351.333,34960 356.6,34956.7 359.967,34953.3C361.167,34953.3 362.533,34956.7 363.367,34956.7C365.433,34960 366.233,34963.3 366.567,34970C366.9,34976.7 367.267,34986.7 367.067,34993.3C366.833,35003.3 366.033,35013.3 366.4,35023.3L366.933,35023.3C367.333,35033.3 367.9,35040 369.933,35050C371.967,35056.7 375.8,35063.3 380.633,35070C383.133,35073.3 385.567,35073.3 389.033,35076.7C392.7,35076.7 396.5,35080 401.467,35080C474.2,35080 398.733,34886.7 470.3,34980C515.633,35036.7 556.767,34963.3 497.6,34940C477.933,34916.7 449.233,34900 435,34873.3L434.6,34760C492.933,34793.3 506.267,34850 506.767,34913.3C557.367,34936.7 517.9,34820 564.767,34886.7C588.933,34926.7 693.4,35020 691.933,34923.3C685.833,34883.3 535.4,34806.7 629.767,34810C667.567,34746.7 521.8,34806.7 510.433,34736.7C462.567,34693.3 537.533,34716.7 564.133,34710C595.7,34703.3 618.067,34720 636.533,34743.3L705.433,34810C796.033,34776.7 605.367,34693.3 717.4,34713.3C771.633,34736.7 848.767,34660 766.2,34643.3C722.433,34646.7 635.633,34646.7 713.667,34603.3C771.633,34560 681.067,34523.3 664.2,34583.3C633.533,34616.7 601.1,34656.7 550.6,34643.3C525.6,34640 452.3,34656.7 506.633,34620C526.633,34550 622.567,34603.3 639.867,34556.7C630.733,34530 554.767,34556.7 611.8,34513.3C642.367,34496.7 703.933,34433.3 691.7,34403.3L691.7,34403.3Z" style="fill:rgb(52,152,219);fill-rule:nonzero;"/>
        </g>
        <g transform="matrix(0.189807,0,0,0.189807,119.562,-5926.16)">
            <path d="M691.7,34403.3C687.6,34393.3 675.367,34390 651.033,34390C608.567,34393.3 533.267,34543.3 537.033,34450C472.767,34413.3 531.267,34556.7 462.433,34570C419.033,34616.7 439.067,34540 434.567,34516.7C427.567,34483.3 443.3,34460 468,34443.3L536.7,34373.3C502.267,34283.3 417.167,34473.3 437.667,34363.3C454,34330 426.967,34283.3 401.433,34280L401.833,34280C395.1,34280 388.7,34283.3 382.633,34290C377.133,34293.3 371.9,34300 368.2,34310L367.8,34310C365.933,34313.3 364,34320 362.867,34323.3L362.5,34323.3C361.667,34326.7 360.567,34330 360.3,34336.7L360.833,34336.7C360.633,34340 360.433,34343.3 361.167,34350L361.7,34350C362.5,34353.3 363.4,34360 365.267,34363.3L365.8,34363.3C368.167,34376.7 368.833,34386.7 368.433,34390C368.4,34390 368.967,34393.3 368.933,34393.3C368.7,34393.3 367.633,34396.7 366.867,34396.7C366.033,34396.7 364.633,34400 363.233,34400C361.8,34400 360.267,34396.7 358.367,34396.7C352.667,34393.3 345.467,34383.3 336.8,34376.7C325.507,34366.7 312.07,34353.3 299.777,34350C293.253,34350 287.267,34350 281.457,34353.3C278.663,34353.3 276.41,34356.7 273.9,34360C271.147,34363.3 268.573,34370 266.24,34373.3L334.6,34443.3C346.967,34450 357.067,34463.3 363.033,34473.3C364.5,34476.7 365.933,34480 366.867,34483.3C367.833,34486.7 368.467,34490 368.867,34493.3C369.8,34500 369.233,34506.7 367.4,34516.7C366.267,34520 366.9,34530 367.533,34540C367.833,34546.7 367.2,34550 367.467,34553.3C367.667,34560 368.533,34566.7 368.3,34570C368.133,34573.3 368.067,34576.7 367.033,34580C365.533,34583.3 362.533,34583.3 358.3,34583.3C354.2,34583.3 348.133,34576.7 340.433,34570L339.9,34570C331.633,34566.7 324.96,34563.3 319.953,34560C317.397,34556.7 315.643,34553.3 313.763,34550C311.757,34546.7 309.687,34543.3 308.347,34540C305.887,34533.3 304.683,34523.3 303.66,34516.7L303.133,34516.7C302.653,34510 302.727,34506.7 302.427,34503.3C302.1,34500 302.35,34496.7 302.107,34490C301.873,34486.7 301.68,34483.3 301.4,34480C301.117,34476.7 300.243,34470 299.78,34466.7C299.563,34466.7 298.86,34466.7 298.58,34463.3C295.467,34446.7 288.187,34436.7 266.053,34450L266.583,34450C266.767,34456.7 266.32,34460 265.99,34463.3C265.97,34463.3 266.537,34463.3 266.517,34466.7C266.147,34470 265.017,34470 264.2,34473.3C263.307,34476.7 262.583,34476.7 261.21,34480L256.113,34480C252.517,34480 247.83,34476.7 242.857,34473.3C228.113,34460 208.423,34433.3 189.183,34413.3C176.24,34400 163.347,34390 152.68,34390C152.457,34390 152.373,34386.7 152.15,34386.7C127.21,34386.7 115.817,34393.3 112.04,34403.3C111.01,34406.7 110.173,34410 110.107,34413.3C110.05,34413.3 110.803,34416.7 111.587,34420C113.053,34426.7 116.05,34433.3 120.453,34443.3C128.69,34456.7 141.257,34470 154.15,34483.3C167.33,34496.7 180.75,34506.7 190.937,34513.3C205.193,34523.3 211.783,34530 212.497,34533.3C212.683,34533.3 212.14,34536.7 211.723,34536.7C207.923,34543.3 182.193,34540 169.36,34546.7C166.517,34550 164.387,34553.3 163.247,34556.7C164.327,34560 165.813,34560 167.467,34563.3C172.437,34570 179.287,34573.3 188.073,34576.7C205.683,34580 228.973,34576.7 249.887,34580C256.747,34583.3 263.153,34583.3 269.157,34586.7C278.163,34590 285.847,34596.7 291.243,34606.7C293.043,34613.3 294.5,34616.7 295.75,34620C302.543,34623.3 307.403,34626.7 310.59,34630C313.777,34633.3 315.083,34636.7 315.34,34640L314.953,34640C314.457,34640 314.147,34640 313.123,34643.3C302.92,34646.7 268.267,34640 252.65,34643.3C240.023,34646.7 228.357,34646.7 217.7,34643.3C207.047,34640 197.23,34636.7 188.057,34630C183.733,34626.7 179.263,34623.3 175.187,34620C170.88,34616.7 166.263,34613.3 162.173,34610C154.223,34600 146.34,34590 138.89,34583.3C137.837,34580 137.02,34576.7 135.44,34573.3C133.77,34570 131.413,34566.7 129.25,34563.3C127.427,34563.3 125.263,34560 123.2,34556.7C120.903,34556.7 118.34,34556.7 115.85,34553.3L107.727,34553.3C100.11,34550 92.08,34553.3 85.613,34553.3C80.79,34556.7 77.617,34560 74.787,34563.3C73.373,34563.3 72.117,34566.7 71.27,34566.7C70.443,34570 69.88,34570 69.727,34573.3L70.253,34573.3C70.217,34576.7 70.53,34576.7 71.063,34580C72.497,34586.7 76.99,34596.7 88.58,34603.3C108.09,34613.3 117.3,34623.3 119.46,34630C120,34630 119.507,34633.3 119.217,34633.3C118.85,34633.3 119.233,34636.7 118.443,34636.7L117.53,34636.7C113.11,34640 104.49,34643.3 93.34,34643.3L36.523,34643.3C26.2,34643.3 18.668,34646.7 13.003,34653.3L11.175,34653.3C6.548,34656.7 3.47,34660 1.932,34663.3C1.761,34663.3 1.69,34666.7 1.545,34666.7C0.996,34666.7 0.012,34670 0,34670C-0.012,34670 0.528,34673.3 0.528,34673.3C0.607,34673.3 1.22,34676.7 1.866,34680C4.444,34690 13.122,34696.7 24.764,34706.7C30.528,34710 36.44,34713.3 43.26,34713.3C57.177,34720 72.347,34720 86.19,34713.3C112.45,34706.7 121.74,34710 122.193,34713.3C121.827,34716.7 119.437,34720 115.307,34723.3C110.95,34730 105.21,34736.7 99.28,34740C93.967,34746.7 88.317,34753.3 83.78,34760L83.393,34760C78.783,34766.7 74.627,34773.3 73.133,34776.7C72.443,34780 71.94,34783.3 72.257,34786.7L72.783,34786.7C72.847,34790 73.227,34790 73.31,34790C74.75,34796.7 81.047,34806.7 97.367,34810L166.05,34743.3C166.327,34743.3 166.157,34743.3 166.433,34740C171.05,34736.7 175.41,34730 180.633,34726.7C196.293,34713.3 215.123,34706.7 238.82,34710C256.703,34713.3 296.713,34703.3 306.503,34713.3L308.087,34713.3C308.22,34716.7 308.547,34716.7 308.613,34716.7C308.64,34716.7 308.213,34716.7 307.84,34720C306.383,34723.3 301.843,34730 292.87,34736.7L293.397,34736.7C292.67,34743.3 291.353,34746.7 289.777,34746.7C269.227,34790 182.153,34763.3 169.65,34786.7C168.85,34786.7 167.727,34790 167.577,34793.3L168.103,34793.3C168.053,34793.3 167.643,34796.7 168.527,34800C169.407,34803.3 171.117,34806.7 173.42,34810L173.947,34810C185.743,34810 193.267,34810 198.173,34813.3C202.37,34813.3 205.187,34816.7 204.75,34820C202.153,34840 128.87,34883.3 114.067,34916.7C112.843,34916.7 111.57,34920 111.223,34923.3L111.75,34923.3C111.707,34930 111.563,34936.7 112.213,34940L112.74,34940C113.423,34943.3 114.017,34946.7 115.273,34950C115.387,34950 115.687,34953.3 115.803,34953.3C118.533,34956.7 122.69,34963.3 127.373,34963.3C156.683,34976.7 219.757,34916.7 238.033,34886.7C249.747,34870 256.26,34863.3 259.93,34863.3C261.333,34866.7 262.357,34866.7 263.097,34870L263.623,34870C264.377,34873.3 264.71,34876.7 265.243,34883.3C266.663,34893.3 268.77,34906.7 275.59,34913.3L280.443,34913.3C284.42,34916.7 289.05,34916.7 295.877,34913.3C295.883,34910 296.26,34910 296.263,34910C296.323,34903.3 295.983,34896.7 296.433,34890C296.467,34890 296.783,34890 296.82,34886.7C297.303,34880 298.357,34873.3 299.343,34866.7L299.73,34866.7C300.787,34860 301.987,34853.3 303.697,34846.7C305.493,34840 307.387,34830 310.02,34826.7C314.527,34813.3 320.99,34803.3 328.47,34793.3C329.923,34793.3 330.787,34790 332.37,34786.7C337.067,34783.3 341.533,34776.7 347.467,34773.3C353.4,34766.7 360.167,34763.3 367.433,34756.7L367.3,34873.3C353.067,34896.7 325.223,34916.7 305.557,34940C297.603,34943.3 291.977,34946.7 287.417,34953.3C285.617,34953.3 283.397,34956.7 282.077,34956.7C281.827,34956.7 281.923,34956.7 281.69,34960C280.23,34960 279.143,34963.3 278.317,34966.7L277.93,34966.7C276.84,34970 275.497,34973.3 275.753,34976.7C275.973,34983.3 277.587,34986.7 279.87,34990C283.103,34996.7 288.253,35000 294.183,35000C296.49,35003.3 298.247,35003.3 300.863,35003.3C305.53,35003.3 310.803,35000 316.157,34996.7C321.513,34993.3 327.043,34990 332.713,34980C337.2,34976.7 341.167,34970 344.567,34966.7C351.333,34960 356.6,34956.7 359.967,34953.3C361.167,34953.3 362.533,34956.7 363.367,34956.7C365.433,34960 366.233,34963.3 366.567,34970C366.9,34976.7 367.267,34986.7 367.067,34993.3C366.833,35003.3 366.033,35013.3 366.4,35023.3L366.933,35023.3C367.333,35033.3 367.9,35040 369.933,35050C371.967,35056.7 375.8,35063.3 380.633,35070C383.133,35073.3 385.567,35073.3 389.033,35076.7C392.7,35076.7 396.5,35080 401.467,35080C474.2,35080 398.733,34886.7 470.3,34980C515.633,35036.7 556.767,34963.3 497.6,34940C477.933,34916.7 449.233,34900 435,34873.3L434.6,34760C492.933,34793.3 506.267,34850 506.767,34913.3C557.367,34936.7 517.9,34820 564.767,34886.7C588.933,34926.7 693.4,35020 691.933,34923.3C685.833,34883.3 535.4,34806.7 629.767,34810C667.567,34746.7 521.8,34806.7 510.433,34736.7C462.567,34693.3 537.533,34716.7 564.133,34710C595.7,34703.3 618.067,34720 636.533,34743.3L705.433,34810C796.033,34776.7 605.367,34693.3 717.4,34713.3C771.633,34736.7 848.767,34660 766.2,34643.3C722.433,34646.7 635.633,34646.7 713.667,34603.3C771.633,34560 681.067,34523.3 664.2,34583.3C633.533,34616.7 601.1,34656.7 550.6,34643.3C525.6,34640 452.3,34656.7 506.633,34620C526.633,34550 622.567,34603.3 639.867,34556.7C630.733,34530 554.767,34556.7 611.8,34513.3C642.367,34496.7 703.933,34433.3 691.7,34403.3L691.7,34403.3Z" style="fill:rgb(52,152,219);fill-rule:nonzero;"/>
        </g>
        <g transform="matrix(0.0945843,0,0,0.0945843,408.462,-2714.82)">
            <path d="M691.7,34403.3C687.6,34393.3 675.367,34390 651.033,34390C608.567,34393.3 533.267,34543.3 537.033,34450C472.767,34413.3 531.267,34556.7 462.433,34570C419.033,34616.7 439.067,34540 434.567,34516.7C427.567,34483.3 443.3,34460 468,34443.3L536.7,34373.3C502.267,34283.3 417.167,34473.3 437.667,34363.3C454,34330 426.967,34283.3 401.433,34280L401.833,34280C395.1,34280 388.7,34283.3 382.633,34290C377.133,34293.3 371.9,34300 368.2,34310L367.8,34310C365.933,34313.3 364,34320 362.867,34323.3L362.5,34323.3C361.667,34326.7 360.567,34330 360.3,34336.7L360.833,34336.7C360.633,34340 360.433,34343.3 361.167,34350L361.7,34350C362.5,34353.3 363.4,34360 365.267,34363.3L365.8,34363.3C368.167,34376.7 368.833,34386.7 368.433,34390C368.4,34390 368.967,34393.3 368.933,34393.3C368.7,34393.3 367.633,34396.7 366.867,34396.7C366.033,34396.7 364.633,34400 363.233,34400C361.8,34400 360.267,34396.7 358.367,34396.7C352.667,34393.3 345.467,34383.3 336.8,34376.7C325.507,34366.7 312.07,34353.3 299.777,34350C293.253,34350 287.267,34350 281.457,34353.3C278.663,34353.3 276.41,34356.7 273.9,34360C271.147,34363.3 268.573,34370 266.24,34373.3L334.6,34443.3C346.967,34450 357.067,34463.3 363.033,34473.3C364.5,34476.7 365.933,34480 366.867,34483.3C367.833,34486.7 368.467,34490 368.867,34493.3C369.8,34500 369.233,34506.7 367.4,34516.7C366.267,34520 366.9,34530 367.533,34540C367.833,34546.7 367.2,34550 367.467,34553.3C367.667,34560 368.533,34566.7 368.3,34570C368.133,34573.3 368.067,34576.7 367.033,34580C365.533,34583.3 362.533,34583.3 358.3,34583.3C354.2,34583.3 348.133,34576.7 340.433,34570L339.9,34570C331.633,34566.7 324.96,34563.3 319.953,34560C317.397,34556.7 315.643,34553.3 313.763,34550C311.757,34546.7 309.687,34543.3 308.347,34540C305.887,34533.3 304.683,34523.3 303.66,34516.7L303.133,34516.7C302.653,34510 302.727,34506.7 302.427,34503.3C302.1,34500 302.35,34496.7 302.107,34490C301.873,34486.7 301.68,34483.3 301.4,34480C301.117,34476.7 300.243,34470 299.78,34466.7C299.563,34466.7 298.86,34466.7 298.58,34463.3C295.467,34446.7 288.187,34436.7 266.053,34450L266.583,34450C266.767,34456.7 266.32,34460 265.99,34463.3C265.97,34463.3 266.537,34463.3 266.517,34466.7C266.147,34470 265.017,34470 264.2,34473.3C263.307,34476.7 262.583,34476.7 261.21,34480L256.113,34480C252.517,34480 247.83,34476.7 242.857,34473.3C228.113,34460 208.423,34433.3 189.183,34413.3C176.24,34400 163.347,34390 152.68,34390C152.457,34390 152.373,34386.7 152.15,34386.7C127.21,34386.7 115.817,34393.3 112.04,34403.3C111.01,34406.7 110.173,34410 110.107,34413.3C110.05,34413.3 110.803,34416.7 111.587,34420C113.053,34426.7 116.05,34433.3 120.453,34443.3C128.69,34456.7 141.257,34470 154.15,34483.3C167.33,34496.7 180.75,34506.7 190.937,34513.3C205.193,34523.3 211.783,34530 212.497,34533.3C212.683,34533.3 212.14,34536.7 211.723,34536.7C207.923,34543.3 182.193,34540 169.36,34546.7C166.517,34550 164.387,34553.3 163.247,34556.7C164.327,34560 165.813,34560 167.467,34563.3C172.437,34570 179.287,34573.3 188.073,34576.7C205.683,34580 228.973,34576.7 249.887,34580C256.747,34583.3 263.153,34583.3 269.157,34586.7C278.163,34590 285.847,34596.7 291.243,34606.7C293.043,34613.3 294.5,34616.7 295.75,34620C302.543,34623.3 307.403,34626.7 310.59,34630C313.777,34633.3 315.083,34636.7 315.34,34640L314.953,34640C314.457,34640 314.147,34640 313.123,34643.3C302.92,34646.7 268.267,34640 252.65,34643.3C240.023,34646.7 228.357,34646.7 217.7,34643.3C207.047,34640 197.23,34636.7 188.057,34630C183.733,34626.7 179.263,34623.3 175.187,34620C170.88,34616.7 166.263,34613.3 162.173,34610C154.223,34600 146.34,34590 138.89,34583.3C137.837,34580 137.02,34576.7 135.44,34573.3C133.77,34570 131.413,34566.7 129.25,34563.3C127.427,34563.3 125.263,34560 123.2,34556.7C120.903,34556.7 118.34,34556.7 115.85,34553.3L107.727,34553.3C100.11,34550 92.08,34553.3 85.613,34553.3C80.79,34556.7 77.617,34560 74.787,34563.3C73.373,34563.3 72.117,34566.7 71.27,34566.7C70.443,34570 69.88,34570 69.727,34573.3L70.253,34573.3C70.217,34576.7 70.53,34576.7 71.063,34580C72.497,34586.7 76.99,34596.7 88.58,34603.3C108.09,34613.3 117.3,34623.3 119.46,34630C120,34630 119.507,34633.3 119.217,34633.3C118.85,34633.3 119.233,34636.7 118.443,34636.7L117.53,34636.7C113.11,34640 104.49,34643.3 93.34,34643.3L36.523,34643.3C26.2,34643.3 18.668,34646.7 13.003,34653.3L11.175,34653.3C6.548,34656.7 3.47,34660 1.932,34663.3C1.761,34663.3 1.69,34666.7 1.545,34666.7C0.996,34666.7 0.012,34670 0,34670C-0.012,34670 0.528,34673.3 0.528,34673.3C0.607,34673.3 1.22,34676.7 1.866,34680C4.444,34690 13.122,34696.7 24.764,34706.7C30.528,34710 36.44,34713.3 43.26,34713.3C57.177,34720 72.347,34720 86.19,34713.3C112.45,34706.7 121.74,34710 122.193,34713.3C121.827,34716.7 119.437,34720 115.307,34723.3C110.95,34730 105.21,34736.7 99.28,34740C93.967,34746.7 88.317,34753.3 83.78,34760L83.393,34760C78.783,34766.7 74.627,34773.3 73.133,34776.7C72.443,34780 71.94,34783.3 72.257,34786.7L72.783,34786.7C72.847,34790 73.227,34790 73.31,34790C74.75,34796.7 81.047,34806.7 97.367,34810L166.05,34743.3C166.327,34743.3 166.157,34743.3 166.433,34740C171.05,34736.7 175.41,34730 180.633,34726.7C196.293,34713.3 215.123,34706.7 238.82,34710C256.703,34713.3 296.713,34703.3 306.503,34713.3L308.087,34713.3C308.22,34716.7 308.547,34716.7 308.613,34716.7C308.64,34716.7 308.213,34716.7 307.84,34720C306.383,34723.3 301.843,34730 292.87,34736.7L293.397,34736.7C292.67,34743.3 291.353,34746.7 289.777,34746.7C269.227,34790 182.153,34763.3 169.65,34786.7C168.85,34786.7 167.727,34790 167.577,34793.3L168.103,34793.3C168.053,34793.3 167.643,34796.7 168.527,34800C169.407,34803.3 171.117,34806.7 173.42,34810L173.947,34810C185.743,34810 193.267,34810 198.173,34813.3C202.37,34813.3 205.187,34816.7 204.75,34820C202.153,34840 128.87,34883.3 114.067,34916.7C112.843,34916.7 111.57,34920 111.223,34923.3L111.75,34923.3C111.707,34930 111.563,34936.7 112.213,34940L112.74,34940C113.423,34943.3 114.017,34946.7 115.273,34950C115.387,34950 115.687,34953.3 115.803,34953.3C118.533,34956.7 122.69,34963.3 127.373,34963.3C156.683,34976.7 219.757,34916.7 238.033,34886.7C249.747,34870 256.26,34863.3 259.93,34863.3C261.333,34866.7 262.357,34866.7 263.097,34870L263.623,34870C264.377,34873.3 264.71,34876.7 265.243,34883.3C266.663,34893.3 268.77,34906.7 275.59,34913.3L280.443,34913.3C284.42,34916.7 289.05,34916.7 295.877,34913.3C295.883,34910 296.26,34910 296.263,34910C296.323,34903.3 295.983,34896.7 296.433,34890C296.467,34890 296.783,34890 296.82,34886.7C297.303,34880 298.357,34873.3 299.343,34866.7L299.73,34866.7C300.787,34860 301.987,34853.3 303.697,34846.7C305.493,34840 307.387,34830 310.02,34826.7C314.527,34813.3 320.99,34803.3 328.47,34793.3C329.923,34793.3 330.787,34790 332.37,34786.7C337.067,34783.3 341.533,34776.7 347.467,34773.3C353.4,34766.7 360.167,34763.3 367.433,34756.7L367.3,34873.3C353.067,34896.7 325.223,34916.7 305.557,34940C297.603,34943.3 291.977,34946.7 287.417,34953.3C285.617,34953.3 283.397,34956.7 282.077,34956.7C281.827,34956.7 281.923,34956.7 281.69,34960C280.23,34960 279.143,34963.3 278.317,34966.7L277.93,34966.7C276.84,34970 275.497,34973.3 275.753,34976.7C275.973,34983.3 277.587,34986.7 279.87,34990C283.103,34996.7 288.253,35000 294.183,35000C296.49,35003.3 298.247,35003.3 300.863,35003.3C305.53,35003.3 310.803,35000 316.157,34996.7C321.513,34993.3 327.043,34990 332.713,34980C337.2,34976.7 341.167,34970 344.567,34966.7C351.333,34960 356.6,34956.7 359.967,34953.3C361.167,34953.3 362.533,34956.7 363.367,34956.7C365.433,34960 366.233,34963.3 366.567,34970C366.9,34976.7 367.267,34986.7 367.067,34993.3C366.833,35003.3 366.033,35013.3 366.4,35023.3L366.933,35023.3C367.333,35033.3 367.9,35040 369.933,35050C371.967,35056.7 375.8,35063.3 380.633,35070C383.133,35073.3 385.567,35073.3 389.033,35076.7C392.7,35076.7 396.5,35080 401.467,35080C474.2,35080 398.733,34886.7 470.3,34980C515.633,35036.7 556.767,34963.3 497.6,34940C477.933,34916.7 449.233,34900 435,34873.3L434.6,34760C492.933,34793.3 506.267,34850 506.767,34913.3C557.367,34936.7 517.9,34820 564.767,34886.7C588.933,34926.7 693.4,35020 691.933,34923.3C685.833,34883.3 535.4,34806.7 629.767,34810C667.567,34746.7 521.8,34806.7 510.433,34736.7C462.567,34693.3 537.533,34716.7 564.133,34710C595.7,34703.3 618.067,34720 636.533,34743.3L705.433,34810C796.033,34776.7 605.367,34693.3 717.4,34713.3C771.633,34736.7 848.767,34660 766.2,34643.3C722.433,34646.7 635.633,34646.7 713.667,34603.3C771.633,34560 681.067,34523.3 664.2,34583.3C633.533,34616.7 601.1,34656.7 550.6,34643.3C525.6,34640 452.3,34656.7 506.633,34620C526.633,34550 622.567,34603.3 639.867,34556.7C630.733,34530 554.767,34556.7 611.8,34513.3C642.367,34496.7 703.933,34433.3 691.7,34403.3L691.7,34403.3Z" style="fill:rgb(52,152,219);fill-rule:nonzero;"/>
        </g>
        <g transform="matrix(0.0945843,0,0,0.0945843,420.669,-2934.55)">
            <path d="M691.7,34403.3C687.6,34393.3 675.367,34390 651.033,34390C608.567,34393.3 533.267,34543.3 537.033,34450C472.767,34413.3 531.267,34556.7 462.433,34570C419.033,34616.7 439.067,34540 434.567,34516.7C427.567,34483.3 443.3,34460 468,34443.3L536.7,34373.3C502.267,34283.3 417.167,34473.3 437.667,34363.3C454,34330 426.967,34283.3 401.433,34280L401.833,34280C395.1,34280 388.7,34283.3 382.633,34290C377.133,34293.3 371.9,34300 368.2,34310L367.8,34310C365.933,34313.3 364,34320 362.867,34323.3L362.5,34323.3C361.667,34326.7 360.567,34330 360.3,34336.7L360.833,34336.7C360.633,34340 360.433,34343.3 361.167,34350L361.7,34350C362.5,34353.3 363.4,34360 365.267,34363.3L365.8,34363.3C368.167,34376.7 368.833,34386.7 368.433,34390C368.4,34390 368.967,34393.3 368.933,34393.3C368.7,34393.3 367.633,34396.7 366.867,34396.7C366.033,34396.7 364.633,34400 363.233,34400C361.8,34400 360.267,34396.7 358.367,34396.7C352.667,34393.3 345.467,34383.3 336.8,34376.7C325.507,34366.7 312.07,34353.3 299.777,34350C293.253,34350 287.267,34350 281.457,34353.3C278.663,34353.3 276.41,34356.7 273.9,34360C271.147,34363.3 268.573,34370 266.24,34373.3L334.6,34443.3C346.967,34450 357.067,34463.3 363.033,34473.3C364.5,34476.7 365.933,34480 366.867,34483.3C367.833,34486.7 368.467,34490 368.867,34493.3C369.8,34500 369.233,34506.7 367.4,34516.7C366.267,34520 366.9,34530 367.533,34540C367.833,34546.7 367.2,34550 367.467,34553.3C367.667,34560 368.533,34566.7 368.3,34570C368.133,34573.3 368.067,34576.7 367.033,34580C365.533,34583.3 362.533,34583.3 358.3,34583.3C354.2,34583.3 348.133,34576.7 340.433,34570L339.9,34570C331.633,34566.7 324.96,34563.3 319.953,34560C317.397,34556.7 315.643,34553.3 313.763,34550C311.757,34546.7 309.687,34543.3 308.347,34540C305.887,34533.3 304.683,34523.3 303.66,34516.7L303.133,34516.7C302.653,34510 302.727,34506.7 302.427,34503.3C302.1,34500 302.35,34496.7 302.107,34490C301.873,34486.7 301.68,34483.3 301.4,34480C301.117,34476.7 300.243,34470 299.78,34466.7C299.563,34466.7 298.86,34466.7 298.58,34463.3C295.467,34446.7 288.187,34436.7 266.053,34450L266.583,34450C266.767,34456.7 266.32,34460 265.99,34463.3C265.97,34463.3 266.537,34463.3 266.517,34466.7C266.147,34470 265.017,34470 264.2,34473.3C263.307,34476.7 262.583,34476.7 261.21,34480L256.113,34480C252.517,34480 247.83,34476.7 242.857,34473.3C228.113,34460 208.423,34433.3 189.183,34413.3C176.24,34400 163.347,34390 152.68,34390C152.457,34390 152.373,34386.7 152.15,34386.7C127.21,34386.7 115.817,34393.3 112.04,34403.3C111.01,34406.7 110.173,34410 110.107,34413.3C110.05,34413.3 110.803,34416.7 111.587,34420C113.053,34426.7 116.05,34433.3 120.453,34443.3C128.69,34456.7 141.257,34470 154.15,34483.3C167.33,34496.7 180.75,34506.7 190.937,34513.3C205.193,34523.3 211.783,34530 212.497,34533.3C212.683,34533.3 212.14,34536.7 211.723,34536.7C207.923,34543.3 182.193,34540 169.36,34546.7C166.517,34550 164.387,34553.3 163.247,34556.7C164.327,34560 165.813,34560 167.467,34563.3C172.437,34570 179.287,34573.3 188.073,34576.7C205.683,34580 228.973,34576.7 249.887,34580C256.747,34583.3 263.153,34583.3 269.157,34586.7C278.163,34590 285.847,34596.7 291.243,34606.7C293.043,34613.3 294.5,34616.7 295.75,34620C302.543,34623.3 307.403,34626.7 310.59,34630C313.777,34633.3 315.083,34636.7 315.34,34640L314.953,34640C314.457,34640 314.147,34640 313.123,34643.3C302.92,34646.7 268.267,34640 252.65,34643.3C240.023,34646.7 228.357,34646.7 217.7,34643.3C207.047,34640 197.23,34636.7 188.057,34630C183.733,34626.7 179.263,34623.3 175.187,34620C170.88,34616.7 166.263,34613.3 162.173,34610C154.223,34600 146.34,34590 138.89,34583.3C137.837,34580 137.02,34576.7 135.44,34573.3C133.77,34570 131.413,34566.7 129.25,34563.3C127.427,34563.3 125.263,34560 123.2,34556.7C120.903,34556.7 118.34,34556.7 115.85,34553.3L107.727,34553.3C100.11,34550 92.08,34553.3 85.613,34553.3C80.79,34556.7 77.617,34560 74.787,34563.3C73.373,34563.3 72.117,34566.7 71.27,34566.7C70.443,34570 69.88,34570 69.727,34573.3L70.253,34573.3C70.217,34576.7 70.53,34576.7 71.063,34580C72.497,34586.7 76.99,34596.7 88.58,34603.3C108.09,34613.3 117.3,34623.3 119.46,34630C120,34630 119.507,34633.3 119.217,34633.3C118.85,34633.3 119.233,34636.7 118.443,34636.7L117.53,34636.7C113.11,34640 104.49,34643.3 93.34,34643.3L36.523,34643.3C26.2,34643.3 18.668,34646.7 13.003,34653.3L11.175,34653.3C6.548,34656.7 3.47,34660 1.932,34663.3C1.761,34663.3 1.69,34666.7 1.545,34666.7C0.996,34666.7 0.012,34670 0,34670C-0.012,34670 0.528,34673.3 0.528,34673.3C0.607,34673.3 1.22,34676.7 1.866,34680C4.444,34690 13.122,34696.7 24.764,34706.7C30.528,34710 36.44,34713.3 43.26,34713.3C57.177,34720 72.347,34720 86.19,34713.3C112.45,34706.7 121.74,34710 122.193,34713.3C121.827,34716.7 119.437,34720 115.307,34723.3C110.95,34730 105.21,34736.7 99.28,34740C93.967,34746.7 88.317,34753.3 83.78,34760L83.393,34760C78.783,34766.7 74.627,34773.3 73.133,34776.7C72.443,34780 71.94,34783.3 72.257,34786.7L72.783,34786.7C72.847,34790 73.227,34790 73.31,34790C74.75,34796.7 81.047,34806.7 97.367,34810L166.05,34743.3C166.327,34743.3 166.157,34743.3 166.433,34740C171.05,34736.7 175.41,34730 180.633,34726.7C196.293,34713.3 215.123,34706.7 238.82,34710C256.703,34713.3 296.713,34703.3 306.503,34713.3L308.087,34713.3C308.22,34716.7 308.547,34716.7 308.613,34716.7C308.64,34716.7 308.213,34716.7 307.84,34720C306.383,34723.3 301.843,34730 292.87,34736.7L293.397,34736.7C292.67,34743.3 291.353,34746.7 289.777,34746.7C269.227,34790 182.153,34763.3 169.65,34786.7C168.85,34786.7 167.727,34790 167.577,34793.3L168.103,34793.3C168.053,34793.3 167.643,34796.7 168.527,34800C169.407,34803.3 171.117,34806.7 173.42,34810L173.947,34810C185.743,34810 193.267,34810 198.173,34813.3C202.37,34813.3 205.187,34816.7 204.75,34820C202.153,34840 128.87,34883.3 114.067,34916.7C112.843,34916.7 111.57,34920 111.223,34923.3L111.75,34923.3C111.707,34930 111.563,34936.7 112.213,34940L112.74,34940C113.423,34943.3 114.017,34946.7 115.273,34950C115.387,34950 115.687,34953.3 115.803,34953.3C118.533,34956.7 122.69,34963.3 127.373,34963.3C156.683,34976.7 219.757,34916.7 238.033,34886.7C249.747,34870 256.26,34863.3 259.93,34863.3C261.333,34866.7 262.357,34866.7 263.097,34870L263.623,34870C264.377,34873.3 264.71,34876.7 265.243,34883.3C266.663,34893.3 268.77,34906.7 275.59,34913.3L280.443,34913.3C284.42,34916.7 289.05,34916.7 295.877,34913.3C295.883,34910 296.26,34910 296.263,34910C296.323,34903.3 295.983,34896.7 296.433,34890C296.467,34890 296.783,34890 296.82,34886.7C297.303,34880 298.357,34873.3 299.343,34866.7L299.73,34866.7C300.787,34860 301.987,34853.3 303.697,34846.7C305.493,34840 307.387,34830 310.02,34826.7C314.527,34813.3 320.99,34803.3 328.47,34793.3C329.923,34793.3 330.787,34790 332.37,34786.7C337.067,34783.3 341.533,34776.7 347.467,34773.3C353.4,34766.7 360.167,34763.3 367.433,34756.7L367.3,34873.3C353.067,34896.7 325.223,34916.7 305.557,34940C297.603,34943.3 291.977,34946.7 287.417,34953.3C285.617,34953.3 283.397,34956.7 282.077,34956.7C281.827,34956.7 281.923,34956.7 281.69,34960C280.23,34960 279.143,34963.3 278.317,34966.7L277.93,34966.7C276.84,34970 275.497,34973.3 275.753,34976.7C275.973,34983.3 277.587,34986.7 279.87,34990C283.103,34996.7 288.253,35000 294.183,35000C296.49,35003.3 298.247,35003.3 300.863,35003.3C305.53,35003.3 310.803,35000 316.157,34996.7C321.513,34993.3 327.043,34990 332.713,34980C337.2,34976.7 341.167,34970 344.567,34966.7C351.333,34960 356.6,34956.7 359.967,34953.3C361.167,34953.3 362.533,34956.7 363.367,34956.7C365.433,34960 366.233,34963.3 366.567,34970C366.9,34976.7 367.267,34986.7 367.067,34993.3C366.833,35003.3 366.033,35013.3 366.4,35023.3L366.933,35023.3C367.333,35033.3 367.9,35040 369.933,35050C371.967,35056.7 375.8,35063.3 380.633,35070C383.133,35073.3 385.567,35073.3 389.033,35076.7C392.7,35076.7 396.5,35080 401.467,35080C474.2,35080 398.733,34886.7 470.3,34980C515.633,35036.7 556.767,34963.3 497.6,34940C477.933,34916.7 449.233,34900 435,34873.3L434.6,34760C492.933,34793.3 506.267,34850 506.767,34913.3C557.367,34936.7 517.9,34820 564.767,34886.7C588.933,34926.7 693.4,35020 691.933,34923.3C685.833,34883.3 535.4,34806.7 629.767,34810C667.567,34746.7 521.8,34806.7 510.433,34736.7C462.567,34693.3 537.533,34716.7 564.133,34710C595.7,34703.3 618.067,34720 636.533,34743.3L705.433,34810C796.033,34776.7 605.367,34693.3 717.4,34713.3C771.633,34736.7 848.767,34660 766.2,34643.3C722.433,34646.7 635.633,34646.7 713.667,34603.3C771.633,34560 681.067,34523.3 664.2,34583.3C633.533,34616.7 601.1,34656.7 550.6,34643.3C525.6,34640 452.3,34656.7 506.633,34620C526.633,34550 622.567,34603.3 639.867,34556.7C630.733,34530 554.767,34556.7 611.8,34513.3C642.367,34496.7 703.933,34433.3 691.7,34403.3L691.7,34403.3Z" style="fill:rgb(52,152,219);fill-rule:nonzero;"/>
        </g>
        <g transform="matrix(0.0945843,0,0,0.0945843,72.7684,-2934.55)">
            <path d="M691.7,34403.3C687.6,34393.3 675.367,34390 651.033,34390C608.567,34393.3 533.267,34543.3 537.033,34450C472.767,34413.3 531.267,34556.7 462.433,34570C419.033,34616.7 439.067,34540 434.567,34516.7C427.567,34483.3 443.3,34460 468,34443.3L536.7,34373.3C502.267,34283.3 417.167,34473.3 437.667,34363.3C454,34330 426.967,34283.3 401.433,34280L401.833,34280C395.1,34280 388.7,34283.3 382.633,34290C377.133,34293.3 371.9,34300 368.2,34310L367.8,34310C365.933,34313.3 364,34320 362.867,34323.3L362.5,34323.3C361.667,34326.7 360.567,34330 360.3,34336.7L360.833,34336.7C360.633,34340 360.433,34343.3 361.167,34350L361.7,34350C362.5,34353.3 363.4,34360 365.267,34363.3L365.8,34363.3C368.167,34376.7 368.833,34386.7 368.433,34390C368.4,34390 368.967,34393.3 368.933,34393.3C368.7,34393.3 367.633,34396.7 366.867,34396.7C366.033,34396.7 364.633,34400 363.233,34400C361.8,34400 360.267,34396.7 358.367,34396.7C352.667,34393.3 345.467,34383.3 336.8,34376.7C325.507,34366.7 312.07,34353.3 299.777,34350C293.253,34350 287.267,34350 281.457,34353.3C278.663,34353.3 276.41,34356.7 273.9,34360C271.147,34363.3 268.573,34370 266.24,34373.3L334.6,34443.3C346.967,34450 357.067,34463.3 363.033,34473.3C364.5,34476.7 365.933,34480 366.867,34483.3C367.833,34486.7 368.467,34490 368.867,34493.3C369.8,34500 369.233,34506.7 367.4,34516.7C366.267,34520 366.9,34530 367.533,34540C367.833,34546.7 367.2,34550 367.467,34553.3C367.667,34560 368.533,34566.7 368.3,34570C368.133,34573.3 368.067,34576.7 367.033,34580C365.533,34583.3 362.533,34583.3 358.3,34583.3C354.2,34583.3 348.133,34576.7 340.433,34570L339.9,34570C331.633,34566.7 324.96,34563.3 319.953,34560C317.397,34556.7 315.643,34553.3 313.763,34550C311.757,34546.7 309.687,34543.3 308.347,34540C305.887,34533.3 304.683,34523.3 303.66,34516.7L303.133,34516.7C302.653,34510 302.727,34506.7 302.427,34503.3C302.1,34500 302.35,34496.7 302.107,34490C301.873,34486.7 301.68,34483.3 301.4,34480C301.117,34476.7 300.243,34470 299.78,34466.7C299.563,34466.7 298.86,34466.7 298.58,34463.3C295.467,34446.7 288.187,34436.7 266.053,34450L266.583,34450C266.767,34456.7 266.32,34460 265.99,34463.3C265.97,34463.3 266.537,34463.3 266.517,34466.7C266.147,34470 265.017,34470 264.2,34473.3C263.307,34476.7 262.583,34476.7 261.21,34480L256.113,34480C252.517,34480 247.83,34476.7 242.857,34473.3C228.113,34460 208.423,34433.3 189.183,34413.3C176.24,34400 163.347,34390 152.68,34390C152.457,34390 152.373,34386.7 152.15,34386.7C127.21,34386.7 115.817,34393.3 112.04,34403.3C111.01,34406.7 110.173,34410 110.107,34413.3C110.05,34413.3 110.803,34416.7 111.587,34420C113.053,34426.7 116.05,34433.3 120.453,34443.3C128.69,34456.7 141.257,34470 154.15,34483.3C167.33,34496.7 180.75,34506.7 190.937,34513.3C205.193,34523.3 211.783,34530 212.497,34533.3C212.683,34533.3 212.14,34536.7 211.723,34536.7C207.923,34543.3 182.193,34540 169.36,34546.7C166.517,34550 164.387,34553.3 163.247,34556.7C164.327,34560 165.813,34560 167.467,34563.3C172.437,34570 179.287,34573.3 188.073,34576.7C205.683,34580 228.973,34576.7 249.887,34580C256.747,34583.3 263.153,34583.3 269.157,34586.7C278.163,34590 285.847,34596.7 291.243,34606.7C293.043,34613.3 294.5,34616.7 295.75,34620C302.543,34623.3 307.403,34626.7 310.59,34630C313.777,34633.3 315.083,34636.7 315.34,34640L314.953,34640C314.457,34640 314.147,34640 313.123,34643.3C302.92,34646.7 268.267,34640 252.65,34643.3C240.023,34646.7 228.357,34646.7 217.7,34643.3C207.047,34640 197.23,34636.7 188.057,34630C183.733,34626.7 179.263,34623.3 175.187,34620C170.88,34616.7 166.263,34613.3 162.173,34610C154.223,34600 146.34,34590 138.89,34583.3C137.837,34580 137.02,34576.7 135.44,34573.3C133.77,34570 131.413,34566.7 129.25,34563.3C127.427,34563.3 125.263,34560 123.2,34556.7C120.903,34556.7 118.34,34556.7 115.85,34553.3L107.727,34553.3C100.11,34550 92.08,34553.3 85.613,34553.3C80.79,34556.7 77.617,34560 74.787,34563.3C73.373,34563.3 72.117,34566.7 71.27,34566.7C70.443,34570 69.88,34570 69.727,34573.3L70.253,34573.3C70.217,34576.7 70.53,34576.7 71.063,34580C72.497,34586.7 76.99,34596.7 88.58,34603.3C108.09,34613.3 117.3,34623.3 119.46,34630C120,34630 119.507,34633.3 119.217,34633.3C118.85,34633.3 119.233,34636.7 118.443,34636.7L117.53,34636.7C113.11,34640 104.49,34643.3 93.34,34643.3L36.523,34643.3C26.2,34643.3 18.668,34646.7 13.003,34653.3L11.175,34653.3C6.548,34656.7 3.47,34660 1.932,34663.3C1.761,34663.3 1.69,34666.7 1.545,34666.7C0.996,34666.7 0.012,34670 0,34670C-0.012,34670 0.528,34673.3 0.528,34673.3C0.607,34673.3 1.22,34676.7 1.866,34680C4.444,34690 13.122,34696.7 24.764,34706.7C30.528,34710 36.44,34713.3 43.26,34713.3C57.177,34720 72.347,34720 86.19,34713.3C112.45,34706.7 121.74,34710 122.193,34713.3C121.827,34716.7 119.437,34720 115.307,34723.3C110.95,34730 105.21,34736.7 99.28,34740C93.967,34746.7 88.317,34753.3 83.78,34760L83.393,34760C78.783,34766.7 74.627,34773.3 73.133,34776.7C72.443,34780 71.94,34783.3 72.257,34786.7L72.783,34786.7C72.847,34790 73.227,34790 73.31,34790C74.75,34796.7 81.047,34806.7 97.367,34810L166.05,34743.3C166.327,34743.3 166.157,34743.3 166.433,34740C171.05,34736.7 175.41,34730 180.633,34726.7C196.293,34713.3 215.123,34706.7 238.82,34710C256.703,34713.3 296.713,34703.3 306.503,34713.3L308.087,34713.3C308.22,34716.7 308.547,34716.7 308.613,34716.7C308.64,34716.7 308.213,34716.7 307.84,34720C306.383,34723.3 301.843,34730 292.87,34736.7L293.397,34736.7C292.67,34743.3 291.353,34746.7 289.777,34746.7C269.227,34790 182.153,34763.3 169.65,34786.7C168.85,34786.7 167.727,34790 167.577,34793.3L168.103,34793.3C168.053,34793.3 167.643,34796.7 168.527,34800C169.407,34803.3 171.117,34806.7 173.42,34810L173.947,34810C185.743,34810 193.267,34810 198.173,34813.3C202.37,34813.3 205.187,34816.7 204.75,34820C202.153,34840 128.87,34883.3 114.067,34916.7C112.843,34916.7 111.57,34920 111.223,34923.3L111.75,34923.3C111.707,34930 111.563,34936.7 112.213,34940L112.74,34940C113.423,34943.3 114.017,34946.7 115.273,34950C115.387,34950 115.687,34953.3 115.803,34953.3C118.533,34956.7 122.69,34963.3 127.373,34963.3C156.683,34976.7 219.757,34916.7 238.033,34886.7C249.747,34870 256.26,34863.3 259.93,34863.3C261.333,34866.7 262.357,34866.7 263.097,34870L263.623,34870C264.377,34873.3 264.71,34876.7 265.243,34883.3C266.663,34893.3 268.77,34906.7 275.59,34913.3L280.443,34913.3C284.42,34916.7 289.05,34916.7 295.877,34913.3C295.883,34910 296.26,34910 296.263,34910C296.323,34903.3 295.983,34896.7 296.433,34890C296.467,34890 296.783,34890 296.82,34886.7C297.303,34880 298.357,34873.3 299.343,34866.7L299.73,34866.7C300.787,34860 301.987,34853.3 303.697,34846.7C305.493,34840 307.387,34830 310.02,34826.7C314.527,34813.3 320.99,34803.3 328.47,34793.3C329.923,34793.3 330.787,34790 332.37,34786.7C337.067,34783.3 341.533,34776.7 347.467,34773.3C353.4,34766.7 360.167,34763.3 367.433,34756.7L367.3,34873.3C353.067,34896.7 325.223,34916.7 305.557,34940C297.603,34943.3 291.977,34946.7 287.417,34953.3C285.617,34953.3 283.397,34956.7 282.077,34956.7C281.827,34956.7 281.923,34956.7 281.69,34960C280.23,34960 279.143,34963.3 278.317,34966.7L277.93,34966.7C276.84,34970 275.497,34973.3 275.753,34976.7C275.973,34983.3 277.587,34986.7 279.87,34990C283.103,34996.7 288.253,35000 294.183,35000C296.49,35003.3 298.247,35003.3 300.863,35003.3C305.53,35003.3 310.803,35000 316.157,34996.7C321.513,34993.3 327.043,34990 332.713,34980C337.2,34976.7 341.167,34970 344.567,34966.7C351.333,34960 356.6,34956.7 359.967,34953.3C361.167,34953.3 362.533,34956.7 363.367,34956.7C365.433,34960 366.233,34963.3 366.567,34970C366.9,34976.7 367.267,34986.7 367.067,34993.3C366.833,35003.3 366.033,35013.3 366.4,35023.3L366.933,35023.3C367.333,35033.3 367.9,35040 369.933,35050C371.967,35056.7 375.8,35063.3 380.633,35070C383.133,35073.3 385.567,35073.3 389.033,35076.7C392.7,35076.7 396.5,35080 401.467,35080C474.2,35080 398.733,34886.7 470.3,34980C515.633,35036.7 556.767,34963.3 497.6,34940C477.933,34916.7 449.233,34900 435,34873.3L434.6,34760C492.933,34793.3 506.267,34850 506.767,34913.3C557.367,34936.7 517.9,34820 564.767,34886.7C588.933,34926.7 693.4,35020 691.933,34923.3C685.833,34883.3 535.4,34806.7 629.767,34810C667.567,34746.7 521.8,34806.7 510.433,34736.7C462.567,34693.3 537.533,34716.7 564.133,34710C595.7,34703.3 618.067,34720 636.533,34743.3L705.433,34810C796.033,34776.7 605.367,34693.3 717.4,34713.3C771.633,34736.7 848.767,34660 766.2,34643.3C722.433,34646.7 635.633,34646.7 713.667,34603.3C771.633,34560 681.067,34523.3 664.2,34583.3C633.533,34616.7 601.1,34656.7 550.6,34643.3C525.6,34640 452.3,34656.7 506.633,34620C526.633,34550 622.567,34603.3 639.867,34556.7C630.733,34530 554.767,34556.7 611.8,34513.3C642.367,34496.7 703.933,34433.3 691.7,34403.3L691.7,34403.3Z" style="fill:rgb(52,152,219);fill-rule:nonzero;"/>
        </g>
        <g transform="matrix(0.149204,0,0,0.149204,253.839,-4923.87)">
            <path d="M691.7,34403.3C687.6,34393.3 675.367,34390 651.033,34390C608.567,34393.3 533.267,34543.3 537.033,34450C472.767,34413.3 531.267,34556.7 462.433,34570C419.033,34616.7 439.067,34540 434.567,34516.7C427.567,34483.3 443.3,34460 468,34443.3L536.7,34373.3C502.267,34283.3 417.167,34473.3 437.667,34363.3C454,34330 426.967,34283.3 401.433,34280L401.833,34280C395.1,34280 388.7,34283.3 382.633,34290C377.133,34293.3 371.9,34300 368.2,34310L367.8,34310C365.933,34313.3 364,34320 362.867,34323.3L362.5,34323.3C361.667,34326.7 360.567,34330 360.3,34336.7L360.833,34336.7C360.633,34340 360.433,34343.3 361.167,34350L361.7,34350C362.5,34353.3 363.4,34360 365.267,34363.3L365.8,34363.3C368.167,34376.7 368.833,34386.7 368.433,34390C368.4,34390 368.967,34393.3 368.933,34393.3C368.7,34393.3 367.633,34396.7 366.867,34396.7C366.033,34396.7 364.633,34400 363.233,34400C361.8,34400 360.267,34396.7 358.367,34396.7C352.667,34393.3 345.467,34383.3 336.8,34376.7C325.507,34366.7 312.07,34353.3 299.777,34350C293.253,34350 287.267,34350 281.457,34353.3C278.663,34353.3 276.41,34356.7 273.9,34360C271.147,34363.3 268.573,34370 266.24,34373.3L334.6,34443.3C346.967,34450 357.067,34463.3 363.033,34473.3C364.5,34476.7 365.933,34480 366.867,34483.3C367.833,34486.7 368.467,34490 368.867,34493.3C369.8,34500 369.233,34506.7 367.4,34516.7C366.267,34520 366.9,34530 367.533,34540C367.833,34546.7 367.2,34550 367.467,34553.3C367.667,34560 368.533,34566.7 368.3,34570C368.133,34573.3 368.067,34576.7 367.033,34580C365.533,34583.3 362.533,34583.3 358.3,34583.3C354.2,34583.3 348.133,34576.7 340.433,34570L339.9,34570C331.633,34566.7 324.96,34563.3 319.953,34560C317.397,34556.7 315.643,34553.3 313.763,34550C311.757,34546.7 309.687,34543.3 308.347,34540C305.887,34533.3 304.683,34523.3 303.66,34516.7L303.133,34516.7C302.653,34510 302.727,34506.7 302.427,34503.3C302.1,34500 302.35,34496.7 302.107,34490C301.873,34486.7 301.68,34483.3 301.4,34480C301.117,34476.7 300.243,34470 299.78,34466.7C299.563,34466.7 298.86,34466.7 298.58,34463.3C295.467,34446.7 288.187,34436.7 266.053,34450L266.583,34450C266.767,34456.7 266.32,34460 265.99,34463.3C265.97,34463.3 266.537,34463.3 266.517,34466.7C266.147,34470 265.017,34470 264.2,34473.3C263.307,34476.7 262.583,34476.7 261.21,34480L256.113,34480C252.517,34480 247.83,34476.7 242.857,34473.3C228.113,34460 208.423,34433.3 189.183,34413.3C176.24,34400 163.347,34390 152.68,34390C152.457,34390 152.373,34386.7 152.15,34386.7C127.21,34386.7 115.817,34393.3 112.04,34403.3C111.01,34406.7 110.173,34410 110.107,34413.3C110.05,34413.3 110.803,34416.7 111.587,34420C113.053,34426.7 116.05,34433.3 120.453,34443.3C128.69,34456.7 141.257,34470 154.15,34483.3C167.33,34496.7 180.75,34506.7 190.937,34513.3C205.193,34523.3 211.783,34530 212.497,34533.3C212.683,34533.3 212.14,34536.7 211.723,34536.7C207.923,34543.3 182.193,34540 169.36,34546.7C166.517,34550 164.387,34553.3 163.247,34556.7C164.327,34560 165.813,34560 167.467,34563.3C172.437,34570 179.287,34573.3 188.073,34576.7C205.683,34580 228.973,34576.7 249.887,34580C256.747,34583.3 263.153,34583.3 269.157,34586.7C278.163,34590 285.847,34596.7 291.243,34606.7C293.043,34613.3 294.5,34616.7 295.75,34620C302.543,34623.3 307.403,34626.7 310.59,34630C313.777,34633.3 315.083,34636.7 315.34,34640L314.953,34640C314.457,34640 314.147,34640 313.123,34643.3C302.92,34646.7 268.267,34640 252.65,34643.3C240.023,34646.7 228.357,34646.7 217.7,34643.3C207.047,34640 197.23,34636.7 188.057,34630C183.733,34626.7 179.263,34623.3 175.187,34620C170.88,34616.7 166.263,34613.3 162.173,34610C154.223,34600 146.34,34590 138.89,34583.3C137.837,34580 137.02,34576.7 135.44,34573.3C133.77,34570 131.413,34566.7 129.25,34563.3C127.427,34563.3 125.263,34560 123.2,34556.7C120.903,34556.7 118.34,34556.7 115.85,34553.3L107.727,34553.3C100.11,34550 92.08,34553.3 85.613,34553.3C80.79,34556.7 77.617,34560 74.787,34563.3C73.373,34563.3 72.117,34566.7 71.27,34566.7C70.443,34570 69.88,34570 69.727,34573.3L70.253,34573.3C70.217,34576.7 70.53,34576.7 71.063,34580C72.497,34586.7 76.99,34596.7 88.58,34603.3C108.09,34613.3 117.3,34623.3 119.46,34630C120,34630 119.507,34633.3 119.217,34633.3C118.85,34633.3 119.233,34636.7 118.443,34636.7L117.53,34636.7C113.11,34640 104.49,34643.3 93.34,34643.3L36.523,34643.3C26.2,34643.3 18.668,34646.7 13.003,34653.3L11.175,34653.3C6.548,34656.7 3.47,34660 1.932,34663.3C1.761,34663.3 1.69,34666.7 1.545,34666.7C0.996,34666.7 0.012,34670 0,34670C-0.012,34670 0.528,34673.3 0.528,34673.3C0.607,34673.3 1.22,34676.7 1.866,34680C4.444,34690 13.122,34696.7 24.764,34706.7C30.528,34710 36.44,34713.3 43.26,34713.3C57.177,34720 72.347,34720 86.19,34713.3C112.45,34706.7 121.74,34710 122.193,34713.3C121.827,34716.7 119.437,34720 115.307,34723.3C110.95,34730 105.21,34736.7 99.28,34740C93.967,34746.7 88.317,34753.3 83.78,34760L83.393,34760C78.783,34766.7 74.627,34773.3 73.133,34776.7C72.443,34780 71.94,34783.3 72.257,34786.7L72.783,34786.7C72.847,34790 73.227,34790 73.31,34790C74.75,34796.7 81.047,34806.7 97.367,34810L166.05,34743.3C166.327,34743.3 166.157,34743.3 166.433,34740C171.05,34736.7 175.41,34730 180.633,34726.7C196.293,34713.3 215.123,34706.7 238.82,34710C256.703,34713.3 296.713,34703.3 306.503,34713.3L308.087,34713.3C308.22,34716.7 308.547,34716.7 308.613,34716.7C308.64,34716.7 308.213,34716.7 307.84,34720C306.383,34723.3 301.843,34730 292.87,34736.7L293.397,34736.7C292.67,34743.3 291.353,34746.7 289.777,34746.7C269.227,34790 182.153,34763.3 169.65,34786.7C168.85,34786.7 167.727,34790 167.577,34793.3L168.103,34793.3C168.053,34793.3 167.643,34796.7 168.527,34800C169.407,34803.3 171.117,34806.7 173.42,34810L173.947,34810C185.743,34810 193.267,34810 198.173,34813.3C202.37,34813.3 205.187,34816.7 204.75,34820C202.153,34840 128.87,34883.3 114.067,34916.7C112.843,34916.7 111.57,34920 111.223,34923.3L111.75,34923.3C111.707,34930 111.563,34936.7 112.213,34940L112.74,34940C113.423,34943.3 114.017,34946.7 115.273,34950C115.387,34950 115.687,34953.3 115.803,34953.3C118.533,34956.7 122.69,34963.3 127.373,34963.3C156.683,34976.7 219.757,34916.7 238.033,34886.7C249.747,34870 256.26,34863.3 259.93,34863.3C261.333,34866.7 262.357,34866.7 263.097,34870L263.623,34870C264.377,34873.3 264.71,34876.7 265.243,34883.3C266.663,34893.3 268.77,34906.7 275.59,34913.3L280.443,34913.3C284.42,34916.7 289.05,34916.7 295.877,34913.3C295.883,34910 296.26,34910 296.263,34910C296.323,34903.3 295.983,34896.7 296.433,34890C296.467,34890 296.783,34890 296.82,34886.7C297.303,34880 298.357,34873.3 299.343,34866.7L299.73,34866.7C300.787,34860 301.987,34853.3 303.697,34846.7C305.493,34840 307.387,34830 310.02,34826.7C314.527,34813.3 320.99,34803.3 328.47,34793.3C329.923,34793.3 330.787,34790 332.37,34786.7C337.067,34783.3 341.533,34776.7 347.467,34773.3C353.4,34766.7 360.167,34763.3 367.433,34756.7L367.3,34873.3C353.067,34896.7 325.223,34916.7 305.557,34940C297.603,34943.3 291.977,34946.7 287.417,34953.3C285.617,34953.3 283.397,34956.7 282.077,34956.7C281.827,34956.7 281.923,34956.7 281.69,34960C280.23,34960 279.143,34963.3 278.317,34966.7L277.93,34966.7C276.84,34970 275.497,34973.3 275.753,34976.7C275.973,34983.3 277.587,34986.7 279.87,34990C283.103,34996.7 288.253,35000 294.183,35000C296.49,35003.3 298.247,35003.3 300.863,35003.3C305.53,35003.3 310.803,35000 316.157,34996.7C321.513,34993.3 327.043,34990 332.713,34980C337.2,34976.7 341.167,34970 344.567,34966.7C351.333,34960 356.6,34956.7 359.967,34953.3C361.167,34953.3 362.533,34956.7 363.367,34956.7C365.433,34960 366.233,34963.3 366.567,34970C366.9,34976.7 367.267,34986.7 367.067,34993.3C366.833,35003.3 366.033,35013.3 366.4,35023.3L366.933,35023.3C367.333,35033.3 367.9,35040 369.933,35050C371.967,35056.7 375.8,35063.3 380.633,35070C383.133,35073.3 385.567,35073.3 389.033,35076.7C392.7,35076.7 396.5,35080 401.467,35080C474.2,35080 398.733,34886.7 470.3,34980C515.633,35036.7 556.767,34963.3 497.6,34940C477.933,34916.7 449.233,34900 435,34873.3L434.6,34760C492.933,34793.3 506.267,34850 506.767,34913.3C557.367,34936.7 517.9,34820 564.767,34886.7C588.933,34926.7 693.4,35020 691.933,34923.3C685.833,34883.3 535.4,34806.7 629.767,34810C667.567,34746.7 521.8,34806.7 510.433,34736.7C462.567,34693.3 537.533,34716.7 564.133,34710C595.7,34703.3 618.067,34720 636.533,34743.3L705.433,34810C796.033,34776.7 605.367,34693.3 717.4,34713.3C771.633,34736.7 848.767,34660 766.2,34643.3C722.433,34646.7 635.633,34646.7 713.667,34603.3C771.633,34560 681.067,34523.3 664.2,34583.3C633.533,34616.7 601.1,34656.7 550.6,34643.3C525.6,34640 452.3,34656.7 506.633,34620C526.633,34550 622.567,34603.3 639.867,34556.7C630.733,34530 554.767,34556.7 611.8,34513.3C642.367,34496.7 703.933,34433.3 691.7,34403.3L691.7,34403.3Z" style="fill:rgb(52,152,219);fill-rule:nonzero;"/>
        </g>
        <g transform="matrix(0.0945843,0,0,0.0945843,656.671,-2720.93)">
            <path d="M691.7,34403.3C687.6,34393.3 675.367,34390 651.033,34390C608.567,34393.3 533.267,34543.3 537.033,34450C472.767,34413.3 531.267,34556.7 462.433,34570C419.033,34616.7 439.067,34540 434.567,34516.7C427.567,34483.3 443.3,34460 468,34443.3L536.7,34373.3C502.267,34283.3 417.167,34473.3 437.667,34363.3C454,34330 426.967,34283.3 401.433,34280L401.833,34280C395.1,34280 388.7,34283.3 382.633,34290C377.133,34293.3 371.9,34300 368.2,34310L367.8,34310C365.933,34313.3 364,34320 362.867,34323.3L362.5,34323.3C361.667,34326.7 360.567,34330 360.3,34336.7L360.833,34336.7C360.633,34340 360.433,34343.3 361.167,34350L361.7,34350C362.5,34353.3 363.4,34360 365.267,34363.3L365.8,34363.3C368.167,34376.7 368.833,34386.7 368.433,34390C368.4,34390 368.967,34393.3 368.933,34393.3C368.7,34393.3 367.633,34396.7 366.867,34396.7C366.033,34396.7 364.633,34400 363.233,34400C361.8,34400 360.267,34396.7 358.367,34396.7C352.667,34393.3 345.467,34383.3 336.8,34376.7C325.507,34366.7 312.07,34353.3 299.777,34350C293.253,34350 287.267,34350 281.457,34353.3C278.663,34353.3 276.41,34356.7 273.9,34360C271.147,34363.3 268.573,34370 266.24,34373.3L334.6,34443.3C346.967,34450 357.067,34463.3 363.033,34473.3C364.5,34476.7 365.933,34480 366.867,34483.3C367.833,34486.7 368.467,34490 368.867,34493.3C369.8,34500 369.233,34506.7 367.4,34516.7C366.267,34520 366.9,34530 367.533,34540C367.833,34546.7 367.2,34550 367.467,34553.3C367.667,34560 368.533,34566.7 368.3,34570C368.133,34573.3 368.067,34576.7 367.033,34580C365.533,34583.3 362.533,34583.3 358.3,34583.3C354.2,34583.3 348.133,34576.7 340.433,34570L339.9,34570C331.633,34566.7 324.96,34563.3 319.953,34560C317.397,34556.7 315.643,34553.3 313.763,34550C311.757,34546.7 309.687,34543.3 308.347,34540C305.887,34533.3 304.683,34523.3 303.66,34516.7L303.133,34516.7C302.653,34510 302.727,34506.7 302.427,34503.3C302.1,34500 302.35,34496.7 302.107,34490C301.873,34486.7 301.68,34483.3 301.4,34480C301.117,34476.7 300.243,34470 299.78,34466.7C299.563,34466.7 298.86,34466.7 298.58,34463.3C295.467,34446.7 288.187,34436.7 266.053,34450L266.583,34450C266.767,34456.7 266.32,34460 265.99,34463.3C265.97,34463.3 266.537,34463.3 266.517,34466.7C266.147,34470 265.017,34470 264.2,34473.3C263.307,34476.7 262.583,34476.7 261.21,34480L256.113,34480C252.517,34480 247.83,34476.7 242.857,34473.3C228.113,34460 208.423,34433.3 189.183,34413.3C176.24,34400 163.347,34390 152.68,34390C152.457,34390 152.373,34386.7 152.15,34386.7C127.21,34386.7 115.817,34393.3 112.04,34403.3C111.01,34406.7 110.173,34410 110.107,34413.3C110.05,34413.3 110.803,34416.7 111.587,34420C113.053,34426.7 116.05,34433.3 120.453,34443.3C128.69,34456.7 141.257,34470 154.15,34483.3C167.33,34496.7 180.75,34506.7 190.937,34513.3C205.193,34523.3 211.783,34530 212.497,34533.3C212.683,34533.3 212.14,34536.7 211.723,34536.7C207.923,34543.3 182.193,34540 169.36,34546.7C166.517,34550 164.387,34553.3 163.247,34556.7C164.327,34560 165.813,34560 167.467,34563.3C172.437,34570 179.287,34573.3 188.073,34576.7C205.683,34580 228.973,34576.7 249.887,34580C256.747,34583.3 263.153,34583.3 269.157,34586.7C278.163,34590 285.847,34596.7 291.243,34606.7C293.043,34613.3 294.5,34616.7 295.75,34620C302.543,34623.3 307.403,34626.7 310.59,34630C313.777,34633.3 315.083,34636.7 315.34,34640L314.953,34640C314.457,34640 314.147,34640 313.123,34643.3C302.92,34646.7 268.267,34640 252.65,34643.3C240.023,34646.7 228.357,34646.7 217.7,34643.3C207.047,34640 197.23,34636.7 188.057,34630C183.733,34626.7 179.263,34623.3 175.187,34620C170.88,34616.7 166.263,34613.3 162.173,34610C154.223,34600 146.34,34590 138.89,34583.3C137.837,34580 137.02,34576.7 135.44,34573.3C133.77,34570 131.413,34566.7 129.25,34563.3C127.427,34563.3 125.263,34560 123.2,34556.7C120.903,34556.7 118.34,34556.7 115.85,34553.3L107.727,34553.3C100.11,34550 92.08,34553.3 85.613,34553.3C80.79,34556.7 77.617,34560 74.787,34563.3C73.373,34563.3 72.117,34566.7 71.27,34566.7C70.443,34570 69.88,34570 69.727,34573.3L70.253,34573.3C70.217,34576.7 70.53,34576.7 71.063,34580C72.497,34586.7 76.99,34596.7 88.58,34603.3C108.09,34613.3 117.3,34623.3 119.46,34630C120,34630 119.507,34633.3 119.217,34633.3C118.85,34633.3 119.233,34636.7 118.443,34636.7L117.53,34636.7C113.11,34640 104.49,34643.3 93.34,34643.3L36.523,34643.3C26.2,34643.3 18.668,34646.7 13.003,34653.3L11.175,34653.3C6.548,34656.7 3.47,34660 1.932,34663.3C1.761,34663.3 1.69,34666.7 1.545,34666.7C0.996,34666.7 0.012,34670 0,34670C-0.012,34670 0.528,34673.3 0.528,34673.3C0.607,34673.3 1.22,34676.7 1.866,34680C4.444,34690 13.122,34696.7 24.764,34706.7C30.528,34710 36.44,34713.3 43.26,34713.3C57.177,34720 72.347,34720 86.19,34713.3C112.45,34706.7 121.74,34710 122.193,34713.3C121.827,34716.7 119.437,34720 115.307,34723.3C110.95,34730 105.21,34736.7 99.28,34740C93.967,34746.7 88.317,34753.3 83.78,34760L83.393,34760C78.783,34766.7 74.627,34773.3 73.133,34776.7C72.443,34780 71.94,34783.3 72.257,34786.7L72.783,34786.7C72.847,34790 73.227,34790 73.31,34790C74.75,34796.7 81.047,34806.7 97.367,34810L166.05,34743.3C166.327,34743.3 166.157,34743.3 166.433,34740C171.05,34736.7 175.41,34730 180.633,34726.7C196.293,34713.3 215.123,34706.7 238.82,34710C256.703,34713.3 296.713,34703.3 306.503,34713.3L308.087,34713.3C308.22,34716.7 308.547,34716.7 308.613,34716.7C308.64,34716.7 308.213,34716.7 307.84,34720C306.383,34723.3 301.843,34730 292.87,34736.7L293.397,34736.7C292.67,34743.3 291.353,34746.7 289.777,34746.7C269.227,34790 182.153,34763.3 169.65,34786.7C168.85,34786.7 167.727,34790 167.577,34793.3L168.103,34793.3C168.053,34793.3 167.643,34796.7 168.527,34800C169.407,34803.3 171.117,34806.7 173.42,34810L173.947,34810C185.743,34810 193.267,34810 198.173,34813.3C202.37,34813.3 205.187,34816.7 204.75,34820C202.153,34840 128.87,34883.3 114.067,34916.7C112.843,34916.7 111.57,34920 111.223,34923.3L111.75,34923.3C111.707,34930 111.563,34936.7 112.213,34940L112.74,34940C113.423,34943.3 114.017,34946.7 115.273,34950C115.387,34950 115.687,34953.3 115.803,34953.3C118.533,34956.7 122.69,34963.3 127.373,34963.3C156.683,34976.7 219.757,34916.7 238.033,34886.7C249.747,34870 256.26,34863.3 259.93,34863.3C261.333,34866.7 262.357,34866.7 263.097,34870L263.623,34870C264.377,34873.3 264.71,34876.7 265.243,34883.3C266.663,34893.3 268.77,34906.7 275.59,34913.3L280.443,34913.3C284.42,34916.7 289.05,34916.7 295.877,34913.3C295.883,34910 296.26,34910 296.263,34910C296.323,34903.3 295.983,34896.7 296.433,34890C296.467,34890 296.783,34890 296.82,34886.7C297.303,34880 298.357,34873.3 299.343,34866.7L299.73,34866.7C300.787,34860 301.987,34853.3 303.697,34846.7C305.493,34840 307.387,34830 310.02,34826.7C314.527,34813.3 320.99,34803.3 328.47,34793.3C329.923,34793.3 330.787,34790 332.37,34786.7C337.067,34783.3 341.533,34776.7 347.467,34773.3C353.4,34766.7 360.167,34763.3 367.433,34756.7L367.3,34873.3C353.067,34896.7 325.223,34916.7 305.557,34940C297.603,34943.3 291.977,34946.7 287.417,34953.3C285.617,34953.3 283.397,34956.7 282.077,34956.7C281.827,34956.7 281.923,34956.7 281.69,34960C280.23,34960 279.143,34963.3 278.317,34966.7L277.93,34966.7C276.84,34970 275.497,34973.3 275.753,34976.7C275.973,34983.3 277.587,34986.7 279.87,34990C283.103,34996.7 288.253,35000 294.183,35000C296.49,35003.3 298.247,35003.3 300.863,35003.3C305.53,35003.3 310.803,35000 316.157,34996.7C321.513,34993.3 327.043,34990 332.713,34980C337.2,34976.7 341.167,34970 344.567,34966.7C351.333,34960 356.6,34956.7 359.967,34953.3C361.167,34953.3 362.533,34956.7 363.367,34956.7C365.433,34960 366.233,34963.3 366.567,34970C366.9,34976.7 367.267,34986.7 367.067,34993.3C366.833,35003.3 366.033,35013.3 366.4,35023.3L366.933,35023.3C367.333,35033.3 367.9,35040 369.933,35050C371.967,35056.7 375.8,35063.3 380.633,35070C383.133,35073.3 385.567,35073.3 389.033,35076.7C392.7,35076.7 396.5,35080 401.467,35080C474.2,35080 398.733,34886.7 470.3,34980C515.633,35036.7 556.767,34963.3 497.6,34940C477.933,34916.7 449.233,34900 435,34873.3L434.6,34760C492.933,34793.3 506.267,34850 506.767,34913.3C557.367,34936.7 517.9,34820 564.767,34886.7C588.933,34926.7 693.4,35020 691.933,34923.3C685.833,34883.3 535.4,34806.7 629.767,34810C667.567,34746.7 521.8,34806.7 510.433,34736.7C462.567,34693.3 537.533,34716.7 564.133,34710C595.7,34703.3 618.067,34720 636.533,34743.3L705.433,34810C796.033,34776.7 605.367,34693.3 717.4,34713.3C771.633,34736.7 848.767,34660 766.2,34643.3C722.433,34646.7 635.633,34646.7 713.667,34603.3C771.633,34560 681.067,34523.3 664.2,34583.3C633.533,34616.7 601.1,34656.7 550.6,34643.3C525.6,34640 452.3,34656.7 506.633,34620C526.633,34550 622.567,34603.3 639.867,34556.7C630.733,34530 554.767,34556.7 611.8,34513.3C642.367,34496.7 703.933,34433.3 691.7,34403.3L691.7,34403.3Z" style="fill:rgb(52,152,219);fill-rule:nonzero;"/>
        </g>
    </g>
</svg>
